<svg id="Layer_1" data-name="Layer 1" xmlns="http://www.w3.org/2000/svg" viewBox="0 0 222 216"><defs><style>.cls-1{fill:#f9c33e;}</style></defs><title>LEB_FB_Gold-01</title><path class="cls-1" d="M94.4,188v-1.24q0-29.59,0-59.18A6.33,6.33,0,0,1,95,125c.76-1.6,2.29-2,3.92-2,3,0,6,0,8.93,0s4.6-1.35,4.94-4.32c.55-4.76,1-9.53,1.5-14.29a3.21,3.21,0,0,0-3.34-3.72c-3.89-.05-7.77,0-11.66,0-3.44,0-4.87-1.42-4.84-4.88,0-3.23.07-6.47.23-9.7s1.66-4.91,4.7-5.26c3.21-.36,6.46-.36,9.69-.4,4.45-.07,5.49-1.06,5.49-5.5,0-4.1,0-8.2,0-12.31,0-3.16-1.42-4.61-4.6-4.56-6.69.1-13.39,0-20,.48-5.69.39-11,2.27-15.14,6.48C71,68.8,69.13,73.58,68.2,78.79c-1,5.69-.6,11.44-.69,17.18,0,1.67-.31,3.24-2,4a6.57,6.57,0,0,1-2.48.58c-1.59.09-3.19,0-4.79,0-2.65.05-4.14,1.41-4.19,4.05q-.12,7.13,0,14.25c0,2.61,1.59,4,4.22,4,1.64,0,3.28,0,4.92,0,2.76.06,4.2,1.52,4.28,4.27v60.68c-.52,0-.94.06-1.36.06H39.47c-4.15,0-6.47-2.34-6.47-6.51V36.57C33,32.32,35.3,30,39.55,30H184.46c4.25,0,6.54,2.31,6.54,6.58V181.37c0,4.35-2.27,6.63-6.61,6.63h-90Z"/></svg>