<?xml version="1.0" encoding="utf-8"?>
<!-- Generator: Adobe Illustrator 21.1.0, SVG Export Plug-In . SVG Version: 6.00 Build 0)  -->
<svg version="1.1" id="Layer_1" xmlns="http://www.w3.org/2000/svg" xmlns:xlink="http://www.w3.org/1999/xlink" x="0px" y="0px"
	 viewBox="0 0 1179.5 249.1" style="enable-background:new 0 0 1179.5 249.1;" xml:space="preserve">
<style type="text/css">
	.st0{fill:none;}
	.st1{fill:#7F552A;}
	.st2{fill:#7F552A;stroke:#7F552A;stroke-width:0.5;stroke-miterlimit:10;}
	.st3{fill:#2D110D;}
	.st4{fill:#5F3814;stroke:#5F3814;stroke-width:0.75;stroke-miterlimit:10;}
	.st5{fill:#5F3814;}
	.st6{fill:#FFFFFF;}
	.st7{fill:#3D1A0B;stroke:#3D1A0B;stroke-width:0.5;stroke-miterlimit:10;}
	.st8{fill:#3D1A0B;}
	.st9{fill:#5F3814;stroke:#5F3814;stroke-width:0.5;stroke-miterlimit:10;}
	.st10{fill:#775F4B;}
	.st11{fill:#301C11;stroke:#301C11;stroke-width:0.75;stroke-miterlimit:10;}
	.st12{fill:#5F3814;stroke:#5F3814;stroke-miterlimit:10;}
	.st13{fill:#2D110D;stroke:#2D110D;stroke-width:0.5;stroke-miterlimit:10;}
	.st14{fill:#A0774D;}
	.st15{fill:#D1C3B3;}
	.st16{fill:#3D1A0B;stroke:#3D1A0B;stroke-width:2;stroke-miterlimit:10;}
	.st17{fill:#301C11;}
	.st18{fill:#301C11;stroke:#301C11;stroke-width:0.5;stroke-miterlimit:10;}
	.st19{fill:#301C11;stroke:#301C11;stroke-width:0.25;stroke-miterlimit:10;}
</style>
<title>LEB_Mtns_2</title>
<g id="FOOTER">
	<path class="st0" d="M789.4,240.3c0.3,0.2,0.6,0.5,0.8,0.8C789.9,240.5,789.5,240.2,789.4,240.3z"/>
	<path class="st0" d="M761.2,166.6L761.2,166.6L761.2,166.6L761.2,166.6z"/>
	<path class="st0" d="M115.6,206.7l-2.5,1.1l1.8-0.8L115.6,206.7z"/>
	<path class="st1" d="M352.5,181L352.5,181c0,0.2,0.1,0.4,0.1,0.6C352.6,181.4,352.6,181.2,352.5,181z"/>
	<path class="st1" d="M386.2,245.5c2.7-1,5.5-1.6,8.2-2.5c4.9-1.7,9.7-3.5,14.4-5.7c1.8-0.8,3.6-1.8,5.3-2.9c3-1.9,6.3-3.2,9.8-4
		c3-0.9,6.2-1.2,9.3-1.1c2.1,0,4.2-0.2,6.2-0.8c3.9-0.9,7.7-2,11.6-3.1c4.1-1.2,8.1-2.9,11.8-5c1.1-0.7,2.3-1,3.6-0.8
		c0.3,0,0.5,0.2,0.7,0.4c0.2,0.3,0.1,0.8-0.2,1c0,0,0,0,0,0c-0.7,0.6-1.5,1.2-2.3,1.7c-3.3,1.9-6.7,3.7-10,5.6
		c-4,2.3-8.1,4.3-12.2,6.4c-4.6,2.3-9.4,4.4-14,6.5c-3.8,1.7-7.7,3.3-11.6,4.9c-2.6,1.1-5.2,2.1-7.9,3.1h14.4
		c1.9-0.7,3.9-1.4,5.8-2.1c6.8-2.5,13.5-5.4,20-8.7c5.4-2.9,10.6-6.1,15.6-9.6c2.4-1.7,4.8-3.4,7.1-5.3c0.7-0.6,1.4-1.3,2-2
		c0.9-1.1,1.9-2.1,3-3.1c1-1,2.3-1.7,3.8-2c3.9-0.7,7.5-2.4,11.1-3.8c7-2.8,13.7-6.4,20-10.7c5.8-3.9,11.2-8.4,15.8-13.6
		c2.8-3,5.3-6.4,7.2-10c0.4-0.8,0.7-1.6,0.8-2.4c0.7-5.1,3-9.4,5.9-13.5c2.6-3.6,5.5-6.9,8.7-9.9c2.2-2.1,3.1-5.2,2.3-8.1
		c-0.3-1.6-0.8-3.2-1.5-4.6c-0.4-0.9-0.6-1.8-0.5-2.8c0-1.2,0.4-2.3,1.2-3.1c0.5-0.6,1.1-1.1,1.7-1.6c2.5-1.9,4.5-4.5,5.8-7.3
		c1-2.3,1.6-4.7,1.6-7.2c0-1.9-0.4-3.8-1.1-5.6c-0.4-0.9-0.5-1.9-0.3-2.8c0.1-0.4,0.4-0.7,0.7-0.8c0.4-0.1,0.8,0,1,0.3
		c0.4,0.4,0.7,0.9,1,1.4c2.1,3.6,3.4,7.5,4,11.6c0.7,4.2,1.1,8.5,1.1,12.8c-0.1,1,0.4,1.9,1.1,2.5c5.5,4.5,10,10.1,13.2,16.4
		c1.9,3.6,3.4,7.5,4.3,11.5c0.6,2.3,0.9,4.7,1,7.1c0.1,0.9,0.2,1.7,0.3,2.6c0.1,0.5,0.2,0.9,0.1,1.4c-0.7,2.4-0.2,5-0.8,7.4
		c-0.4,2-0.5,4-0.1,6c0.8,5.7,2.2,11.2,4.1,16.6c2.5,6.9,5.9,13.3,9.2,19.8c0.7,1.3,1.4,2.5,2.1,3.7c0.8,0.3,1,1.1,1.5,1.7
		c2.6,2.6,5,5.5,8,7.7c0.5,0.3,0.9,0.7,1.3,1.1c2.4,2.4,5.1,4.6,7.9,6.5c1.3,0.9,2.6,1.9,3.9,2.8h4.8c-2.8-4.1-5.3-8.3-7.8-12.6
		c-5.2-9-9.7-18.3-14.2-27.5c-2.2-4.5-4.3-9.2-6.3-13.8c-0.5-1.1-1.1-2.2-1.8-3.3c-2.1-3.3-3.4-7.1-3.7-11c-0.1-0.8-0.2-1.5-0.3-2.3
		c-0.2-0.7-0.2-1.3-0.1-2c0.8-3.1,0.4-6.3,0.5-9.4c0-11.4-2.9-22.7-8.6-32.6c-2.7-5-6.3-9.6-10.4-13.6c-2.4-2.2-4.1-5.1-4.8-8.3
		c-0.7-3-1.1-6-1-9.1c0-0.9,0-1.7,0-2.6c0.4-5.2-2.2-9-5.9-12.2c-3.6-2.9-7.8-4.9-12.4-5.6c-2.2-0.4-4.3-0.6-6.5-0.5
		c-1.3,0-1.7-0.4-1.7-1.7c0-0.9,0.2-1.7,0.6-2.5c0.9-2.6,1.7-5.3,2.7-7.9c1.7-5,2.9-10.1,3.6-15.3c0.4-2.1,0.5-4.2,0.5-6.3
		c-0.2-3.7-0.3-7.5-2-10.9c-0.6-1-0.8-2.2-0.6-3.3c0.1-0.9,0.8-1.6,1.8-1.6c1,0,1.9,0.3,2.7,0.9c2,1.4,4.1,2.8,6.1,4.3
		c4.3,3.3,8.6,6.6,12.7,10.2c2.5,2.1,4.8,4.4,7.1,6.6c0.8,0.8,1.7,1.5,2.6,2.3c0.3,0.2,0.6,0.5,0.8,0.8c2.1,2.8,4.8,5,7,7.6
		c3.6,4.1,7,8.3,10.2,12.7c3.8,5.1,7.1,10.6,9.9,16.4c2.2,4.3,4.8,8.5,7.8,12.4c0.9,1.2,1.9,2.4,3,3.5c3.5,3.9,6.3,8.4,9.2,12.8
		c1,1.4,1.8,2.9,2.7,4.4c0.5,0.7,0.4,1.7-0.3,2.3l0,0c0.1,0.9,0.5,1.8,1,2.6c1.3,2.6,2.6,5.1,3.6,7.8c0.8,1.8,1.3,3.6,1.6,5.6
		c0.4,2.6,1.1,5.2,2.2,7.7c1,2.7,2.4,5.2,4.2,7.5c0.5,0.7,1.1,1.3,1.8,1.8c3.2,2.2,6.3,4.6,9.3,7.2c1.9,1.6,3.7,3.3,5.4,5.1
		c4.2,4.6,7.9,9.6,11.1,14.9c3.5,5.9,6.2,12.3,8,19c0.1,0.5,0.3,0.9,0.6,1.3c3,5.3,6.4,10.3,10.2,15.1c3.2,4,6.8,7.8,10.7,11.2
		c0.4,0.3,0.7,0.6,1,1c0.3,0.3,0.3,0.7,0.1,1.1c-0.2,0.3-0.6,0.5-1,0.5c-1.2-0.2-2.4-0.7-3.5-1.3c-9.2-5.4-18.3-11.1-27.1-17.2
		c-4.7-3.3-9.3-6.6-13.9-10c-3.8-2.9-7.5-5.9-11.2-8.9c-2-1.6-3.7-3.6-5.8-5.1c-3.1-2.2-5.5-5.3-8.5-7.6c-2-1.7-3.8-3.5-5.5-5.4
		c-0.4-0.4-0.8-0.7-1.3-1.1c-0.1,0-0.3,0.2-0.5,0.3l0,0c1.5,2.4,3.2,4.7,5.1,6.9c4.3,5.1,9,10,13.9,14.5c3.5,3.2,7.1,6.4,10.8,9.4
		c4,3.2,8,6.5,12.1,9.6c4.8,3.6,9.7,7.2,14.6,10.6c5.9,4.1,11.8,8.1,17.8,12c1.5,0.9,2.9,1.9,4.4,2.8h19.5c-1.2-1.6-2.5-3.1-3.8-4.6
		c-2.9-3.2-5.7-6.4-8.5-9.7c-0.3-0.4-0.6-0.7-0.8-1.2c-2.9-5.3-6.3-10.3-10.1-14.9c-1.5-2-3.1-3.9-4.6-5.8c-2-2.7-3.6-5.7-4.7-8.9
		c-2.5-7.6-6.7-14.4-11.2-20.9c-2.4-3.4-5-6.8-7.6-10c-1.2-1.5-2.3-3-3.6-4.5c-1.9-2.2-3.9-4.2-5.7-6.4c-3.5-4.1-7.4-7.7-11-11.7
		c-1.4-1.6-3-2.9-4.5-4.4c-0.7-0.6-1.4-1.3-1.8-2.2c-0.2-0.5,0-1.1,0.5-1.3c0.1-0.1,0.2-0.1,0.4-0.1c0.8-0.1,1.5,0.2,2.2,0.6
		c2.2,1.3,4.5,2.6,6.6,4c5.4,3.6,10.9,7.1,16.2,10.8c6.6,4.6,13.2,9.1,19.6,13.9c4,2.8,8.6,4.8,13.4,5.6c1.7,0.4,3.4,0.6,5.1,0.5
		c7-0.1,13.1,2.3,18.6,6.4c1.6,1.2,3.1,2.6,4.3,4.1c2,2.2,4.1,4.3,6.4,6.2c3.6,3,7.3,5.8,11.3,8.3c6.1,3.9,12.7,7.1,19.5,9.5
		c6.3,2.2,12.4,5.1,18,8.7c3,1.8,5.6,4,7.9,6.6c1.2,1.3,2.6,2.5,4.1,3.6c1.1,0.8,2.2,1.6,3.2,2.4l3.3-3.2l15.6,4.1l0.1-0.1
		c-7.3-5.4-14.7-10.7-22.3-15.7c-17.9-11.8-36.4-22.7-55.2-33c-7.3-4-14.4-8.4-19.5-15.3c-2.2-3-3.7-6.4-6.4-9.2
		c-5-5-10.8-6.7-17.6-4.7c-2.1,0.7-4.4,0.7-6.4-0.1c-15.8-6.5-30.5-14.8-42.5-27.2c-4.8-4.9-8.3-10.7-12.3-16.2
		c-10.9-14.8-22.2-29.2-34.3-43.1c-7.6-8.9-15.4-17.6-23.9-25.6S563,28.8,553.1,22.3c-1.5-1.1-3.3-2-5.2-2.4c-2.9-0.8-6,0.3-7.9,2.7
		c-6.8,7.8-14.2,14.8-24.1,18.6c-1.4,0.5-2.3,1.8-2.4,3.3c-0.7,3.6-1.7,7.1-2.9,10.5c-1.2,3.4-3,6-6.4,7.7c-3.6,1.7-7,4-10.6,5.8
		c-1.5,0.8-2.9,1.9-4,3.2c-5.4,6-10.7,12.1-16.5,17.5c-10.1,9.4-20,19.3-32.1,26.4c-1.8,1.1-3.7,1.9-5.8,2.6c-2.3,0.8-4.7,0.9-7,0.2
		c-5.5-1.7-11-3.4-16.4-5.4s-10-0.7-14.2,2.6c-16.9,13-34.3,25.1-51.7,37.3c-12.5,8.8-25.2,17.4-38.1,25.8
		c-15.9,10.4-31.8,20.6-48.9,29c-1.5,0.8-2.9,1.9-3.8,3.3c-4.3,6-8.8,11.8-14.9,16.2c-5,3.6-10.5,6.3-15.9,9.2
		c-8.2,4.4-16.5,8.7-24.9,12.9h174.6C378.2,248,382.2,246.9,386.2,245.5z M617.5,91.1c0.2-0.2,0.5-0.1,0.7,0c0.8,0.7,1.5,1.5,2,2.4
		c6.1,9,12.6,17.6,19.6,25.9c6.3,7.7,13.3,14.8,20.9,21.3c4,3.5,8.4,6.5,13,9c0.9,0.5,1.9,1,2.8,1.4c5.8,2.4,11.3,5.6,16.3,9.4
		c0.6,0.5,1.4,0.6,2.1,0.3c1.4-0.6,2.9-1,4.4-1.3c4.6-0.9,9.3,0.2,13,3.1c3.3,2.6,5.9,6,7.6,9.9c0.1,0.2,0.2,0.5,0.2,0.8
		c0,1.2-0.8,1.7-1.6,1.3c-0.3-0.2-0.7-0.4-1-0.6c-3.8-2.3-7.9-3.9-12.2-4.8c-3.5-0.8-7.1-0.7-10.5,0.4c-1.5,0.5-3,0.5-4.5-0.1
		c-2-0.7-3.8-1.7-5.5-3.1c-3.3-2.5-6.2-5.4-8.7-8.7c-2.4-3-5.2-5.7-8.4-7.8c-5.4-3.6-11.3-6.5-17.4-8.6c-1.7-0.6-3.4-1.2-5.2-1.8
		c-1.4-0.5-2.6-1.2-3.6-2.2c-1.1-1-1.7-2.3-1.9-3.8c-0.4-2.9-1.3-5.8-2.6-8.5c-3.7-8.2-8.2-16-13.6-23.3c-1.1-1.5-2.2-2.9-3.3-4.4
		c-1.3-1.8-2.3-3.8-2.9-5.9C617.3,91.5,617.4,91.3,617.5,91.1z M532,174.8c-0.7,1.5-1.5,2.9-2.4,4.2c-2.5,3.8-5.5,7.3-8.9,10.4
		c-3.9,3.5-8.1,6.6-12.5,9.5c-5,3.1-10.3,5.8-15.7,8.2c-2.7,1.2-5.5,2.1-8.2,3.3c-0.5,0.2-1.1,0.4-1.3,0.4c-1.1,0.1-1.5-0.6-1.2-1.3
		c0.5-1.1,1.4-2.1,2.4-2.8c4.7-3.3,9.4-6.5,14.4-9.4c3.6-2,7.2-3.9,10.9-5.7c3.9-2,7.7-4.3,11.2-6.9c3.5-2.3,6.5-5.4,8.7-9
		c0.4-0.7,0.8-1.3,1.3-1.9c0.3-0.4,0.9-0.5,1.3-0.2C532.4,174,532.2,174.4,532,174.8L532,174.8z M435.7,123c0.5-0.4,1.2-0.6,1.9-0.5
		c7.8-2.8,14.5-7.4,20.8-12.5c9.2-7.8,17.7-16.5,25.1-26c1.9-2.4,3.8-4.8,5.6-7.3c3.3-4.8,8.4-8.1,14.1-9.2c3.3-0.7,6.2-2.6,8.2-5.3
		c2.8-3.7,4.8-7.9,5.8-12.4c0.6-2.9,2.7-5.4,5.5-6.5c3.8-1.8,7.4-4,10.8-6.5c2.6-1.9,4.7-4.2,6.5-6.8c0.3-0.5,0.5-1,1.2-1.2
		c1.5-0.4,2.6,0.4,2.4,1.9c-0.1,1.2-0.3,2.5-0.5,3.7c-0.4,2.3-0.1,4.6,0.8,6.7c0.3,0.6,0.5,1.2,0.6,1.9c1.1,8,0.7,16.1-1.1,24
		c-0.9,3.8-2.3,7.6-4.2,11c-0.7,1.2-1.3,2.5-1.7,3.9c-0.8,2.9,0.5,5.2,3.6,5.7c1.2,0.2,2.5,0.3,3.7,0.3c3.5-0.1,7.1,0.4,10.5,1.3
		c2,0.5,3.8,1.3,5.5,2.4c1.4,0.9,2.6,2,3.4,3.4c0.6,1,0.9,2.1,1,3.2c0.4,4.1,1.1,8.2,2.2,12.1c0.6,1.9,1.3,3.8,2.2,5.6
		c0.1,0.3,0,0.6-0.3,0.7c0,0,0,0,0,0c-0.2,0-0.4,0-0.5-0.1c-0.7-0.7-1.3-1.4-1.7-2.3c-1.6-2.7-3.4-5.3-5.4-7.8
		c-0.9-1.1-2-2.1-3.2-2.9c-1.9-1.2-3.5-0.7-4.4,1.4c-0.5,1.2-0.6,2.4-0.5,3.7c0.1,1.1-0.2,2.1-0.6,3.1c-0.4,1-1.6,1.5-2.6,1
		c0,0,0,0,0,0c-0.6-0.2-1.2-0.7-1.8-0.9c-1-0.5-2.2,0-2.7,1c0,0.1-0.1,0.2-0.1,0.3c-0.3,0.8-0.4,1.7-0.5,2.5
		c-0.5,3.9-2.3,7.6-5.2,10.3c-2.3,2.3-5.1,4.1-8.2,5.2c-2.8,1.2-5.8,2-8.8,2.5c-1.4,0.1-2.8,0.5-4.1,1.3c-0.2,0.2-0.4,0.4-0.5,0.7
		c0,0.4,0.3,0.7,0.7,0.7c0.9,0.1,1.7,0.2,2.6,0.2c1.8,0,3.3,1.2,3.8,2.9c0.4,1.2,0.5,2.5,0.2,3.7c-0.5,2.2-1.4,4.4-2.5,6.4
		c-2,3.5-4.4,6.7-7.1,9.7c-5.6,6.3-11.6,12.2-18,17.8c-0.6,0.6-1.3,1.1-2.1,1.4c-0.3,0.1-0.5,0-0.8-0.1c-0.2-0.2-0.3-0.5-0.2-0.8
		c0.3-1.4,0.9-2.7,1.7-3.9c3.2-5.2,5.9-10.7,8.3-16.4c1.9-4.4,3.3-9,4.1-13.7c0.6-2.9,0.4-5.9-0.3-8.8c-0.2-0.6-0.4-1.1-0.7-1.5
		c-0.5-0.7-1.5-0.9-2.2-0.4c-0.2,0.1-0.4,0.3-0.5,0.5c-0.3,0.5-0.4,1.1-0.6,1.6c-2.2,5.4-5.4,10.4-9.4,14.7
		c-3.1,3.3-6.9,5.9-11.2,7.3c-1,0.3-2,0.5-3.1,0.7c-0.5,0-1-0.3-1-0.9c0-0.2,0-0.4,0.1-0.5c0.4-0.9,1.1-1.6,1.9-2.1
		c8-6.2,13.7-14.9,16.1-24.8c0.9-3.6,1.4-7.3,1.4-11.1c0-0.8,0.2-1.9-0.7-2.3s-1.9,0.1-2.6,0.8c-1.3,1.1-2.5,2.3-3.7,3.6
		c-1.7,1.9-3.6,3.7-5.6,5.4c-0.7,0.5-1.4,1.4-2.2,0.9c-1-0.7-0.2-1.8,0.1-2.6c1.1-2.7,2.5-5.4,4.1-7.9c1.4-2.1,2.6-4.3,3.6-6.5
		c0.5-0.9,0.7-2,0.8-3c0-0.6-0.4-1-1-1c0,0-0.1,0-0.1,0c-0.8,0.1-1.5,0.3-2.2,0.8c-2,1.1-4,2.3-5.8,3.8c-2.6,2.1-5.2,4.2-7.8,6.3
		c-2.1,1.7-4.3,3.2-6.8,4.2c-1,0.5-2.1,0.8-3.3,0.9c-1.2,0.2-2.3-0.3-3-1.4c-1-1.9-2.7-2.2-4.6-2.2c-2.2,0.1-4.4,0.7-6.4,1.6
		c-2,0.9-4,1.8-6.1,2.5c-3,1.2-6.3,1.8-9.5,1.7c-0.4,0-0.7,0-1.1,0c-0.1,0-0.2-0.2-0.3-0.3S435.7,123,435.7,123z M266.4,206
		c15.4-6.7,29.8-15.2,44-24.1c22.3-14,43.8-29.1,65-44.8c6.6-4.9,13.1-9.9,19.7-14.9c1-0.6,1.8-1.5,2.3-2.5c0.6-1.1,1.6-1.9,2.8-2.4
		c2-1,4.1-1.7,6.3-2c0.5-0.2,1,0,1.2,0.5c0.2,0.4,0.2,1-0.1,1.3c-0.6,0.8-1.5,1.5-2.4,2c-0.9,0.5-1.6,1.4-1.8,2.5
		c-0.2,0.7-0.2,1.4,0,2c1.1,4,0,7.3-2.6,10.4c-1.2,1.4-2.5,2.6-4,3.7c-4.1,2.9-7.6,6.6-10.1,10.9c-2,3.4-4.6,6.4-7.5,9
		c-2.2,1.9-4.8,3.5-7.5,4.7c-0.2,0.1-0.3,0.2-0.5,0.2c-0.9,0.3-1.9,0.8-2.7,0c-0.8-0.8-0.1-1.8,0.3-2.6c0.6-1.2,1.4-2.3,2.1-3.4
		c0.5-0.9,0.8-1.9,0.8-3c0.1-0.9-0.6-1.8-1.5-1.9c-0.4,0-0.7,0-1,0.2c-4.9,2.8-9.7,5.8-13.5,10.1c-1.1,1.2-2,2.6-2.6,4.1
		c-0.5,1.2-0.5,2.5,0.2,3.6c0.2,0.2,0.3,0.5,0.5,0.7c1.1,1.7,0.5,3.3-1.3,4.3c-0.6,0.3-1.2,0.6-1.9,0.8c-17.1,5.8-32.8,15.1-46,27.4
		c-1,0.9-2.1,1.7-3.3,2.2c-2.6,1.3-5.3,2.2-8.1,2.8c-1.9,0.4-3.8,0.4-5.7-0.2c-1.1-0.2-2.1-1-2.6-2c-0.4-0.9-1-1.1-1.8-1.1
		c-2.5,0-5,0.3-7.4,0.9c-1.9,0.4-3.7,0.9-5.6,1.3c-1.4,0.4-2.9,0.5-4.4,0.1C265.7,206.1,266.1,206.1,266.4,206z M332,224.7
		c-0.8,0.8-2,0.8-2.9,0.2c-0.7-0.2-1-0.9-0.9-1.6c0.1-0.4,0.1-0.8,0-1.1c-0.2-0.9-0.9-1.5-1.8-1.5c-2.2-0.2-4.4,0.1-6.5,0.8
		c-2.8,0.9-5.6,2-8.3,3.2c-5.6,2.8-11.3,5.2-17,7.6c-3.9,1.7-7.7,3.3-11.6,4.9c-2.7,1.1-5.6,2-8.4,2.7c-0.4,0.1-0.8,0.1-1.1,0.1
		c-0.5,0-0.8-0.4-0.8-0.9c0-0.1,0.1-0.3,0.1-0.4c0.3-0.5,0.7-0.9,1.1-1.3c1.1-0.7,2.3-1.4,3.5-2c5.2-2.7,10.2-5.6,15-8.9
		c1.1-0.8,2.2-1.5,3.2-2.4c0.4-0.4,0.8-0.8,1.1-1.3c0.4-0.4,0.3-1.1-0.1-1.4c-0.2-0.2-0.4-0.2-0.7-0.2c-1.1-0.1-2.3-0.1-3.4,0.1
		c-5.3,1.3-10.5,3-15.4,5.3c-4.5,2-9,4.2-13.4,6.5c-4.8,2.5-9.6,5.1-14.3,7.9c-3.3,2-6.6,3.9-9.9,5.8c-1.2,0.8-2.8,1-4.2,0.4
		c1.2-1,2-1.7,3-2.4c8.1-5.5,16.2-11.1,24.5-16.5c5.9-3.8,11.8-7.4,18-10.7c4.3-2.4,8.9-4.5,13.5-6.1c1.3-0.4,2.6-0.6,3.9-1.1
		c1.4-0.6,3-0.3,4,0.8c1.2,1.3,2.5,1.2,3.9,0.6c0.9-0.3,1.7-0.8,2.6-1.3c6.7-4.3,13.7-8.1,20.9-11.4c8.9-4.1,18.3-7.3,27.9-9.6
		c2.8-0.6,5.6-1,8.4-1.5c8-1.5,16-0.9,24-1c3.1,0.6,6.2,0.7,9.3,1.4c2.8,0.5,5.5,1.3,8.1,2.3c-0.4,0.4-1,0.5-1.5,0.3
		c-2.1-0.4-4.1-0.8-6.2-1.2c-3-0.7-6-1-9.1-1c-2.2,0-4.4,0-6.6,0c-2.8,0.1-5.5,0.8-8,2.1c-0.7,0.3-1.3,0.9-1.5,1.6
		c-0.3,1.4-1.5,1.7-2.6,2c-0.7,0.1-1.3,0.1-2,0.1c-2.3,0-4.6,0.1-6.8,0.4c-2,0.4-4.2,0.3-6.2,0.7c-6.6,1-13.1,2.9-19.2,5.5
		c-3.8,1.6-7.4,3.6-10.7,6c-1.6,0.9-3,2.1-4.2,3.4c-0.4,0.4-0.5,1-0.1,1.4c0.2,0.2,0.4,0.3,0.7,0.3c0.4,0.1,0.8,0.1,1.1,0.1
		c1.8,0,3.6,0.2,5.4,0.6c2.1,0.4,3.8,1.9,4.6,3.9c0.2,0.2,0.2,0.5,0.3,0.8C334.6,220.5,333.7,222.9,332,224.7z M340.3,209.2
		c-2.2,0.2-4.3,0.5-6.5,0.9c-0.4,0.1-0.7,0.1-1.1,0c-0.4-0.1-0.7-0.4-0.7-0.8c0-0.3,0.1-0.5,0.3-0.8c0.2-0.2,0.4-0.4,0.7-0.5
		c5.8-3.3,12.2-5.6,18.7-6.9c2.9-0.5,5.8-0.9,8.8-1.3c6.5-0.7,13-0.8,19.5-0.3c6.5,0.3,12.9,1.2,19.2,2.7c1,0.2,2,0.7,2.7,1.5
		c0.2,0.2,0.2,0.6,0,0.8c-0.1,0.1-0.1,0.1-0.2,0.1c-0.7,0.4-1.4,0.5-2.2,0.5c-1.5,0-3.1,0-4.9,0c-2.1,0.1-4.5-0.1-6.8,0.5
		c-3.1,0.8-5.8,2.6-7.8,5.1c-0.5,0.7-0.9,1.5-1.1,2.3c-0.3,0.9-0.6,1.8-1,2.7c-1.1,2.2-2.8,2.9-5.2,2.2c-1.8-0.5-3.5-1.6-4.9-2.9
		c-3.2-3.2-7.2-4.4-11.5-5.3C351,208.7,345.7,209.2,340.3,209.2z M360.3,246c-0.3,0-0.6-0.1-0.6-0.4c0-0.3,0-0.6,0.2-0.8
		c1.1-1,2.3-1.9,3.6-2.8c4.4-2.9,8.8-5.7,13.3-8.5c7.1-4.5,14.3-8.9,21.5-13.2c5.5-3.3,11-6.5,16.6-9.7c4.5-2.5,9.1-4.8,13.7-7.2
		c0.9-0.4,1.8-0.8,2.6-1.1l0,0c0-0.7-0.3-1.3-0.9-1.7c-4.3-4.7-9.5-8.7-15.2-11.5c-5-2.4-10.3-4.1-15.7-5.2
		c-3.8-0.8-7.7-1.2-11.6-1.1c-2,0.1-4,0-6,0c-3.9,0-7.8,0.4-11.6,1.1c-5.6,1-11.2,2.3-16.7,3.9c-6,1.8-12,3.9-17.8,6.4
		c-3.2,1.3-6.2,2.9-9.4,4.3c-0.4,0.2-0.9,0.4-1.3,0.6c-0.5,0.3-1.2,0.2-1.5-0.3c-0.4-0.5-0.4-1.1,0-1.6c1.1-1.4,2.3-2.6,3.7-3.5
		c1.3-0.8,2.6-1.7,3.9-2.4c4.8-2.8,9.7-5.4,14.8-7.6c1.3-0.5,2.6-1.2,3.9-1.9c0.8-0.5,1.7-0.8,2.7-0.8c0.1-0.3,0.3-0.5,0.6-0.6
		l-0.6,0.6l0,0c0.2-0.2,0.4-0.4,0.6-0.6c4.6-2.6,9.2-5.1,13.7-7.8c4.9-2.7,9.6-5.7,14-9c2.2-1.7,4.5-3.3,6-5.7
		c0.4-0.6,0.8-1.3,1.2-2c2.4-5.6,6.5-10.3,11.8-13.2c4.8-2.7,8.1-7.5,8.9-13c0.3-1.5,0.3-3.1-0.2-4.6c-0.3-1-0.4-2.1-0.2-3.1
		c0-0.7,0.5-1.2,1.2-1.2c0.2,0,0.5,0.1,0.6,0.2c2.6,1.3,5.2,2.5,7.7,3.9c5.1,2.9,9.9,6.2,14.4,9.8c4.1,3.2,7.8,6.8,11.1,10.8
		c1.4,1.8,2.9,3.6,4.3,5.4c1.8,2.4,4.4,4,7.4,4.7c0.8,0.2,1.7,0.4,2.5,0.7c3.6,1.2,6.6,3.8,8.2,7.2c2.9,5.9,6.8,11.1,11.6,15.5
		c2.5,2.5,5.6,4.4,8.9,5.5c2.5,0.8,5.2,0.6,7.5-0.6c2.1-1.1,4.3-2.2,6.3-3.5c4.1-2.5,8-5.2,11.7-8.3c1.7-1.4,3.3-2.9,4.9-4.4
		c2.8-2.6,5.3-5.6,7.4-8.7c3.3-4.6,5.5-9.9,6.6-15.5c0.2-0.9,0.2-1.9,0.2-2.9c0-1.3,0.2-2.7,0.7-3.9c0.5-1.9,1.9-3.4,3.7-4.2
		c3.1-1.6,6.1-3.6,8.8-5.9c2.1-1.7,3.8-3.8,4.9-6.3c0.4-1.1,1-2.1,1.7-3c0.4-0.4,0.7-0.9,1.5-0.8c0.3,1.3,0.2,2.6-0.4,3.8
		c-1.8,4.5-4.3,8.7-7.5,12.5c-1.5,1.7-3.3,3.2-5.2,4.4c-1.2,0.6-1.9,2-1.7,3.3c0.1,1,0,1.9,0,2.9c0.1,6.1-1.6,11.9-4.1,17.4
		c-1.5,3.4-3.4,6.6-5.7,9.6c-2.8,3.8-6,7.2-9.6,10.2c-3.4,2.8-7,5.3-10.7,7.6c-2.3,1.4-4.7,2.7-7.2,3.8c-5.2,2.4-10.2,5.3-14.9,8.6
		c-2.2,1.4-4,3.2-5.5,5.3c-1.9,3-4.8,3.9-8.1,4.2c-1.5,0.1-3.1,0-4.6,0c-2.8,0-5.6,0.1-8.3,0c-2.6,0-5.2,0.3-7.7,0.8
		c-12.9,1.9-25.7,5.2-37.9,9.8c-3.6,1.4-7.3,2.8-10.9,4.3c-2.5,1-5,2-7.4,3.2c-6.6,3.1-13.1,6.4-19.4,10c-3.4,2-6.7,4-10.1,6
		C363.6,245.3,362.2,246.2,360.3,246L360.3,246z"/>
	<path class="st1" d="M156.6,243.3c8.7-0.9,17.4-0.7,26.1-1.6c2.2-0.2,4.4-0.1,6.6,0.3c4.2,0.7,8.2,0.2,11.8-2.4
		c2-1.4,4.2-2.5,6.6-4.3c-8.9-0.2-17.2-1.4-25.6-0.3c-4.9,0.6-9.8,0.3-14.6,0.6c-15.3,1-30.5,2.8-45.6,5.5
		c-12.4,2.2-24.8,4.8-37,7.9H120C132,246.5,144.3,244.6,156.6,243.3z"/>
	<path class="st1" d="M68.9,249.1c14.8-5.7,30.1-10.1,45.7-13.3c13.5-2.9,27.2-4.8,40.8-6.6c0.6,0,1.1-0.1,1.7-0.1
		c0.8-0.4,1.6-0.6,2.4-0.9c4.5-1.6,8.9-3.5,13.3-5.3c5.4-2.2,10.5-5.1,15.7-7.6c1.6-0.8,3.1-1.9,4.7-2.8c0.8-0.4,1.4-1.1,1.7-1.9
		c1.4-3.8,4.5-6.1,7.6-8.3c3.3-2.4,6.9-4.5,10.5-6.3c2.9-1.4,5.9-2.7,8.8-4.2c3.1-1.6,5.7-3.9,7.6-6.8c1.3-1.8,2-4,1.9-6.2
		c-0.5-4.4,1.8-7.3,4.9-9.7c2.2-1.5,3.8-3.8,4.5-6.4c0.7-2.9,0.9-5.8-0.7-8.6c-1-2-2.3-3.8-3.8-5.3c-0.6-0.6-1.2-1.2-1.7-1.9
		c-0.4-0.6-0.2-1,0.6-1.4c0.1-0.1,0.2-0.3,0.3-0.5c6.1-1.1,12.4-0.6,18.4,1.2c1.8,0.5,3.2,1.8,4,3.5c2.7,5.9,6.9,10.7,11.8,15
		c0.2,0.2,0.5,0.4,0.8,0.6c2.2-0.5,4.2-1.4,6.1-2.7c2.8-1.8,5-4.2,6.4-7.2c1.5-2.8,2.4-5.8,2.5-9c0.1-1.4,0.1-2.9,0-4.3
		c-0.2-1.2,0.4-2.3,1.4-2.9c0.8-0.4,1.1-1,1.6-1.6c0-0.1,0-0.1,0-0.1c0.4-0.8,1-1.4,1.7-1.9c4.9-3.6,6.4-8.5,5.5-14.4
		c-0.4-1.9-0.6-3.8-0.6-5.7c0.1-2.8,0.8-3.3,3.3-2c5.1,2.8,9.9,6.3,14.1,10.3c6.5,6.1,12.4,12.8,17.7,20c2.1,2.9,2.3,3,5.2,1
		c2-1.3,5.2-2.4,5.3-4.4c0.1-2.1-3.4-2.9-5.2-4.2c-5.3-3.9-10.5-7.9-14.9-13c-4.4-5.3-10-9.6-16.2-12.6c-2.8-1.3-5.5-2.7-8.1-4.4
		c-3.1-2-4.1-1.7-6.7,0.9c-8.4,8.5-16.8,17-25.9,24.8c-6.1,5.2-13.3,6.6-20.8,7c-5.7,0.3-11.5,0.2-17.2-0.1
		c-1.2-0.1-2.5,0.3-3.4,1.1c-22.7,18.4-46.8,34.9-72.2,49.4c-7.4,4.2-19.8,10.4-34.4,17.1l-0.7,0.3l-1.8,0.8
		c-33.9,15.6-78.2,34.3-98.2,41.2L68.9,249.1z M254.9,139.8c0.3-0.2,0.6-0.4,1-0.5c7.5-2.6,13.6-7.3,19.4-12.5
		c5.2-4.7,9.9-10,14-15.6c0.2-0.3,0.4-0.6,0.7-0.9c0.6-0.7,1.1-0.7,1.5,0.1c0.6,1.3,1,2.7,1.2,4.1c0.2,1.5,0.2,3.1,0.4,4.5
		c0,2.2-0.2,4.5-0.8,6.6c-1.1,3.9-3.3,6.9-7.3,8.2c-2.4,0.8-3.4,2.6-3.5,5c0,2.4-0.3,4.8-0.8,7.1c-0.6,2.6-1.7,5.1-3.1,7.4
		c-0.5,0.8-1.1,1.6-1.9,2.1c-0.7,0.6-1.8,0.5-2.4-0.2c-0.1-0.1-0.1-0.1-0.1-0.2c-0.3-0.4-0.5-0.8-0.6-1.3c-0.1-0.3-0.1-0.6-0.1-0.9
		c-0.3-5-3.2-8-7.8-9.6c-2.4-0.8-4.8-1.2-7.3-1.3c-0.8,0.1-1.5-0.1-2.2-0.4c-0.3-0.2-0.6-0.4-0.7-0.9
		C254.4,140.4,254.6,140,254.9,139.8L254.9,139.8z M113.4,212.1c22.2-10.8,42.9-24,63.5-37.3c15.2-9.8,30.2-19.9,44.9-30.4
		c0.9-0.8,2.2-0.9,3.1-0.2c4.9,3.3,8.3,7.6,8.4,13.8c-0.1,3.5-1.2,6.8-3,9.8c-0.3,0.7-1.2,1.1-1.9,0.8c-0.2-0.1-0.4-0.2-0.5-0.3
		c-0.7-0.6-1.2-1.2-1.7-1.9c-0.8-1.2-1.4-2.5-2-3.8c-0.8-1.6-1.6-1.7-2.7-0.3c-0.9,1.1-1.6,2.4-1.8,3.9c-0.7,3.3-1.7,6.5-3,9.6
		c-2.8,6.8-7.1,13-12.4,18.1c-0.8,0.7-1.6,1.4-2.4,2.1c-0.4,0.3-0.8,0.6-1.2,0.7c-0.8,0.2-1.7,0.6-2.5-0.1c-0.7-0.6-0.5-1.6-0.2-2.4
		c0.4-1.2,0.9-2.3,1.3-3.5c0.6-1.5,0.9-3.1,1-4.7c0-2.1-1-2.9-3.1-2.5c-1.1,0.3-2.2,0.7-3.1,1.4c-1.7,1.1-3.4,2.1-5.2,3.1
		c-0.6,0.5-1.4,0.7-2.1,0.7c-0.3,0-0.6-0.2-0.5-0.6c0-0.4,0.2-0.7,0.3-1.1c0.5-0.8,1.1-1.5,1.7-2.3c1.9-2.6,3.9-5.2,5.8-7.9
		c0.7-1,1.3-2.1,1.9-3.2c0.2-0.4,0.5-0.9,0.2-1.3c-0.5-0.6-1,0-1.5,0.3c-0.5,0.3-1,0.6-1.4,0.9c-8.4,6.2-17.3,11.6-26.6,16.4
		c-16.1,8.6-32.7,16.3-49.5,23.5c-0.8,0.4-1.8,0.7-2.7,0.9c-0.7,0.1-1.3,0-1.9-0.3c-0.4-0.2-0.5-1-0.2-1.2
		C112.8,212.5,113.1,212.3,113.4,212.1z"/>
	<path class="st2" d="M758.7,180.1c0.8-2,1.2-4.2,1.3-6.4c0-1.8,0-3.6,0-5.4l0,0c0-1.9-0.3-3.8-0.9-5.6c-1.1-4-2.5-7.8-4.2-11.5
		c-0.8-1.6-1.2-3.4-1.2-5.3c0-2.4-0.4-4.7-1.1-7c-1.8-6.4-4.9-12.2-8.2-18c-2.9-5.2-6.2-10.1-9.8-14.8c-0.4-0.6-1.3-1.1-0.8-2
		c0.7-1,1.6-0.4,2.3-0.1c3.7,1.4,7.1,3.3,10.2,5.7c2.3,1.7,4.4,3.6,6.4,5.7c2.6,2.7,4.9,5.7,6.9,8.8c1,1.6,1.8,3.3,2.6,5.1
		c1.7,3.2,3.7,6.2,6,9.1c3.3,4.4,6.9,8.4,10.5,12.5c4.4,5,9.2,9.5,13.8,14.2c1.4,1.5,3.1,2.9,4.9,3.9c2.6,1.5,4.5,3.9,5.3,6.8
		c1.9,5.5,4.5,10.8,7.6,15.7c3.3,5.3,6.9,10.3,10.9,15.1c4.6,5.5,9.5,10.7,14.7,15.7c0.5,0.5,1.1,1,1.6,1.4l9.8-1.7
		c-0.6-0.8-1.1-1.7-1.5-2.7c-1.8-4-4.5-7.5-8-10.3c-2.4-1.9-4.9-3.7-7.5-5.2c-0.6-0.4-1.2-0.9-1.7-1.5c-1.6-1.5-1.7-4.1-0.1-5.7
		c0,0,0.1-0.1,0.1-0.1c0.3-0.3,0.7-0.7,1-1c1.2-1.1,2.2-2.4,2.9-3.9c0.2-0.6,0.5-1.1,1-1.4l0,0c-0.2-1.2,0.1-2.5,0.6-3.6
		c0.4-0.9,0.6-1.8,0.4-2.8c-0.5-4.1-1.4-8.1-4.6-11.2c-0.3-0.3-0.5-0.6-0.7-0.9c-0.4-0.4-0.5-1.1-0.2-1.6c0.4-0.7,1-0.3,1.5-0.2
		c2.1,0.7,4.1,1.6,5.9,2.8c3.3,2,6.3,4.4,9,7.1c2.1,2.1,4.2,4.2,6.3,6.3s3.9,4.2,5.7,6.4c1.3,1.7,2.9,3.3,4.7,4.6
		c0.2,0.1,0.3,0.2,0.4,0.4c3.4,3.3,7,6.3,10.9,9l18,5.1l11-2.6c-23.5-12.2-45.8-26.5-66.6-42.9c-2.8-2.3-5.4-3.2-8.9-2.4
		c-3.8,0.8-7.8,0.9-11.7,1.6c-2.3,0.5-4.7-0.2-6.4-1.8c-12.8-10.9-25-22.6-36.4-35c-4.7-5-9-10.4-12.9-16.1
		c-0.9-1.2-2.1-2.2-3.5-2.9c-6.4-3.7-13-7.1-18.6-11.9c-1.1-0.9-2.6-1.2-4-0.8c-10.1,1.9-19.6,6.4-27.4,13.1
		c-9.3,8-20.4,13.4-32.4,15.9c-0.9,0.1-1.7,0.3-2.5,0.6c-0.2,0.1-0.3,0.2-0.5,0.4c0,0.9,0.8,1.2,1.3,1.8l0.2,0.2
		c1-0.4,2.1-0.6,3.2-0.6c6.1-0.9,12.2-2.5,18-4.7c1.6-0.6,3.1-1.4,4.7-2.2c2.6-1.3,4.9-3.1,6.7-5.3c3.4-3.8,7.3-7,11.8-9.5
		c2.7-1.5,5.6-2.5,8.7-2.8c1-0.1,1.9,0,2.8,0.2c0.8,0.2,1.2,0.9,1,1.7c0,0,0,0.1,0,0.1c-0.1,0.3-0.2,0.5-0.3,0.8
		c-1.2,2.1-0.6,4.1,0.4,6c0.8,1.5,2,2.8,3.4,3.9c1.1,0.8,1.9,1.9,2.3,3.2c1.5,3.7,2.1,7.8,1.7,11.8c-0.3,2.9-1.4,5.6-3.3,7.8
		c-1.9,2.2-4.2,4-6.8,5.2c-1.7,0.9-3.7,0.5-4.9-1c-0.5-0.5-0.7-1.1-0.7-1.8c0.1-0.9,0.1-1.7,0.1-2.6c-0.2-3.3-1.9-4.9-5.2-4.7
		c-0.9,0.1-1.7,0.2-2.5,0.4c-1.3,0.3-2.7,0.2-4-0.1c-1-0.2-1.9-1-2.2-2c-0.1-0.8-0.5-1.5-1.2-1.8c-0.7-0.3-1.5-0.3-2.2-0.1
		c-2.2,0.5-4.4,1.3-6.5,2.3c-3,1.4-5.9,3.1-8.8,4.9c-0.5,0.3-1.1,0.7-1.6,1c6.2,3.4,12.8,5.3,20,4.6c8.2-0.8,14.8,2.6,20.7,8
		c0.3,0.3,0.6,0.5,0.9,0.8c3.5-0.1,6.8-1.1,9.8-2.9c3.3-1.7,5.3-5.2,5.1-8.9c0-1.8,0.2-3.6,0.7-5.4c0.1-0.5,0.4-0.9,0.9-1
		c0.5-0.1,0.7,0.3,0.9,0.6c1.7,3,3,6.2,3.8,9.6c0.3,1.4,0.3,2.8,0.1,4.3c-0.1,1.6,0.5,3.2,1.5,4.5c1.9,2.3,2.6,5.1,3.5,7.8
		c0.6,2.1,1,4.2,1.2,6.4c0.3,2.6,0,5.2-0.8,7.6c-0.4,0.8-0.6,1.7-0.8,2.6l0.2,0.2c1.2,0.9,2.4,1.9,3.6,3l0.2,0.1
		C758.6,180.6,758.7,180.3,758.7,180.1z M803,166.7c0.9-0.9,1.8-0.1,2.6,0.4c0.8,0.5,1.5,1.1,2.3,1.7c2.3,1.8,5.3,2,7.8,0.6
		c1.3-0.8,2.7-1.4,4.2-1.9c1.3-0.4,2.7-0.1,3.7,0.8c2.7,2.1,5,4.7,6.8,7.7c1,1.8,1.6,3.8,1.5,5.8c0,2.5-1,4.9-2.6,6.7
		c-0.9,1-1.8,1.9-2.9,2.8c-2.6,2.1-3.5,5.8-2,8.8c0.9,1.8,2.1,3.4,3.7,4.7c0.7,0.6,1.3,1.1,2,1.6c0.7,0.6,1.3,1.4,1.6,2.3
		c0.1,0.3-0.3,0.9-0.6,0.8c-0.6-0.2-1.3-0.4-1.9-0.6c-1.8-0.9-3.4-2.1-4.8-3.6c-3.2-3.1-6-6.5-8.4-10.2c-5.3-8.2-9.7-16.9-13-26.1
		C802.7,168.3,802.2,167.4,803,166.7z"/>
	<polygon class="st3" points="295.6,161.5 295.6,161.5 295.6,161.5 	"/>
	<path class="st3" d="M224.4,236.3c5.4-2.9,10.9-5.6,15.9-9.2c6.1-4.4,10.6-10.2,14.9-16.2c1-1.4,2.3-2.6,3.8-3.3
		c17.1-8.3,33-18.6,48.9-29c12.8-8.4,25.5-16.9,38.1-25.8c17.4-12.2,34.8-24.3,51.7-37.3c4.2-3.2,8.8-4.7,14.2-2.6
		s10.9,3.8,16.4,5.4c2.3,0.7,4.7,0.6,7-0.2c2-0.6,3.9-1.5,5.8-2.6c12.1-7.1,22-16.9,32.1-26.4c5.9-5.5,11.2-11.6,16.5-17.6
		c1.1-1.3,2.5-2.4,4-3.2c3.6-1.8,7-4,10.6-5.8c3.4-1.6,5.2-4.3,6.4-7.7c1.2-3.4,2.2-6.9,2.9-10.5c0.1-1.5,1.1-2.7,2.4-3.3
		c9.8-3.8,17.3-10.8,24.1-18.6c1.8-2.4,4.9-3.4,7.9-2.7c1.9,0.5,3.6,1.3,5.2,2.4c9.9,6.5,18.7,14.3,27.2,22.4s16.3,16.7,23.9,25.5
		c12.1,13.9,23.5,28.3,34.3,43.1c4,5.5,7.6,11.3,12.3,16.2c12.1,12.4,26.7,20.7,42.5,27.2c2.1,0.8,4.3,0.9,6.4,0.1
		c6.8-2,12.6-0.4,17.6,4.7c2.7,2.7,4.2,6.2,6.4,9.2c5,6.9,12.2,11.3,19.5,15.3c18.8,10.3,37.3,21.2,55.2,33c7.6,5,15,10.3,22.3,15.7
		l0.6-0.5l-1.1-0.8c-6.2-4.6-12.6-9-19-13.4c-4.4-2.9-8.8-5.8-13.2-8.6c-5.7-3.6-11.3-7.1-17.1-10.5c-6.3-3.8-12.7-7.4-19.1-11.1
		c-3.7-2.1-7.5-4.1-11.3-6.3c-4.5-2.6-8.8-5.7-12.7-9.3c-1.8-1.6-3.3-3.5-4.5-5.6c-0.9-1.7-1.9-3.3-3-4.9c-1.8-2.5-4-4.6-6.6-6.3
		c-2.5-1.5-5.3-2.3-8.2-2.4c-2.1-0.1-4.2,0.2-6.2,1c-1.9,0.8-4,0.7-5.8-0.2c-3.7-1.6-7.4-3.2-11-4.9c-6.2-3-12.1-6.6-17.7-10.6
		c-3.3-2.3-6.4-4.8-9.4-7.5c-4.6-4.3-8.7-9.2-12.2-14.4c-5-7.1-10.1-14.1-15.6-20.9c-4.1-5.1-8-10.3-12-15.3s-8.5-10.1-12.8-15
		c-3.9-4.5-7.9-8.8-12-13.1c-5.8-6.2-12-12.1-18.3-17.9c-0.1-0.1-0.3-0.3-0.4-0.4c-2.9-2.4-5.8-4.7-8.7-7.1c-3.6-3-7.4-5.7-11.4-8.2
		c-2.1-1.3-4.6-2-7.1-1.9c-2-0.1-4,1-5,2.7c-0.7,1.1-1.5,2-2.4,2.9c-2.8,3-5.8,5.8-9,8.4c-4.1,3.2-8.3,6.2-13.3,7.8
		c-1.1,0.3-2,1.2-2.1,2.4c-0.5,2.1-0.9,4.3-1.5,6.4c-0.7,3-1.8,5.9-3.1,8.6c-0.6,1.2-1.5,2.2-2.7,2.9c-4,2.2-7.8,4.4-11.8,6.4
		c-2.3,1.2-4.3,2.9-5.9,4.9c-0.3,0.4-0.6,0.8-0.9,1.1c-3.5,3.6-7,7.1-10.3,10.8c-3.5,3.9-7.7,7.2-11.4,10.9c-2.8,2.9-5.9,5.4-9,8.1
		c-2.4,2.1-4.9,4-7.4,5.9c-4.1,3.1-8.4,6.1-13.2,7.9c-2.6,1-5.3,1.5-8,0.3c-1.2-0.5-2.6-0.8-3.8-1.2c-4.7-1.6-9.4-3.1-14.2-4.7
		c-1-0.5-2-0.7-3.1-0.6c-3.7,0.6-7.3,1.6-10.2,4.2c-2.1,1.8-4.3,3.5-6.5,5.1c-9.6,7-19.2,13.9-28.8,20.8
		c-9.8,6.9-19.6,13.7-29.5,20.5c-10.2,7-20.4,13.8-30.8,20.5c-7.8,5-15.6,10-23.6,14.6c-6.3,3.7-12.6,7.2-19.2,10.4
		c-1.5,0.7-2.7,1.8-3.6,3.1c-3.1,4.6-6.6,8.9-10.6,12.8c-2.1,2-4.3,3.7-6.8,5.3c-7.6,4.5-15.3,8.6-23.1,12.7
		c-5.4,2.8-10.9,5.6-16.4,8.3h1.6C207.9,245,216.2,240.7,224.4,236.3z"/>
	<path class="st3" d="M269.4,164.7c-4.8-4.3-9.1-9-11.8-15c-0.8-1.7-2.2-2.9-4-3.4c-5.9-1.9-12.2-2.3-18.4-1.2
		c-0.1,0.2-0.2,0.3-0.3,0.5c0.1-0.1,0.2-0.1,0.3-0.1l0,0c2.8,0,5.5,0,8.3-0.1c2.9,0.1,5.9,0.5,8.7,1.2c0.7,0.2,1.4,0.5,2.1,0.9
		c1.4,0.6,2.5,1.8,2.9,3.3c0.3,0.8,0.6,1.6,1.1,2.3c2.9,4.7,6.5,8.9,10.8,12.4c0.3,0,0.7-0.1,1-0.1
		C269.9,165.1,269.7,165,269.4,164.7z"/>
	<path class="st3" d="M155.4,229.2c-13.7,1.8-27.3,3.8-40.8,6.6c-15.6,3.1-30.9,7.6-45.8,13.3h2.4c1.4-0.5,2.9-1.1,4.3-1.6
		c4.7-1.8,9.7-3.1,14.4-4.7c1.6-0.6,3.3-1,5-1.4c6.9-1.8,13.9-3.6,20.9-5c6.6-1.3,13.3-2.6,20-3.6c4.6-0.7,9.2-1.5,13.9-1.9
		c2.1-0.2,4.1-0.6,6.2-1.1c0.4-0.3,0.8-0.5,1.2-0.8C156.6,229.1,156,229.2,155.4,229.2z"/>
	<path class="st3" d="M121.8,241.2c15.1-2.6,30.3-4.5,45.6-5.5c4.9-0.3,9.8,0,14.6-0.6c8.4-1,16.7,0.1,25.6,0.3
		c-2.4,1.7-4.6,2.9-6.6,4.3c-3.6,2.6-7.6,3-11.8,2.4c-2.2-0.4-4.4-0.5-6.6-0.3c-8.7,0.9-17.4,0.7-26.1,1.6
		c-12.3,1.3-24.5,3.2-36.6,5.8h4c4.3-0.9,8.6-1.7,12.9-2.5c2.9-0.5,5.8-1,8.8-1.2c2.4-0.2,4.7-0.6,7.1-0.8c3.8-0.4,7.6-1,11.4-1
		c0.5,0,1,0,1.4-0.1c1.6-0.4,3.2-0.5,4.9-0.4c2.3,0,4.6,0,6.9-0.1c0.9,0,1.7-0.1,2.6-0.2c2.6-0.5,5.3-0.5,8-0.1
		c2.5,0.3,5,0.2,7.4,0.4c0.8,0.1,1.5-0.1,2.2-0.5c2.1-1.3,4.3-2.5,6.4-3.8c1.6-1,3.2-2,4.9-3c0.3-0.2,0.7-0.5,0.6-0.9
		c0-0.4-0.6-0.4-0.9-0.4c-2.1,0-4.2,0-6.3-0.1c-0.9,0.1-1.7,0-2.6-0.1c-1.5-0.3-3-0.4-4.6-0.4c-3.3,0-6.5,0-9.8,0
		c-0.6-0.1-1.1-0.1-1.7,0c-3.5,0.8-7.1,0.3-10.6,0.5c-1.1,0-2.3,0-3.4,0.2c-1.2,0.3-2.5,0.4-3.7,0.4c-3.5-0.1-7,0.8-10.6,0.7
		c-0.3,0-0.6,0.1-0.8,0.1c-2.6,0.3-5.1,0.6-7.7,0.9c-2.3,0.2-4.6,0.4-6.8,0.7c-3.3,0.5-6.6,1-9.9,1.5c-4,0.6-8.1,1.1-12.1,1.9
		c-7.6,1.6-15.3,3-23,4.8c-4.4,1-8.8,2.2-13.2,3.4h3C97,245.9,109.3,243.3,121.8,241.2z"/>
	<path class="st3" d="M222.2,140.2c0.9-0.8,2.2-1.2,3.4-1.1c5.7,0.3,11.5,0.3,17.2,0.1c7.5-0.4,14.7-1.8,20.8-7
		c9.1-7.8,17.5-16.3,25.9-24.8c2.5-2.6,3.6-2.9,6.7-0.9c2.6,1.7,5.3,3.1,8.1,4.4c6.3,2.9,11.8,7.2,16.2,12.6
		c4.3,5.1,9.5,9.1,14.9,13c1.9,1.4,5.4,2.1,5.2,4.2c-0.1,1.9-3.4,3-5.3,4.4c-2.9,2-3.1,2-5.2-1c-5.3-7.2-11.2-13.9-17.7-20
		c-4.2-4.1-8.9-7.5-14.1-10.3c-2.5-1.3-3.2-0.9-3.3,2c0,1.9,0.2,3.8,0.6,5.7c0.9,5.9-0.6,10.8-5.5,14.4c-0.8,0.4-1.4,1.1-1.7,1.9
		c0,0,0,0.1,0,0.1c0.1-0.1,0.3-0.3,0.4-0.4l0,0c1.6-0.7,3-1.7,4.2-3c2.7-3,3.7-6.8,3.8-10.8c0-0.2,0-0.4-0.1-0.6
		c-0.3-1.6-0.7-3.2-0.9-4.8c-0.1-1.3-0.2-2.7-0.1-4c0-0.7,0.5-0.9,1.2-0.5c5.5,2.9,10.5,6.6,15,10.9c3.5,3.3,6.8,6.7,9.9,10.3
		c2.4,2.9,4.8,5.7,7,8.7c0.9,1.2,1.9,2.4,2.9,3.6c0.3,0.4,0.9,0.5,1.3,0.2c0,0,0,0,0,0l9.5-6.6c-0.2-0.7-0.7-1.3-1.4-1.6
		c-2.5-1.4-4.9-3-7.3-4.7c-2.2-1.5-4.2-3.3-6.3-5c-1.8-1.4-3.5-3-5-4.7c-1.9-2.3-3.9-4.5-6.1-6.5c-3.2-3-6.8-5.6-10.8-7.5
		c-3.3-1.4-6.5-3.2-9.5-5.3c-0.7-0.5-1.5-0.8-2.3-1c-1.5-0.5-3.1,0-4,1.3c-0.7,0.8-1.4,1.6-2.1,2.4c-4,4-7.9,8-12,12
		c-2.9,2.9-6,5.7-9,8.4c-2,1.8-4.1,3.4-6.2,5.1c-1.9,1.5-4.1,2.6-6.4,3.1c-4.5,1.2-9.2,1.8-13.9,1.9c-4.1-0.1-8.2,0-12.4-0.1
		c-0.8,0.1-1.5,0-2.3-0.1c-1.2-0.4-2.5-0.1-3.4,0.9c-3.3,2.7-6.6,5.5-10,8.1c-9.2,7-18.5,13.8-28.2,20.2
		c-7.6,5.1-15.3,10.1-23.2,14.8c-4.9,2.9-9.8,5.9-14.9,8.6c-5.4,2.9-10.7,6-16.1,8.8c-4.7,2.4-9.4,4.8-14.2,7
		c14.6-6.8,27-12.9,34.4-17.1C175.4,175.1,199.5,158.6,222.2,140.2z"/>
	<path class="st3" d="M113.1,207.9c-5.2,2.4-10.5,4.8-15.8,7c-8.8,3.7-17.8,7-26.8,10.1c-4.9,1.7-9.8,3.1-14.8,4.5
		c-2.9,0.9-5.9,1.8-9,1.4c-0.7-0.5-1.7-0.6-2.5-0.2c-3.6,1.2-12.2,5.8-15.6,7.1c-9.1,3.6-16.5,7.6-24.3,11.2h10.6
		C34.9,242.2,79.2,223.5,113.1,207.9z"/>
	<path class="st3" d="M727.4,151.4c-5.8-5.4-12.5-8.8-20.7-8c-7.2,0.7-13.7-1.2-20-4.6c-0.3,0.1-0.6,0.3-0.9,0.3l0,0
		c3.8,2.4,8.1,4,12.5,4.8c2.2,0.5,4.5,0.6,6.8,0.4c3.1-0.5,6.3-0.4,9.4,0.4c2.3,0.7,4.5,1.6,6.6,2.8c2.2,1.4,4.3,2.9,6.2,4.7
		c0.4,0,0.7,0,1.1,0C728,152,727.7,151.7,727.4,151.4z"/>
	<path class="st3" d="M671.9,128.6c-0.4-0.6-1.3-0.9-1.3-1.8c0.1-0.2,0.3-0.3,0.5-0.4c0.8-0.2,1.7-0.4,2.5-0.6
		c12-2.5,23.1-7.9,32.4-15.9c7.8-6.7,17.3-11.2,27.4-13.1c1.4-0.4,2.9-0.1,4,0.8c5.6,4.9,12.2,8.2,18.6,11.9
		c1.4,0.7,2.6,1.7,3.5,2.9c3.9,5.7,8.2,11.1,12.9,16.1c11.4,12.4,23.5,24.1,36.4,35c1.7,1.6,4.1,2.2,6.4,1.8
		c3.9-0.7,7.8-0.8,11.7-1.6c3.5-0.8,6,0.1,8.9,2.4c20.8,16.4,43.1,30.7,66.6,42.9l0.6-0.1l0.4-0.2l-0.6-0.3
		c-6-3.2-11.9-6.5-17.8-9.8c-5.5-3.1-10.9-6.4-16.2-9.8c-8-5.2-16.1-10.6-23.8-16.4c-3.6-2.7-7.1-5.4-10.6-8.3
		c-1.3-1.3-3.2-1.7-5-1.3c-1.9,0.4-3.7,0.7-5.6,0.9c-2.9,0.3-5.9,0.6-8.8,1.1c-1.9,0.4-3.9-0.1-5.3-1.4c-0.1-0.1-0.3-0.2-0.4-0.4
		c-4.1-3.9-8.6-7.3-12.6-11.3c-0.4-0.4-0.9-0.7-1.3-1.1c-7.4-6.7-14.3-13.8-21.2-21.1c-1.4-1.5-2.9-3-4.2-4.7c-3.4-4.2-7-8.3-9.9-13
		c-0.6-1-1.5-1.8-2.5-2.3c-3.9-2.2-7.8-4.4-11.7-6.7c-2.8-1.5-5.3-3.4-7.6-5.6c-1-1.2-2.6-1.6-4.2-1.2c-3.1,0.7-6.1,1.5-9.1,2.4
		c-6.2,2.1-12,5.2-17.1,9.2c-2.5,1.9-4.7,4.1-7.4,5.9c-5.4,3.7-11.2,6.7-17.3,8.9c-4.3,1.5-8.8,2.7-13.3,3.4c-0.4,0.1-0.8,0-0.9,0.6
		s0.3,0.7,0.5,0.9c0.7,0.6,1.4,1.2,2.1,1.9c0.2-0.1,0.4-0.3,0.6-0.4L671.9,128.6z"/>
	<path class="st3" d="M758.2,180.7l-0.2-0.1c-1.1-1.1-2.3-2.1-3.6-3l-0.2-0.2c0,0.2,0,0.5,0,0.7l0,0l3.5,2.9l0,0
		C757.9,180.9,758,180.8,758.2,180.7z"/>
	<path class="st4" d="M240,152.8c3.4,5.6,2,12.8-3.1,16.7c-3.2,2.5-4.9,5.4-5,9.8c-0.1,6.5-4.8,10.1-9.8,13.1c-3.9,2.3-8.1,3.8-12,6
		c-3.5,2-6.8,4.2-10,6.7c-1.4,0.9-2.5,2.1-3.2,3.6c-1.3,3.4-4.1,5.2-7.1,6.8c-9.3,5-18.9,9.3-28.8,13c-0.5,0.2-1,0.3-1.6,0.5
		c12.4-0.8,24.6-2.3,36.3-7.3c6.5-2.6,12.7-6.2,18.2-10.6c2.3-1.7,4.2-3.9,5.6-6.4c1.1-2.2,3-3.8,5.3-4.7
		c10.2-3.9,15.1-12.2,17.9-22c0.3-1.5,0.8-3,1.3-4.4c0.4-0.8,0.9-1.6,1.9-1.5s1.5,0.8,1.8,1.6c1,2.4,0.9,4.9,0.9,7.4
		c0.1,2.5-0.3,4.8-0.3,7.2c-0.1,1.9-1,3.6-2.5,4.7c-6.2,5.8-8.7,13.4-10.9,21.3c2.3-2.2,4.1-4.7,5.5-7.5c0.8-1.8,2.3-3.3,4.1-4.2
		c5.3-2.6,10.1-5.5,10-12.4c0-1.4,0.8-2.7,1.3-4.1c2-5.1,1.1-9.6-2.8-13.4c-2.6-2.3-3.7-5.8-3-9.1c1-5.2-1.3-8.9-5.3-11.8
		c-2.4-1.6-5-2.8-7.8-3.5c-0.3-0.1-0.8-0.2-1.2-0.4C237.6,149.2,239,150.9,240,152.8z"/>
	<path class="st5" d="M234.8,146.8c-0.1-0.4,0-0.8,0.1-1.1C234.4,146.1,234.5,146.5,234.8,146.8z"/>
	<path class="st5" d="M160.9,228.5c9.9-3.7,19.5-8,28.8-13c3-1.6,5.8-3.4,7.1-6.8c0.7-1.5,1.9-2.7,3.2-3.6c3.2-2.5,6.5-4.7,10-6.7
		c3.9-2.2,8.2-3.7,12-6c5.1-3,9.8-6.6,9.8-13.1c0-4.3,1.8-7.2,5-9.8c5.2-3.9,6.6-11.2,3.2-16.7c-1-1.9-2.4-3.7-4.1-5.1
		c-0.5-0.1-0.9-0.4-1.1-0.9c-0.3-0.3-0.4-0.6,0.1-1.1c0-0.1,0-0.1,0.1-0.1c-0.8,0.4-1,0.8-0.6,1.4c0.5,0.7,1.1,1.3,1.7,1.9
		c1.6,1.6,2.9,3.3,3.8,5.3c1.5,2.8,1.4,5.7,0.7,8.6c-0.7,2.6-2.3,4.9-4.5,6.4c-3.1,2.4-5.5,5.3-4.9,9.7c0.1,2.2-0.5,4.4-1.9,6.2
		c-1.9,2.9-4.6,5.2-7.6,6.8c-2.8,1.6-5.9,2.8-8.8,4.2c-3.7,1.8-7.2,3.9-10.5,6.3c-3.1,2.3-6.2,4.5-7.6,8.3c-0.3,0.8-0.9,1.5-1.7,1.9
		c-1.6,0.9-3,2-4.7,2.8c-5.2,2.6-10.3,5.4-15.7,7.6c-4.4,1.8-8.8,3.7-13.3,5.3c-0.8,0.3-1.6,0.5-2.4,0.9l2.1-0.1
		C159.8,228.9,160.3,228.7,160.9,228.5z"/>
	<path class="st5" d="M234.8,146.8c0.3,0.3,0.6,0.5,0.9,0.7l0.2,0.2c0.4,0.1,0.8,0.2,1.2,0.4c2.8,0.7,5.4,1.9,7.8,3.5
		c4,2.9,6.3,6.6,5.3,11.8c-0.7,3.4,0.4,6.8,3,9.1c3.9,3.8,4.8,8.3,2.8,13.4c-0.5,1.3-1.4,2.7-1.3,4.1c0.1,7-4.7,9.9-10,12.5
		c-1.8,0.9-3.3,2.4-4.1,4.2c-1.4,2.8-3.3,5.4-5.5,7.5c2.2-7.9,4.7-15.5,10.9-21.3c1.4-1.2,2.3-2.9,2.5-4.7c0-2.4,0.4-4.8,0.3-7.2
		s0-5-0.9-7.4c-0.3-0.8-0.8-1.6-1.8-1.6s-1.5,0.7-1.9,1.5c-0.6,1.4-1,2.9-1.3,4.4c-2.9,9.9-7.8,18.1-17.9,22
		c-2.3,0.9-4.2,2.5-5.3,4.7c-1.4,2.5-3.3,4.7-5.6,6.4c-5.6,4.4-11.7,8-18.3,10.6c-11.6,5-23.9,6.5-36.3,7.3
		c-1.1,0.3-2.3,0.5-3.4,0.9c2,0,4,0.2,6-0.5c0.5-0.1,0.9-0.1,1.4-0.1c3,0.3,5.9-0.4,8.8-0.7c4.4-0.5,8.7-1.3,12.9-2.5
		c4.3-1.1,8.6-2.6,12.7-4.4c6.1-2.8,12-6,17.1-10.3c1.8-1.5,3.7-3,4.7-5.3c1.2-2.6,3.4-4.7,6.1-5.6c4-1.5,7.5-4,10.2-7.2
		c3.6-4.5,6.2-9.7,7.5-15.3c0.3-1.1,0.6-2.2,0.9-3.3c0.3-0.9,0.3-2.1,1.6-2c1,0.1,1.1,1.2,1.3,2c1,3.5,0.6,7,0.4,10.5
		c0,0.8-0.4,1.6,0,2.5c0.2,0.6,0.1,1.2-0.2,1.6c-0.6,1.5-1.6,2.9-2.9,3.9c-2.2,2.1-4.1,4.6-5.4,7.3c-2.4,4.8-4.3,9.8-5.6,15
		c-0.1,0.2,0.1,0.5,0.2,1c1.4-1.1,2.6-2.4,3.7-3.8c1.7-2.1,3.2-4.5,4.4-7c0.3-0.8,0.9-1.5,1.7-1.8c1.6-0.8,3.2-1.8,4.7-2.7
		s3.2-2,4.9-3c0.6-0.3,1-0.9,1-1.6c0.2-3.6,1-7.2,2.5-10.5c0.7-1.8,1-3.7,1-5.6c0-3.5-1.6-6.2-4-8.6c-1.9-1.8-3.2-3.8-3-6.5
		c0-1.1,0.1-2.1,0.4-3.1c0.3-0.8,0.3-1.7,0.1-2.6c-0.4-2.7-1.7-5.1-3.7-7c-2.6-2.5-5.7-4.2-9.2-5c-1-0.3-2-0.7-2.9-1.1
		c-0.6-0.3-0.4-0.8-0.2-1.2c-0.1,0.1-0.3,0.2-0.4,0.3C234.7,146,234.6,146.4,234.8,146.8z"/>
	<path class="st5" d="M157.2,229.1c-0.4,0.2-0.9,0.5-1.2,0.8c1.1-0.4,2.2-0.6,3.4-0.9L157.2,229.1z"/>
	<path class="st5" d="M235,145.5c0,0-0.1,0.1-0.1,0.1c0.1-0.1,0.2-0.2,0.4-0.3l0,0C235.2,145.4,235.1,145.5,235,145.5z"/>
	<path class="st5" d="M235.9,147.7l-0.2-0.2c-0.3-0.2-0.6-0.4-0.9-0.7C234.9,147.2,235.4,147.6,235.9,147.7z"/>
	<path class="st6" d="M690.7,135.7c3.9-2.2,7.8-4.5,12.2-5.6c2.1-0.5,3.8-0.1,4.9,1.9c1.1,2,2.8,2.4,4.9,2.1
		c1.2-0.3,2.5-0.4,3.7-0.4c2.5,0,4.6,1.7,5.1,4.2c0.1,0.8,0.2,1.7,0.2,2.6c0.3,3.1,1.9,4.2,4.7,3c4.9-2.2,8.4-5.9,9.2-11.3
		c0.9-6.2,0.1-12.2-5.1-16.8c-2.5-2.2-3.7-5-2.7-8.5c0.6-2.2-1-2.4-2.5-2.2c-3.6,0.4-7.1,1.7-10.1,3.8c-3.7,2.5-7.2,5.4-10.2,8.7
		c-3,3.5-7,5.6-11.3,7.2c-6.7,2.6-13.8,4.3-21,4.9c4.3,3.6,8.9,6.8,13.8,9.5C687.4,137.2,689.1,136.6,690.7,135.7z"/>
	<path class="st6" d="M697.1,133c2-1,4.2-1.8,6.5-2.3c0.7-0.2,1.5-0.2,2.2,0.1c0.7,0.4,1.1,1,1.2,1.8c0.3,1,1.2,1.8,2.2,2
		c1.3,0.3,2.7,0.4,4,0.1c0.8-0.2,1.7-0.3,2.5-0.4c3.2-0.2,5,1.4,5.2,4.7c0,0.9,0,1.7-0.1,2.6c0,0.7,0.2,1.3,0.7,1.8
		c1.2,1.5,3.2,1.9,4.9,1c2.6-1.3,4.9-3,6.8-5.2c1.8-2.2,3-5,3.3-7.8c0.4-4-0.2-8.1-1.7-11.8c-0.4-1.3-1.2-2.4-2.3-3.2
		c-1.4-1-2.6-2.3-3.4-3.9c-1-1.9-1.6-3.9-0.4-6c0.1-0.2,0.3-0.5,0.3-0.8c0.2-0.7-0.2-1.5-0.9-1.8c0,0-0.1,0-0.1,0
		c-0.9-0.2-1.9-0.3-2.8-0.2c-3.1,0.3-6,1.3-8.7,2.8c-4.4,2.5-8.4,5.7-11.8,9.5c-1.9,2.2-4.2,4-6.7,5.3c-1.5,0.8-3.1,1.5-4.7,2.2
		c-5.8,2.2-11.9,3.8-18,4.7c-1.1,0-2.2,0.2-3.2,0.6l0.4,0.3c7.2-0.6,14.3-2.3,21-4.9c4.2-1.6,8.3-3.7,11.3-7.2
		c3-3.3,6.5-6.3,10.2-8.7c3-2.1,6.5-3.4,10.1-3.8c1.5-0.2,3.2,0,2.5,2.2c-1,3.5,0.3,6.3,2.7,8.5c5.2,4.6,5.9,10.6,5.1,16.8
		c-0.7,5.4-4.2,9.1-9.2,11.3c-2.7,1.2-4.4,0.1-4.7-3c0-0.9-0.1-1.7-0.2-2.6c-0.5-2.4-2.6-4.2-5.1-4.2c-1.2,0-2.5,0.1-3.7,0.4
		c-2.1,0.4-3.8-0.1-4.9-2.1c-1.1-2-2.8-2.4-4.9-1.9c-4.4,1.1-8.3,3.4-12.2,5.6c-1.5,0.9-3.2,1.5-4.4,2.9l0.2,0.1l0.3,0.1
		c0.6-0.3,1.1-0.7,1.6-1C691.2,136.1,694.1,134.4,697.1,133z"/>
	<path class="st6" d="M686.3,138.6c-4.9-2.7-9.5-5.9-13.8-9.5l-1,0.1c4.4,3.8,9.2,7.2,14.3,10l0,0C686,139,686.1,138.8,686.3,138.6z
		"/>
	<path class="st6" d="M672.1,128.8c-0.2,0.1-0.4,0.2-0.6,0.4l1-0.1L672.1,128.8z"/>
	<path class="st6" d="M686.3,138.6c-0.2,0.2-0.3,0.4-0.4,0.6c0.3-0.1,0.6-0.2,0.9-0.3l-0.3-0.1L686.3,138.6z"/>
	<path class="st7" d="M786.7,192.3c3.5,1.2,6.8,2.9,9.8,5.3c3.2,2.4,6.3,5,9.1,7.9c0.5,0.5,1.1,1,1.8,1.4c1.3,0.9,2.5,2.1,3.5,3.4
		c1.1,1.4,2.3,2.8,3.6,4c3.1,3.1,6,6.4,8.7,9.8c1.4,1.7,3,3.2,4.8,4.4l1.9-1.7c-0.2-0.2-0.5-0.5-0.7-0.7c-2.6-2.8-5-5.8-7.2-8.9
		c-0.3-0.3-0.3-0.8,0-1.1c0.1-0.1,0.1-0.1,0.2-0.1c-0.3-0.5-0.7-0.9-1.1-1.3c-1.6-1.6-3.2-3.2-4.8-4.8c-2.5-2.6-4.9-5.3-7.1-8.2
		c-3.9-4.8-7.6-9.8-10.9-15c-0.4-0.6-0.8-1.3-1.2-1.9c-1.8-3.3-4.5-5.9-7.9-7.6c-3.7-1.9-7-4.3-9.9-7.2c-1.6-1.6-3.7-2.8-5.1-4.5
		c-2.6-3.2-5.5-6-8.2-9.2c-1.5-1.8-2.7-3.9-4.7-5.3c-0.9,0.3-0.6,1-0.5,1.4c0.7,2.1,0.5,4.4,0.5,6.5c0,2.6,0,5.1,0,7.7l0,0
		c0.6-0.6,0.5-1.4,0.5-2.1c0-1.8,0-3.5,0-6c1.1,2.2,1.9,4.6,2.3,7c0.9,3.5,0.5,7,0.6,10.5c0,2.5-0.4,4.9-1.3,7.3
		c-0.1,0.4-0.3,0.8-0.6,1.2l0,0c4.4,3.6,8.6,7.3,13.1,10.8C778.3,192,783,191.2,786.7,192.3z"/>
	<path class="st8" d="M762.8,184.6L762.8,184.6c-0.1,0.2-0.3,0.3-0.5,0.5c2.6,2.1,5.3,4.2,7.8,6.4c1.8,1.6,3.6,3,5.4,4.5
		c0.1-0.2,0.2-0.4,0.4-0.6C771.4,191.9,767.2,188.2,762.8,184.6z"/>
	<path class="st9" d="M824.9,227c-1.7-1.7-3.3-3.5-4.7-5.4c-3.2-3.9-6.8-7.6-10.3-11.1c-6.1-6.1-12.3-12.3-20.2-16.2
		c-4.6-2.3-9-2.6-13,1.2c-0.1,0.1-0.2,0.1-0.3,0.2c12,9.6,24,19.2,36.4,28.2c3.9,2.8,8,5.2,12.3,7.2l2.3-2
		C826.5,228.4,825.6,227.8,824.9,227z"/>
	<path class="st5" d="M822.7,216.6c1.5,3.6,4.5,6,6.8,9c0.2,0.3,0.5,0.6,0.8,0.8l2.1-1.8l0.3-0.1c-1.6-1-3.2-2.1-4.6-3.3
		C826.2,219.7,824.5,218.2,822.7,216.6z"/>
	<path class="st5" d="M812.7,223.8c-12.4-9-24.4-18.6-36.4-28.2c-0.2,0.1-0.5,0.2-0.8,0.3c1.8,1.5,3.7,3,5.5,4.5
		c2.4,1.9,4.8,3.8,7.2,5.7c3.2,2.5,6.4,5.1,9.6,7.6c4.8,3.7,9.8,7.3,14.7,10.9c3.7,2.7,7.7,5.1,11.9,7l0.7-0.6
		C820.7,229.1,816.6,226.6,812.7,223.8z"/>
	<path class="st5" d="M789.6,194.3c7.9,3.9,14.1,10.1,20.2,16.2c3.6,3.6,7.1,7.2,10.3,11.1c1.4,1.9,3,3.7,4.7,5.4
		c0.8,0.7,1.6,1.4,2.5,2l0.5-0.5c-1.8-1.2-3.4-2.7-4.8-4.4c-2.8-3.4-5.6-6.7-8.7-9.8c-1.3-1.2-2.5-2.6-3.6-4c-1-1.3-2.1-2.5-3.5-3.4
		c-0.6-0.4-1.2-0.9-1.8-1.5c-2.8-2.9-5.8-5.5-9.1-7.9c-2.9-2.3-6.2-4.1-9.8-5.3c-3.6-1.1-8.4-0.4-10.7,3l0.2,0.2l0.1,0.1
		c0.1,0,0.2-0.1,0.3-0.2C780.6,191.7,785,192,789.6,194.3z"/>
	<path class="st5" d="M822.7,216.6c-0.2-0.2-0.4-0.4-0.6-0.6l0,0c-0.4,0.2-0.5,0.7-0.3,1c0,0.1,0.1,0.1,0.1,0.2
		c2.2,3.1,4.6,6.1,7.2,8.9c0.2,0.3,0.5,0.5,0.7,0.7l0.5-0.5c-0.3-0.3-0.5-0.5-0.8-0.8C827.2,222.6,824.2,220.2,822.7,216.6z"/>
	<path class="st5" d="M776.2,195.5l-0.2-0.2c-0.1,0.2-0.3,0.4-0.4,0.6c0.2-0.1,0.5-0.2,0.8-0.3L776.2,195.5z"/>
	<path class="st9" d="M750.8,153.9c-1.3-2-2-4.3-2-6.7c-0.1-4.1-1.5-8-3.8-11.4c-0.8,1.1-1.1,2.5-0.9,3.8c0.1,5.7-2.7,9.5-7.8,11.5
		c-2.4,1-4.8,2.1-7.4,1.7c1.5,1.3,2.8,2.8,4,4.5c5,7.3,12.3,12.2,18.8,17.9c0.7,0.6,1.5,1.3,2.2,1.9c0-0.8,0.1-1.5,0.4-2.2
		C756.5,167.3,754.4,160.4,750.8,153.9z"/>
	<path class="st5" d="M755.9,167.2c-0.2-2.2-0.6-4.3-1.2-6.4c-0.9-2.7-1.6-5.5-3.5-7.8c-1.1-1.2-1.6-2.8-1.5-4.5
		c0.2-1.4,0.1-2.9-0.1-4.3c-0.8-3.3-2.1-6.6-3.8-9.6c-0.2-0.3-0.4-0.7-0.9-0.6c-0.5,0.1-0.8,0.5-0.9,1c-0.4,1.8-0.7,3.6-0.7,5.4
		c0.2,3.7-1.8,7.2-5.1,8.9c-3,1.8-6.4,2.8-9.8,2.9l0.6,0.5c2.6,0.5,5-0.7,7.4-1.7c5.2-2.1,7.9-5.9,7.8-11.5
		c-0.2-1.3,0.2-2.7,0.9-3.8c2.4,3.3,3.7,7.3,3.8,11.4c0,2.4,0.7,4.7,2,6.7c3.6,6.5,5.7,13.4,3.4,20.9c-0.3,0.7-0.4,1.5-0.4,2.2
		l0.4,0.4c0.2-0.9,0.4-1.8,0.8-2.6C756,172.4,756.2,169.8,755.9,167.2z"/>
	<path class="st5" d="M751.6,175.1c-6.5-5.7-13.8-10.6-18.8-17.9c-1.1-1.6-2.5-3.1-4-4.5c-0.6-0.1-1.1-0.3-1.7-0.5
		c2.4,2,4.5,4.3,6.3,6.9c1.7,2.3,3.3,4.7,5.7,6.4c2.1,1.5,3.9,3.3,5.9,5l9.2,7.6c-0.2-0.3-0.4-0.7-0.4-1.1
		C753.1,176.4,752.4,175.8,751.6,175.1z"/>
	<path class="st5" d="M728.3,152.3c-0.4,0-0.7,0-1.1,0c0.5,0.3,1.1,0.4,1.7,0.5L728.3,152.3z"/>
	<path class="st5" d="M754.3,177.4l-0.4-0.4c0,0.4,0.2,0.8,0.4,1.1l0,0C754.2,177.9,754.2,177.7,754.3,177.4z"/>
	<path class="st5" d="M273.3,165.1c-0.8,0.4-1.6,0.7-2.4,0.8c5.1,3.9,10.8,6.8,16.9,8.7c2.2,0.7,3.7-0.3,5.2-1.4l0.5-0.3
		c0.2-1,0.4-2.1,0.5-3.1c0.2-2.7,0.7-5.4,1.6-8c-0.1,0-0.2,0-0.3-0.1c-0.3-0.1-0.5-0.3-0.8-0.5c-1.3-1.2-1.1-2.7-0.7-4.2
		c0.8-2.7,1.1-5.4,1.1-8.2c0.2-3-1.4-5.9-4-7.4c-1.3-0.8-2.7-1.6-2.6-3.4c-2,2.9-2.1,6.3-2.5,9.8
		C284.9,155.6,280.9,161.7,273.3,165.1z"/>
	<path class="st5" d="M273.3,165.1c7.6-3.3,11.6-9.5,12.5-17.4c0.4-3.5,0.4-6.8,2.5-9.8c0-0.1,0-0.1,0-0.2c-0.5,0.5-0.9,1.2-1.6,1.6
		c-1.1,0.5-1.6,1.7-1.4,2.9c0.1,1.4,0.1,2.9,0,4.3c-0.2,3.2-1,6.2-2.5,9c-1.4,2.9-3.7,5.4-6.4,7.2c-1.8,1.3-3.9,2.2-6.1,2.7l0.6,0.5
		C271.6,165.7,272.5,165.5,273.3,165.1z"/>
	<path class="st5" d="M290.9,141.3c2.6,1.5,4.2,4.4,4,7.4c0,2.8-0.4,5.5-1.1,8.2c-0.5,1.5-0.6,3,0.7,4.2c0.2,0.2,0.5,0.3,0.8,0.5
		c0.1,0,0.2,0.1,0.3,0.1l0.1-0.2l0,0c-0.2-0.2-0.4-0.4-0.6-0.6c-1-0.8-1.3-2.2-0.7-3.3c1.1-3.1,1.5-6.5,1.3-9.8
		c0-2.2-0.9-4.3-2.5-5.8c-0.8-0.8-1.8-1.4-2.8-1.9c-1.1-0.5-1.7-1.6-1.6-2.8c-0.1,0.2-0.3,0.4-0.4,0.6
		C288.1,139.7,289.6,140.4,290.9,141.3z"/>
	<path class="st5" d="M293,173.1c-1.6,1.1-3,2.1-5.2,1.4c-6.1-1.9-11.8-4.8-16.9-8.7c-0.6,0-1.1-0.1-1.6-0.4c2.8,2.3,5.8,4.3,9,6
		c3,1.4,6.1,2.7,9.3,3.8c1.6,0.8,3.5,0.5,4.7-0.8c0.4-0.3,0.7-0.6,1.1-0.9c0-0.2,0.1-0.5,0.1-0.8L293,173.1z"/>
	<path class="st5" d="M270.9,165.9l-0.6-0.5c-0.3,0.1-0.7,0.1-1,0.1C269.7,165.8,270.3,165.9,270.9,165.9z"/>
	<path class="st5" d="M288.3,137.7c0,0.1,0,0.1,0,0.2c0.1-0.2,0.3-0.4,0.4-0.6l0,0C288.6,137.4,288.4,137.6,288.3,137.7z"/>
	<path class="st8" d="M316.5,157.8c2.2-1.5,2.2-2-0.1-3.2c-1.5-0.8-3.1-1.5-4.8-2c-6.2-2-10.8,0.1-13.5,6.1
		c-0.5,1.1-0.8,2.4-2.1,2.9c-0.2,0-0.3,0-0.5,0c-0.1,3.7-0.2,7.5-1.8,10.9C301.4,167.8,309,162.9,316.5,157.8z"/>
	<path class="st8" d="M295.6,161.5v0.2c0.2,0,0.3,0,0.5,0c1.3-0.6,1.6-1.8,2.1-2.9c2.6-6,7.2-8.1,13.5-6.1c1.6,0.5,3.2,1.2,4.8,2
		c2.3,1.3,2.3,1.8,0.1,3.2c-7.5,5.1-15,10-22.7,14.8c-0.1,0.3-0.3,0.6-0.5,1c0.9-0.5,1.9-0.9,2.8-1.5c4.6-3,9.2-6,13.8-9.1
		c3-2,6-4,9-6c0.8-0.5,0.8-1,0-1.5c-2.9-2.2-6.3-3.6-9.9-4.2c-3.2-0.7-6.4,0.4-8.6,2.7c-1.4,1.4-2.5,3.1-3.2,5
		C297.1,160.1,296.4,161,295.6,161.5L295.6,161.5z"/>
	<path class="st8" d="M293.5,172.8l0.3-0.2c1.6-3.5,1.7-7.2,1.8-10.9h-0.1c-0.9,2.6-1.4,5.3-1.6,8
		C293.9,170.7,293.6,171.8,293.5,172.8z"/>
	<polygon class="st8" points="295.6,161.5 295.6,161.5 295.6,161.5 	"/>
	<path class="st8" d="M295.6,161.5l-0.1,0.2h0.1V161.5z"/>
	<path class="st8" d="M293.5,172.8c0,0.2-0.1,0.5-0.1,0.8c0.2-0.3,0.3-0.6,0.5-0.9L293.5,172.8z"/>
	<path class="st5" d="M762.1,159.8c0,2.3,1.2,4.6-0.4,6.8c-0.2,0-0.3,0-0.5,0v0c-0.1,1-0.1,1.2-0.4,1.4c0,0.3,0.1,0.6,0.1,0.9
		c0,3.2,0.3,6.5-0.8,9.6c-0.3,0.9-0.5,2-1.5,2.3c1.4,1,2.7,2.3,4,3.4c1-4.2,1.4-8.5,1.3-12.8C763.8,167.5,762.4,163.8,762.1,159.8z"
		/>
	<path class="st5" d="M760,178.6c1.1-3.1,0.8-6.4,0.8-9.6c0-0.3,0-0.6-0.1-0.9c-0.2,0.1-0.4,0.2-0.7,0.2c0,1.8-0.1,3.6,0,5.4
		c-0.1,2.2-0.5,4.3-1.3,6.4c-0.1,0.3-0.2,0.5-0.5,0.6l0.3,0.2C759.4,180.5,759.6,179.5,760,178.6z"/>
	<path class="st5" d="M758.5,180.9c-0.3,0.1-0.5,0.1-0.8,0.1l4.6,4c0.1-0.2,0.1-0.5,0.2-0.7C761.1,183.2,759.9,182,758.5,180.9z"/>
	<path class="st5" d="M758.2,180.7c-0.2,0.1-0.3,0.2-0.5,0.3l0,0c0.3,0,0.5,0,0.8-0.1L758.2,180.7z"/>
	<path class="st5" d="M764.6,176.1c-0.2-3.5,0.3-7-0.6-10.5c-0.4-2.4-1.2-4.8-2.3-7c0,2.4,0,4.2,0,6c0,0.7,0.1,1.5-0.5,2.1
		c0.2,0,0.3,0,0.5,0c1.6-2.2,0.4-4.5,0.4-6.8c0.3,4,1.6,7.7,1.7,11.7c0.1,4.3-0.4,8.6-1.4,12.8l0.3,0.3c0.3-0.4,0.4-0.8,0.6-1.2
		C764.2,181.1,764.6,178.6,764.6,176.1z"/>
	<path class="st5" d="M762.8,184.6l-0.3-0.3c-0.1,0.2-0.1,0.5-0.2,0.7C762.5,184.9,762.6,184.7,762.8,184.6z"/>
	<path class="st10" d="M274,104.8c-1,0.4-1.8,1-2.5,1.8c-0.6,0.5-1,1.1-1.2,1.8C271.6,107.3,272.8,106,274,104.8z"/>
	<path class="st10" d="M270.3,109.2c1.8-1.3,3.4-2.9,4.8-4.6c-0.3,0-0.7,0.1-1,0.2c-1.2,1.2-2.4,2.5-3.8,3.7
		C270.2,108.7,270.2,108.9,270.3,109.2z"/>
	<path class="st11" d="M909.2,200.7c-6.6-3.7-13-7.7-19.5-11.6c-6-3.6-11.8-7.6-17.8-11.3h-0.1c0.1-0.9-0.4-1.8-1.3-2.2
		c-0.6-0.3-1.4-0.4-2-0.1l-0.3-0.2c-6.3-4.1-12.3-8.4-18.4-12.9c-2.8-1.9-5.5-4-7.9-6.3c-0.8-0.8-1.7-1.6-2.5-2.5
		c-0.3-0.3-0.6-0.6-0.9-0.9c-3.7-3.8-8.2-4.7-13.3-3.4c-5.8,0.9-11.4,0.7-16.3-3c-3.9-2.7-7.5-5.7-10.7-9.2c-3-3.9-6.8-7.1-9.8-11
		c-3.1-3.6-6.1-7.3-9-11c-3.4-4.1-6.6-8.5-10-12.6c-0.9-1.1-2.4-1.6-3.8-1.4c-1.4-0.3-2.7-0.8-4-1.5c-6.5-3-12.6-6.8-18.2-11.3
		c-0.7-0.6-1.5-1.2-2.3-1.7c-3.3-1.7-6.6-1.9-9.8,0.3c-4,2.6-8.2,4.9-12.6,6.7c-19.1,8.4-38.9,14.8-58.8,21
		c-0.9,0.3-1.9,0.1-2.7-0.4c-2.3-1.6-4.4-3.4-6.3-5.4c-7.3-7.5-13.7-15.9-19.1-24.8c-4.3-7.1-9.1-14-14.2-20.5
		c-11.5-14.1-24.5-27-38.7-38.3c-10.6-8.7-21.7-16.6-33.4-23.8c-0.6-0.4-1.5-0.6-1.7-1.4h-2.3c-0.5,1-1.4,1.7-1.7,2.9
		c-0.8,2.5-2.1,4.9-3.8,7c-1.7,2.3-3.6,4.4-5.7,6.4c-6.7,6.4-14,12.2-21.8,17.2c-0.4,0.3-0.8,0.5-1.2,0.7c-3.7,1.3-5.9,4.1-7.5,7.5
		c-1.3,2.6-2.1,5.4-2.4,8.2c-0.1,1.4-0.8,2.6-1.9,3.4c-0.8,0.6-1.7,1.2-2.6,1.8c-3.1,1.9-6.3,3.6-9.7,5c-2.2,0.9-4.3,2.1-6.2,3.6
		c-3.8,2.8-7.4,5.8-10.9,8.8c-9.3,8-18.3,16.3-27.2,24.7c-2.4,2.3-5.3,3.8-8.5,4.4c-2.3,0.5-4.7,0.6-7.1,0.5
		c-4.7-0.3-9.3-1.1-13.8-2.5c-2.1-0.6-4.1-1.4-6.3-2c-5.8-1.6-10.8-0.5-14.8,4.2c-0.8,0.9-1.6,1.9-2.5,2.8
		c-9.4,10-20.1,18.6-30.9,27c-0.7,0.6-1.8,0.8-2.6,0.4c-3.7-1.3-7.3-3-10.5-5.2c-5.4-3.6-10.5-7.8-14.9-12.5c-1.6-1.5-3-3.2-4.2-5
		c-1.3-1.9-3-3.5-5-4.7c-0.5-0.4-1.1-0.7-1.8-0.9c-4.1-0.8-7.8-2.7-11.4-4.6c-2.7-1.4-5.3-3-8-4.5c-2.9-1.8-6.4-2.2-9.7-1.3
		c-1.1,0.3-2.1,0.9-2.8,1.9c-0.9,1.2-1.8,2.3-2.7,3.3c-2.7,1.4-4.4,4-6.6,5.9c-0.2,0.2-0.4,0.4-0.6,0.6c0.3-0.1,0.7-0.2,1-0.2
		c-1.4,1.7-3,3.3-4.8,4.6c0-0.2,0-0.5,0-0.7c-0.1,0.1-0.2,0.2-0.4,0.3c-6.5,5.5-13,11-19.5,16.5c-2.1,2-4.9,2.7-7.5,3.5
		c-0.4,0.1-0.8,0.2-1.2,0.3h-1.4c-3.1-0.1-6.3,0.1-9.4,0c-3.4-0.1-6.8-0.8-10.2-1.1c-3.4-0.3-6.9,0.5-9.7,2.4
		c-1.4,0.9-2.4,2.3-3.8,3.1c-1.4,1-2.4,2.4-3.7,3.4c-2,1.4-3.7,3.2-5.7,4.6c-1.4,1.4-3.2,2.5-4.6,4c-1,0.7-2,1.5-3,2.2
		c-1.4,1-2.6,2.2-4,3.1c-10.3,8.1-21.1,15.6-32,22.8c-2.7,1.9-5.5,3.5-8.2,5.3c-12.2,7.7-48.8,26.2-68.7,35.4
		c-12,5.5-41,18.7-67.3,30.6c-3.2,1.5-6.5,2.9-9.7,4.2h4.4c7.8-3.9,15.2-7.9,24.3-11.5c3.5-1.4,12.1-6,15.6-7.1
		c0.8-0.4,1.7-0.3,2.5,0.2c3.1,0.4,6.1-0.5,9-1.4c4.9-1.4,9.9-2.9,14.8-4.5c9-3.1,18-6.4,26.8-10.1c5.3-2.2,10.5-4.6,15.8-7l2.5-1.1
		c4.8-2.2,9.5-4.6,14.2-7c5.4-2.8,10.7-5.9,16.1-8.8c5-2.7,10-5.7,14.9-8.6c7.9-4.7,15.5-9.8,23.2-14.8c9.6-6.4,19-13.2,28.2-20.2
		c3.4-2.6,6.7-5.4,10-8.1c0.9-0.9,2.2-1.3,3.4-0.9c0.7,0.1,1.5,0.2,2.3,0.1c4.1,0,8.2,0,12.4,0.1c4.7-0.1,9.3-0.7,13.9-1.9
		c2.3-0.6,4.5-1.6,6.4-3.1c2.1-1.7,4.2-3.3,6.2-5.1c3.1-2.7,6.1-5.5,9-8.4c4-3.9,8-8,12-12c0.8-0.7,1.5-1.5,2.2-2.3
		c0.9-1.3,2.5-1.8,4-1.3c0.8,0.2,1.6,0.6,2.3,1.1c3,2.1,6.2,3.8,9.5,5.3c4,1.9,7.6,4.5,10.8,7.5c2.2,2,4.2,4.2,6.1,6.5
		c1.5,1.7,3.2,3.3,5,4.7c2.1,1.7,4.1,3.5,6.3,5c2.3,1.7,4.7,3.2,7.2,4.7c0.7,0.3,1.2,0.9,1.4,1.6l-9.5,6.6c-0.4,0.3-0.9,0.3-1.3-0.1
		c0,0,0,0,0,0c-1-1.2-2-2.3-2.9-3.6c-2.2-3-4.6-5.9-7-8.7c-3.1-3.6-6.4-7.1-9.9-10.4c-4.5-4.3-9.5-8-15-10.9
		c-0.7-0.4-1.2-0.2-1.2,0.5c0,1.3,0,2.7,0.1,4c0.2,1.6,0.6,3.2,0.9,4.8c0,0.2,0.1,0.4,0.1,0.6c-0.1,4-1,7.8-3.8,10.8
		c-1.2,1.3-2.6,2.3-4.2,3l0,0c-0.2,1.2,0.5,2.3,1.6,2.8c1,0.5,2,1.1,2.8,1.9c1.6,1.5,2.5,3.6,2.5,5.8c0.2,3.3-0.3,6.6-1.3,9.8
		c-0.6,1.1-0.3,2.5,0.7,3.3c0.2,0.2,0.4,0.4,0.6,0.6l0,0c0.9-0.5,1.5-1.5,1.7-2.5c0.6-1.9,1.7-3.6,3.2-5c2.2-2.4,5.5-3.4,8.6-2.7
		c3.6,0.6,7,2,9.9,4.2c0.7,0.5,0.7,1,0,1.5c-3,2-6,4-9,6c-4.6,3-9.2,6.1-13.8,9.1c-0.9,0.6-1.9,1-2.8,1.5c-0.4,0.3-0.8,0.6-1.1,0.9
		c-1.2,1.2-3.1,1.6-4.7,0.8c-3.2-1.1-6.3-2.3-9.3-3.8c-3.2-1.7-6.2-3.7-9-6c-4.3-3.5-7.9-7.7-10.8-12.4c-0.5-0.7-0.9-1.5-1.1-2.3
		c-0.4-1.5-1.6-2.7-3-3.3c-0.7-0.4-1.4-0.7-2.1-0.9c-2.8-0.8-5.8-1.2-8.7-1.2c-2.8,0-5.5,0-8.3,0.1l0,0c-0.2,0.4-0.5,0.9,0.2,1.2
		c0.9,0.5,1.9,0.8,2.9,1.1c3.5,0.8,6.6,2.5,9.2,5c2,1.9,3.3,4.3,3.7,7c0.2,0.8,0.2,1.7-0.1,2.6c-0.3,1-0.4,2.1-0.4,3.1
		c-0.2,2.7,1.1,4.6,3,6.5c2.4,2.3,4,5,4,8.5c0,1.9-0.3,3.8-1,5.6c-1.5,3.3-2.3,6.9-2.5,10.5c0,0.7-0.4,1.3-1,1.6c-1.6,1-3.2,2-4.9,3
		s-3.1,1.8-4.7,2.7c-0.8,0.4-1.4,1-1.7,1.8c-1.2,2.5-2.6,4.9-4.4,7c-1.1,1.4-2.3,2.7-3.7,3.8c-0.1-0.5-0.2-0.8-0.2-1
		c1.4-5.2,3.2-10.2,5.6-15c1.3-2.8,3.2-5.3,5.4-7.3c1.3-1,2.3-2.4,2.9-3.9c0.3-0.5,0.4-1.1,0.2-1.6c-0.4-0.9,0-1.6,0-2.5
		c0.2-3.5,0.6-7.1-0.4-10.6c-0.2-0.8-0.3-1.9-1.3-2c-1.3-0.1-1.3,1.1-1.6,2c-0.4,1.1-0.7,2.2-0.9,3.3c-1.3,5.6-3.9,10.8-7.5,15.3
		c-2.7,3.3-6.2,5.8-10.2,7.2c-2.7,1-5,3-6.1,5.6c-1,2.3-2.9,3.8-4.7,5.3c-5.1,4.4-11.1,7.5-17.1,10.3c-4.1,1.8-8.3,3.3-12.7,4.4
		c-4.2,1.2-8.5,2.1-12.9,2.5c-2.9,0.3-5.8,1-8.8,0.7c-0.5-0.1-1,0-1.4,0.1c-2,0.7-4,0.5-6,0.5c-2,0.5-4.1,0.8-6.2,1.1
		c-4.7,0.4-9.3,1.2-13.9,1.9c-6.7,1-13.3,2.3-20,3.6c-7,1.4-14,3.1-20.9,5c-1.7,0.4-3.3,0.8-5,1.4c-4.8,1.6-9.7,2.9-14.4,4.7
		c-1.4,0.6-2.9,1.1-4.3,1.6h10.5c4.4-1.2,8.8-2.3,13.2-3.4c7.6-1.8,15.3-3.2,23-4.8c4-0.8,8.1-1.3,12.1-1.9c3.3-0.5,6.6-1.1,9.9-1.5
		c2.3-0.3,4.5-0.5,6.8-0.7c2.6-0.3,5.1-0.6,7.7-0.9c0.3-0.1,0.6-0.1,0.8-0.1c3.6,0.2,7-0.8,10.6-0.7c1.2,0,2.5-0.1,3.7-0.4
		c1.1-0.2,2.3-0.2,3.4-0.2c3.5-0.2,7.1,0.3,10.6-0.5c0.6-0.1,1.1-0.1,1.7,0c3.3,0,6.5,0,9.8,0c1.5-0.1,3.1,0,4.6,0.4
		c0.9,0.1,1.7,0.2,2.6,0.1c2.1,0,4.2,0,6.3,0.1c0.3,0,0.9-0.1,0.9,0.4s-0.3,0.7-0.6,0.9c-1.6,1-3.2,2.1-4.9,3
		c-2.1,1.3-4.3,2.5-6.4,3.8c-0.7,0.4-1.4,0.6-2.2,0.5c-2.5-0.1-4.9,0-7.4-0.4c-2.7-0.4-5.4-0.3-8,0.1c-0.9,0.1-1.7,0.2-2.6,0.2
		c-2.3,0-4.6,0-6.9,0.1c-1.6-0.1-3.3,0-4.9,0.4c-0.5,0.1-0.9,0.1-1.4,0.1c-3.8,0-7.6,0.6-11.4,1c-2.4,0.2-4.7,0.6-7.1,0.8
		c-2.9,0.3-5.9,0.7-8.8,1.2c-4.3,0.8-8.6,1.6-12.9,2.5h74c5.5-2.7,10.9-5.5,16.4-8.3c7.8-4,15.6-8.2,23.1-12.7
		c2.4-1.5,4.7-3.3,6.8-5.3c4-3.8,7.6-8.1,10.6-12.7c0.9-1.3,2.2-2.4,3.6-3.1c6.5-3.1,12.9-6.7,19.2-10.4c8-4.7,15.8-9.6,23.6-14.6
		c10.4-6.6,20.6-13.5,30.8-20.5c9.8-6.8,19.6-13.6,29.4-20.5c9.8-6.9,19.4-13.8,28.8-20.8c2.3-1.6,4.4-3.3,6.5-5.1
		c2.9-2.6,6.4-3.6,10.2-4.2c1.1,0,2.1,0.2,3.1,0.6c4.7,1.5,9.4,3.1,14.2,4.7c1.3,0.4,2.6,0.6,3.8,1.2c2.8,1.2,5.4,0.7,8-0.3
		c4.9-1.9,9.1-4.8,13.2-7.9c2.5-1.9,5-3.8,7.4-5.9c3-2.6,6.1-5.2,9-8.1c3.7-3.7,7.8-7,11.4-10.9c3.3-3.7,6.8-7.2,10.3-10.8
		c0.3-0.3,0.6-0.8,0.9-1.1c1.6-2.1,3.6-3.8,5.9-4.9c4-2,7.9-4.3,11.8-6.4c1.2-0.7,2.1-1.7,2.7-2.9c1.4-2.7,2.4-5.6,3.1-8.6
		c0.6-2.1,1-4.3,1.5-6.4c0.1-1.2,1-2.1,2.1-2.4c5-1.6,9.2-4.6,13.3-7.8c3.2-2.6,6.2-5.4,9-8.4c0.9-0.9,1.7-1.8,2.4-2.8
		c1-1.7,3-2.8,5-2.7c2.5-0.1,5,0.6,7.1,1.9c4,2.5,7.8,5.3,11.4,8.2c2.9,2.4,5.8,4.7,8.7,7.1c0.2,0.1,0.3,0.2,0.4,0.4
		c6.3,5.8,12.5,11.6,18.3,17.8c4.1,4.3,8.1,8.7,12,13.1c4.4,4.9,8.6,10,12.8,15.1c4.1,5,8,10.2,12,15.3c5.4,6.8,10.6,13.8,15.6,20.9
		c3.5,5.2,7.6,10.1,12.2,14.4c3,2.7,6.1,5.2,9.4,7.5c5.6,4,11.5,7.5,17.7,10.6c3.6,1.8,7.3,3.3,11,4.9c1.8,0.9,3.9,1,5.8,0.2
		c2-0.8,4.1-1.1,6.2-1c2.9,0.1,5.7,0.9,8.2,2.4c2.6,1.6,4.8,3.8,6.6,6.3c1.1,1.6,2.1,3.2,3,4.9c1.1,2.1,2.6,4,4.5,5.6
		c3.9,3.5,8.2,6.6,12.7,9.3c3.7,2.1,7.6,4.1,11.3,6.3c6.4,3.6,12.8,7.3,19.1,11.1c5.8,3.4,11.5,6.9,17.1,10.5
		c4.5,2.8,8.8,5.7,13.2,8.6c6.4,4.3,12.7,8.8,19,13.4l1.1,0.8l3-2.7c-4.2-1.9-8.2-4.3-11.9-7c-4.9-3.6-9.8-7.2-14.7-10.9
		c-3.3-2.5-6.4-5.1-9.6-7.6c-2.4-1.9-4.8-3.8-7.2-5.7c-1.9-1.5-3.7-3-5.5-4.5s-3.6-3-5.3-4.6c-2.5-2.2-5.2-4.3-7.8-6.4l-4.6-4l0,0
		l-3.5-2.9l0,0l-9.2-7.6c-2-1.6-3.8-3.4-5.9-5c-2.3-1.7-4-4.1-5.7-6.4c-1.8-2.6-3.9-4.9-6.3-6.9c-1.9-1.7-4-3.3-6.2-4.7
		c-2.1-1.2-4.3-2.2-6.6-2.8c-3.1-0.8-6.3-0.9-9.4-0.4c-2.3,0.2-4.6,0.1-6.8-0.4c-4.4-0.8-8.7-2.4-12.5-4.8l0,0
		c-5.1-2.8-9.9-6.2-14.3-10c-0.7-0.6-1.4-1.3-2.1-1.9c-0.3-0.3-0.6-0.5-0.5-0.9s0.5-0.5,0.9-0.6c4.5-0.7,9-1.8,13.3-3.3
		c6.1-2.2,11.9-5.2,17.3-8.9c2.6-1.8,4.9-4,7.4-5.9c5.1-4,10.9-7.1,17.1-9.2c3-1,6.1-1.8,9.1-2.4c1.5-0.4,3.1,0.1,4.2,1.2
		c2.3,2.2,4.9,4,7.6,5.6c3.8,2.3,7.8,4.5,11.7,6.7c1,0.5,1.9,1.3,2.5,2.3c2.9,4.7,6.5,8.8,9.9,13c1.3,1.6,2.8,3.1,4.2,4.7
		c6.8,7.3,13.8,14.4,21.2,21.1c0.4,0.4,0.9,0.7,1.3,1.1c4,4,8.5,7.5,12.6,11.3c0.1,0.1,0.3,0.2,0.4,0.4c1.4,1.3,3.4,1.9,5.3,1.4
		c2.9-0.5,5.8-0.8,8.8-1.1c1.9-0.2,3.8-0.5,5.6-0.9c1.8-0.4,3.7,0.1,5,1.3c3.5,2.9,7,5.6,10.6,8.3c7.7,5.8,15.7,11.2,23.8,16.4
		c5.3,3.4,10.7,6.7,16.2,9.8c5.9,3.4,11.8,6.7,17.8,9.8l0.6,0.3l9.3-6.1L909.2,200.7z"/>
	<path class="st12" d="M601,229.6c-0.5,0.3-1.2,0.3-1.7,0c-0.4-0.2-0.8-0.5-1.1-0.9c-3.2-2.9-6.1-6.1-8.6-9.6
		c-1-1.5-2.6-2.2-3.9-3.3c-1-0.8-1.9-1.6-2.8-2.4c-3.6-3.3-6.7-7.1-10-10.7c-2.7-2.9-4.9-6.1-7.5-9c-3.2-3.5-7.1-5.9-12.1-5.2
		c-2.5,0.4-4.8,1.4-6.8,2.9c-4.3,2.9-7.1,7.1-9.9,11.3c-0.2,0.4-0.4,0.8-0.6,1.3c-1.4,3.2-3.5,5.6-7,6.6c-2.8,0.9-5.5,2.2-8,3.9
		c-3.7,2.3-7.3,4.9-10.8,7.5c-0.6,0.5-1.2,1-1.7,1.5c-1.6,1.8-3.7,2.9-6,3.2c-2,0.5-4.1,0.7-6.2,0.8c-5.3-0.1-9.8,2.1-13.9,5.2
		c-0.8,0.7-1.5,1.5-2.1,2.3c-1,1.1-2.4,1.7-3.8,1.6c-3.2,0.1-6.5,0.5-9.6,1.3c-7.5,1.7-15,3.7-22.3,6c-5.2,1.6-10.3,3.3-15.5,5h56.7
		c0.3-0.5,0.6-0.9,0.8-1.4c0.7-1.3,0.6-2-0.7-2.9c-1.4-1-2.9-1.9-4.5-2.4c-0.7-0.1-1.2-0.7-1.2-1.4c-0.1-0.8,0.3-1.5,1-1.9
		c1.8-1,3.8-1.8,5.9-2.2c2.4-0.6,4.8-1,7.3-1.4s5.1-0.3,7.6-1c3.7-0.9,6.8-3.1,8.9-6.3c2-3,4.6-5.7,7.6-7.7c1.8-1.2,3.9-2,6.1-2.2
		c2.9-0.4,5.8-1.4,8.3-3c2.7-1.6,5.1-3.7,6.9-6.3c1.2-1.8,3.2-3,4.3-5c2.9-2.3,5.5-5,9-6.4c2.2-0.8,4.6-0.8,6.8-0.1
		c1.6,0.5,2.9,1.7,3.5,3.2c1.7,3.2,3.9,6.1,6.6,8.6c1.8,2,3.8,3.8,5.9,5.4c0.5,0.4,1.1,0.7,1.7,1c4.2,1.6,7.7,4.3,10.2,8
		c0.4,0.6,1,1.2,1.4,1.8c3,5.2,7.5,8.9,11.7,13c2.9,2.8,6.2,5.1,9.2,7.7c0.9,0.7,1.7,1.5,2.3,2.5c-0.5,0.5-1,0.3-1.4,0.1
		c-1.5-0.7-2.9-1.5-4.2-2.5c-4-2.7-8.1-5-12.2-7.5c-6.2-3.6-12.8-6.5-19.7-8.6c-3.2-1-6.5-1.6-9.7-2.4c-0.6-0.1-1.1-0.1-1.7-0.1
		c-2.5,0-5,0-7.5,0c-2,0.1-4,0.5-5.8,1.2c-0.4,0.1-0.6,0.5-0.6,0.9c0,0.4,0.4,0.7,0.8,0.7c0,0,0,0,0,0c2.3-0.2,4.5,0.7,6.8,0.7
		c1.4,0.1,2.8,0.3,4.2,0.5c5.6,0.9,11.2,2.4,16.5,4.5c3.1,1.1,6,2.4,8.9,3.9c4.9,2.6,9.5,5.6,13.8,9.1h21.9
		c-3.3-2.3-6.5-4.8-9.6-7.4C608.9,238,604.5,234.3,601,229.6z"/>
	<path class="st5" d="M576,243.6c-3.2-0.6-6.4-1.1-9.5-1.6c-0.8-0.1-1.5-0.1-2.3-0.1c-1.1,0.1-2.3-0.1-3.4-0.4
		c-0.7-0.2-1.5-0.2-2.3-0.2c-3,0-5.9,0-8.9,0c-1.1-0.1-2.1,0.1-3.1,0.4c-0.5,0.2-1.1,0.3-1.7,0.2c-2.7-0.3-5.3,0.6-8,0.7
		c-2.3,0.1-4.5,0.9-6.7,1.3c-6.1,1.1-12,3.2-17.8,5.2h82.2l-0.4-0.2C588.3,246.6,582.2,244.8,576,243.6z"/>
	<path class="st5" d="M671.6,248.3c-0.5,0-1,0.3-1.2,0.9h5.8c-0.6-0.2-1.2-0.4-1.8-0.6C673.5,248.3,672.5,248.2,671.6,248.3z"/>
	<path class="st5" d="M601,229.6c3.5,4.6,7.9,8.3,12.2,12.1c3.1,2.6,6.2,5.1,9.6,7.4h1.2c-1.3-0.9-2.6-1.8-3.9-2.8
		c-2.8-1.9-5.5-4.1-7.9-6.5c-0.4-0.4-0.8-0.8-1.3-1.1c-3-2.2-5.4-5.1-8-7.7c-0.5-0.5-0.7-1.4-1.5-1.7
		C601.3,229.4,601.1,229.5,601,229.6z"/>
	<path class="st3" d="M793.3,227.7c-2.3-2.3-4.9-4.3-7.7-6c-5.7-3.5-11.8-6.4-18.1-8.6c-13.8-5-26-12.6-36.1-23.3
		c-4.5-5-10.3-8.6-16.8-10.3c-1.5-0.4-3-0.6-4.5-0.6c-8,0-15.8-2.6-22.2-7.5c-12.8-9.3-25.7-18.4-39.2-26.6c-0.9-0.5-1.8-1.5-3.1-1
		c-0.1,1.1,0.7,1.6,1.3,2.1c10.2,9.7,19.6,20.2,28.2,31.3c6.5,8.5,12.4,17.2,15.8,27.5c1.3,4.1,4,7.6,6.8,10.9
		c4.5,5.5,8.6,11.3,12.2,17.4c2.3,3.8,5.8,6.8,8.7,10.3c1.7,1.9,3.2,3.9,4.9,5.9h1.7c-0.1-0.3-0.3-0.5-0.4-0.8
		c-1.8-2.8-3.4-5.7-4.9-8.7l0,0c-0.4-0.2-0.6-0.7-0.5-1.1c-0.6-0.7-1.2-1.5-1.7-2.3c-3.3-5.8-6.4-11.8-9.2-17.9
		c-2.3-4.7-4.2-9.6-5.5-14.7c-0.9-3.9,0.5-6.8,4.3-8.2c1.9-0.6,3.9-0.7,5.9-0.2c3.9,0.7,7.7,2.1,11.2,4.2c4.1,2.3,8,4.9,11.6,7.8
		c2.3,1.8,4.5,3.8,7,5.5c4.3,2.9,9.1,5,14.1,6.2c5.8,1.6,11.5,3.5,17.1,5.6c4.1,1.6,8,3.7,11.9,5.7c2.5,1.3,4.7,2.9,6.8,4.7
		c1.6,1.4,2.8,0.5,5.1,2.8l3.3-3.2C798.3,232.5,795.7,230.2,793.3,227.7z"/>
	<path class="st3" d="M718.5,243.2c-2.9-3.4-6.4-6.4-8.7-10.3c-3.7-6.1-7.8-11.9-12.2-17.4c-2.7-3.4-5.4-6.8-6.8-10.9
		c-3.4-10.3-9.3-19-15.8-27.5c-8.6-11.1-18-21.6-28.2-31.3c-0.6-0.6-1.4-1.1-1.3-2.1c1.3-0.5,2.2,0.5,3.1,1
		c13.5,8.2,26.4,17.3,39.2,26.6c6.4,4.9,14.2,7.5,22.2,7.5c1.5,0,3.1,0.2,4.5,0.6c6.5,1.7,12.4,5.3,16.8,10.3
		c10,10.7,22.3,18.3,36.1,23.3c6.3,2.3,12.4,5.1,18.1,8.6c2.8,1.7,5.4,3.7,7.7,6c2.4,2.6,5.1,4.9,8,6.9l0.6-0.6
		c-1.1-0.8-2.2-1.6-3.2-2.4c-1.5-1-2.9-2.2-4.1-3.6c-2.3-2.6-4.9-4.8-7.9-6.6c-5.6-3.6-11.7-6.5-18-8.7c-6.9-2.4-13.4-5.6-19.5-9.5
		c-3.9-2.5-7.7-5.3-11.3-8.3c-2.3-1.9-4.4-3.9-6.4-6.2c-1.3-1.5-2.7-2.9-4.3-4.1c-5.5-4.1-11.6-6.5-18.6-6.4c-1.7,0-3.4-0.2-5.1-0.5
		c-4.8-0.8-9.4-2.8-13.5-5.6c-6.4-4.8-13.1-9.3-19.6-13.9c-5.3-3.7-10.8-7.3-16.2-10.8c-2.2-1.4-4.4-2.7-6.6-4
		c-0.6-0.4-1.4-0.7-2.2-0.6c-0.6,0-1,0.5-0.9,1.1c0,0.1,0,0.2,0.1,0.4c0.5,0.8,1.1,1.6,1.8,2.2c1.5,1.5,3.1,2.8,4.5,4.4
		c3.6,4,7.6,7.6,11,11.7c1.8,2.2,3.8,4.3,5.7,6.4c1.2,1.5,2.4,3,3.6,4.5c2.6,3.3,5.2,6.6,7.6,10.1c4.6,6.5,8.7,13.2,11.2,20.9
		c1.1,3.2,2.6,6.2,4.7,8.8c1.5,2,3.1,3.9,4.6,5.8c3.8,4.7,7.2,9.7,10.1,14.9c0.2,0.4,0.5,0.8,0.8,1.2c2.8,3.2,5.7,6.5,8.5,9.7
		c1.3,1.5,2.6,3,3.8,4.6h0.9C721.8,247.2,720.2,245.2,718.5,243.2z"/>
	<path class="st5" d="M790.3,241c-0.3-0.3-0.6-0.5-0.8-0.8c-1.3-0.4-2.5-1.1-3.4-2c-6.3-4.9-13.4-8.8-21-11.3
		c-4.3-1.5-8.7-2.7-13-4.5c-2.9-1.2-6-1.8-9.2-1.9c-2.1-0.1-4.2,0.6-5.8,2c-1.4,1.3-3.5,1.8-5.3,1.2c-2.3-0.5-4.6-1.1-6.9-1.9
		c-0.9-0.3-1.9-1-3-0.4c-1.2,0.6-2.2,1.6-2.7,2.8c-0.6,1.3-0.9,2.7-1,4.1c-0.1,2.6,0.2,5.1,0.9,7.6c0.1,0.4,0.2,0.8,0.2,1.3l0,0.1
		c0.1,0.2,0.3,0.5,0.4,0.7c0.3,0.5,0.5,1,0.9,1.4c1.8,3.1,3.7,6.2,5.3,9.4h60.4l5.9-5.7C791.3,242.4,790.7,241.6,790.3,241z"/>
	<path class="st5" d="M719.7,239.6L719.7,239.6c1.5,3,3.1,5.9,4.9,8.7c0.2,0.2,0.3,0.5,0.4,0.8h0.7c-1.7-3.2-3.5-6.3-5.3-9.4
		c-0.3-0.5-0.6-0.9-0.9-1.4c-0.1-0.3-0.3-0.5-0.4-0.7l0-0.1c0,0.3,0,0.7,0,1C719.6,238.7,719.8,239.2,719.7,239.6z"/>
	<path class="st8" d="M668.1,237.3c-6-3.8-12-7.7-17.9-11.8s-12-8.1-17.8-12.5c-2.4-1.9-5.1-3.4-7.2-5.6c-0.1-0.1-0.1-0.1-0.2-0.2
		c-0.7-0.6-1.8-0.5-2.4,0.2c-0.3,0.3-0.4,0.8-0.4,1.2c-0.1,2.2,0,4.4,0.4,6.5c0.7,3.8,1.8,7.6,3.1,11.3c1.4,3.8,3,7.4,4.6,11.1
		c1.7,3.9,3.4,7.7,5.2,11.5h34.4c0.1-0.9,0.9-1.4,2.3-1.5c1.2,0,2.5,0.2,3.6,0.6c0.8,0.3,1.7,0.6,2.5,0.9h9.7
		c-1.9-1.1-3.8-2.2-5.7-3.2C677.4,243.3,672.7,240.3,668.1,237.3z"/>
	<path class="st8" d="M672.1,247.6c-1.4,0.1-2.1,0.6-2.3,1.5h0.5c0.2-0.5,0.7-0.9,1.2-0.9c1-0.1,1.9,0,2.8,0.3
		c0.6,0.2,1.2,0.4,1.8,0.6h2c-0.8-0.3-1.7-0.6-2.5-0.9C674.6,247.8,673.3,247.6,672.1,247.6z"/>
	<path class="st7" d="M758.9,220.2c-7.8-2.2-14.9-5.3-21.1-10.6c-4.7-4-9.9-7.5-15.5-10.4c-3.2-1.7-6.7-2.8-10.3-3.4
		c-6-0.9-9.7,3-8.1,8.8c2.6,9.4,7.1,18,11.7,26.5c0.9,1.6,1.7,3.3,2.6,4.9c-0.8-2.4-1.1-5-0.9-7.5c0.1-1.7,0.6-3.4,1.5-4.9
		c1.5-2.5,3.3-3.1,6.1-2.3c1.5,0.4,2.9,1,4.4,1.4c3,0.8,5.7,0.9,8.4-1.2c2-1.5,4.7-2,7.1-1.4c15.7,4,31.2,8.6,44,19.3
		c0.3,0.2,0.5,0.6,0.7,0.9c0.1,0,0.4,0.2,0.8,0.8c0.7,0.7,1.4,1.4,2,2.2l4.9-4.8c-1.2-0.3-2.3-0.9-3.2-1.7
		C783.6,228.2,771.4,223.8,758.9,220.2z"/>
	<path class="st8" d="M786,230.2c-3.9-2-7.8-4.1-11.9-5.7c-5.6-2.2-11.3-4.1-17.1-5.6c-5-1.3-9.8-3.4-14.1-6.2
		c-2.4-1.7-4.7-3.6-7-5.4c-3.7-2.9-7.5-5.5-11.6-7.8c-3.5-2-7.3-3.4-11.2-4.2c-1.9-0.5-4-0.4-5.9,0.2c-3.8,1.4-5.2,4.2-4.3,8.2
		c1.3,5.1,3.1,10,5.5,14.7c2.8,6.1,5.9,12,9.2,17.9c0.5,0.8,1.1,1.6,1.7,2.3l0,0c-0.4-0.8-0.7-1.7-1-2.5c-0.9-1.6-1.8-3.3-2.6-4.9
		c-4.5-8.5-9.1-17.1-11.7-26.5c-1.6-5.8,2-9.7,8.1-8.8c3.6,0.6,7.1,1.7,10.3,3.4c5.5,2.9,10.7,6.4,15.5,10.4
		c6.2,5.3,13.3,8.4,21.1,10.6c12.6,3.6,24.8,8,35.1,16.6c0.9,0.8,2,1.4,3.2,1.7l0.7-0.7c-2.3-2.3-3.5-1.4-5.1-2.8
		C790.7,233.1,788.4,231.5,786,230.2z"/>
	<path class="st8" d="M744.7,220.1c-2.5-0.7-5.1-0.2-7.1,1.4c-2.7,2.1-5.4,2-8.4,1.2c-1.5-0.4-2.9-0.9-4.4-1.4
		c-2.8-0.8-4.6-0.1-6.1,2.3c-0.9,1.5-1.4,3.2-1.5,4.9c-0.2,2.5,0.1,5.1,0.9,7.5c0.3,0.5,0.6,1,1,1.5c0-0.4-0.1-0.9-0.2-1.3
		c-0.7-2.5-1-5-0.9-7.6c0.1-1.4,0.4-2.8,1-4.1c0.6-1.2,1.5-2.2,2.7-2.8c1.1-0.6,2.1,0.1,3,0.4c2.2,0.8,4.5,1.4,6.9,1.9
		c1.9,0.5,3.9,0.1,5.3-1.2c1.6-1.4,3.7-2.1,5.8-2c3.2,0,6.3,0.7,9.2,1.9c4.2,1.7,8.7,2.9,13,4.5c7.6,2.5,14.7,6.4,21,11.3
		c1,0.9,2.1,1.6,3.4,2c-0.1-0.4-0.4-0.7-0.7-0.9C775.9,228.7,760.5,224.1,744.7,220.1z"/>
	<path class="st8" d="M792,243.4l0.2-0.2c-0.6-0.8-1.3-1.5-2-2.2C790.7,241.6,791.3,242.4,792,243.4z"/>
	<path class="st8" d="M719.2,238.5L719.2,238.5c0-0.3,0-0.7,0-1c-0.3-0.5-0.6-1-1-1.5C718.5,236.8,718.8,237.7,719.2,238.5z"/>
	<path class="st13" d="M656.4,216.9c-11.2-9.1-22-18.7-30.7-30.4c-0.7-1-1.7-1.9-1.6-3.3l0,0c-0.6-0.4-1-1-1.3-1.6
		c-2.1-3.7-4.3-7.4-5.4-11.5l0,0c-0.2-0.2-0.5-0.5-0.5-0.7c0.1-2.5-0.8-4.9-1.3-7.3c-0.7-3.1-1.7-6.2-2.5-9.4
		c-0.3-1.5-0.6-3-0.8-4.5c-0.9-6-2.8-11.9-5.5-17.4c-2.3-4.7-5.9-8.4-9.7-11.9c-1.1-0.9-2.3-1.7-3.6-2.3c-1.8-1.1-3.5-2.2-4.6-4.1
		c-0.8-1.3-1.3-2.8-1.3-4.3c0.1-4.6-1.3-9.1-4-12.9c-0.4-0.5-0.7-1.1-1-1.7c-0.2-0.5-0.1-1.2,0.4-1.5c0.4-0.2,1-0.1,1.3,0.2
		c1.5,1.3,3.1,2.5,4.5,3.9c2.3,2.2,4.8,4.3,7.4,6.3c2.2,1.8,4.5,3.5,6.9,5c1.1,0.7,2.3,1.3,3.5,1.9c5.4,2.4,10.4,5.7,14.8,9.6
		c0.9,0.8,2,1.5,2.9,2.3c2.1,2.1,3.9,4.4,5.4,7c0.4,0.7,1,1.4,1.6,2h0.2v-0.1c0.4-2-0.8-3.4-1.8-5c-4.3-7.3-9.9-13.6-14.9-20.4
		c-2.2-2.9-4.1-6-5.7-9.3c-6-12.5-14.5-23.1-24-33.1c-9.3-9.8-19.5-18.7-30.6-26.4c-1.3-0.9-2.8-2.8-4.5-1.5s-0.2,3,0.4,4.5
		c2,5.7,1.6,11.5,0.9,17.3c-1,6.6-2.8,13.1-5.1,19.4c-0.3,1-0.7,2-1,3c-0.7,2.6-0.4,3.1,2.3,3.2c4.8,0.1,9.5,1.4,13.7,3.7
		c3.2,1.6,5.8,4.1,7.7,7.1c1.4,2.3,2.2,4.9,2.2,7.6c-0.2,4,0.1,8.1,0.9,12c0.7,2.9,2.2,5.5,4.2,7.7c15.4,15.7,21.1,34.6,19.3,56.2
		c-0.5,4.6,0.5,9.3,2.8,13.3c2.7,4.8,4.9,9.8,7.2,14.7c7.2,15.4,14.8,30.6,24.2,44.8h5c-4.9-9.9-9.4-20-12.3-30.8
		c-0.9-2.8-1.2-5.8-1.1-8.8c0.1-1.2,0.2-2.4,1.4-2.9s2.4,0,3.4,0.8c17.1,13.1,35,25.1,53.5,36.2c3.2,1.9,6.4,3.8,9.6,5.5h12.4
		C685.9,239.3,670.8,228.5,656.4,216.9z"/>
	<path class="st3" d="M624.1,183.3c-0.1,1.4,0.8,2.3,1.6,3.3c8.7,11.7,19.5,21.3,30.7,30.3c14.5,11.6,29.6,22.4,45.3,32.2h1.4
		c-1.5-0.9-3-1.8-4.4-2.8c-6-3.9-12-7.9-17.8-12c-4.9-3.5-9.8-7-14.6-10.6c-4.1-3.1-8.1-6.4-12.1-9.6c-3.7-3-7.3-6.2-10.8-9.4
		c-5-4.5-9.6-9.3-13.9-14.5c-1.9-2.2-3.6-4.5-5.1-6.9l0,0C624.2,183.3,624.2,183.3,624.1,183.3L624.1,183.3z"/>
	<path class="st3" d="M605.4,204.3c-2.3-4.9-4.4-9.9-7.2-14.7c-2.3-4.1-3.2-8.7-2.8-13.3c1.8-21.6-3.9-40.5-19.3-56.2
		c-2.1-2.1-3.5-4.8-4.2-7.7c-0.9-3.9-1.2-8-0.9-12c0-2.7-0.7-5.3-2.2-7.6c-1.9-3-4.6-5.5-7.7-7.1c-4.2-2.3-8.9-3.6-13.7-3.7
		c-2.7-0.1-3-0.6-2.3-3.2c0.3-1,0.6-2,1-3c2.4-6.3,4.1-12.7,5.1-19.4c0.8-5.8,1.2-11.6-0.9-17.3c-0.5-1.4-2-3.2-0.4-4.5
		s3.2,0.6,4.5,1.5c11.1,7.7,21.3,16.5,30.6,26.4c9.5,10,18,20.6,24,33.1c1.6,3.3,3.5,6.4,5.7,9.3c5,6.7,10.6,13.1,14.9,20.4
		c0.9,1.6,2.1,3,1.8,5v0.1l0.4,0.1l0,0c0.7-0.6,0.8-1.6,0.3-2.3c-0.8-1.5-1.7-3-2.7-4.4c-2.9-4.4-5.7-8.8-9.2-12.8
		c-1.1-1.1-2.1-2.3-3-3.5c-2.9-3.9-5.5-8.1-7.7-12.4c-2.8-5.8-6.1-11.3-9.9-16.4c-3.2-4.4-6.7-8.6-10.2-12.7c-2.2-2.6-5-4.8-7-7.6
		c-0.3-0.3-0.5-0.5-0.8-0.8c-0.9-0.8-1.7-1.5-2.6-2.3c-2.4-2.2-4.7-4.5-7.1-6.6c-4.1-3.6-8.4-6.9-12.7-10.2c-2-1.5-4-2.9-6.1-4.3
		c-0.8-0.6-1.7-0.9-2.7-0.9c-0.9,0-1.7,0.7-1.8,1.6c-0.1,1.1,0.1,2.3,0.6,3.3c1.8,3.4,1.8,7.2,2,10.9c0,2.1-0.1,4.2-0.5,6.3
		c-0.7,5.2-1.9,10.3-3.6,15.3c-0.9,2.6-1.8,5.2-2.7,7.9c-0.3,0.8-0.5,1.6-0.6,2.5c0,1.3,0.3,1.8,1.7,1.7c2.2,0,4.4,0.1,6.5,0.5
		c4.6,0.7,8.8,2.7,12.4,5.6c3.7,3.2,6.2,7,5.9,12.2c-0.1,0.9,0,1.7,0,2.6c-0.1,3.1,0.3,6.1,1,9.1c0.7,3.2,2.4,6.1,4.8,8.3
		c4.1,4,7.6,8.6,10.4,13.6c5.6,9.9,8.6,21.2,8.6,32.6c0,3.1,0.3,6.3-0.5,9.4c-0.1,0.7,0,1.3,0.1,2c0.1,0.8,0.2,1.5,0.3,2.3
		c0.3,3.9,1.6,7.7,3.7,11c0.7,1,1.3,2.1,1.8,3.3c2,4.6,4.1,9.3,6.3,13.8c4.5,9.3,9,18.6,14.2,27.5c2.5,4.3,5,8.5,7.8,12.6h0.9
		C620.2,234.9,612.7,219.7,605.4,204.3z"/>
	<path class="st3" d="M626.2,207.4c-1-0.8-2.1-1.4-3.4-0.8s-1.3,1.8-1.4,2.9c-0.1,3,0.2,5.9,1.1,8.8c2.9,10.8,7.4,20.9,12.3,30.8
		h0.7c-1.8-3.8-3.6-7.6-5.2-11.5c-1.6-3.7-3.2-7.3-4.6-11.1c-1.3-3.7-2.4-7.4-3.1-11.3c-0.4-2.2-0.5-4.4-0.4-6.5
		c-0.1-0.9,0.7-1.8,1.6-1.8c0.5,0,0.9,0.1,1.2,0.4c0.1,0.1,0.2,0.1,0.2,0.2c2.2,2.2,4.8,3.7,7.2,5.6c5.8,4.4,11.8,8.4,17.8,12.5
		s11.9,8,17.9,11.8c4.7,3,9.3,6,14.2,8.6c1.9,1,3.8,2.1,5.7,3.2h1.3c-3.2-1.8-6.4-3.6-9.6-5.5C661.1,232.6,643.3,220.5,626.2,207.4z
		"/>
	<path class="st6" d="M446.5,121.8c2.1-0.7,4.1-1.7,6.1-2.5c2-0.9,4.2-1.5,6.4-1.6c1.9-0.1,3.6,0.2,4.6,2.2c0.6,1,1.8,1.6,3,1.4
		c1.1-0.1,2.3-0.4,3.3-0.9c2.4-1.1,4.7-2.5,6.8-4.2c2.6-2.1,5.2-4.2,7.8-6.3c1.8-1.4,3.7-2.7,5.8-3.8c0.6-0.4,1.4-0.7,2.2-0.8
		c0.5-0.1,1,0.3,1.1,0.9c0,0,0,0.1,0,0.1c-0.1,1-0.3,2.1-0.8,3c-1,2.3-2.3,4.4-3.6,6.5c-1.6,2.5-3,5.1-4.1,7.9
		c-0.3,0.8-1.1,1.9-0.1,2.6c0.8,0.5,1.6-0.4,2.2-0.9c2-1.6,3.9-3.4,5.6-5.4c1.2-1.3,2.4-2.5,3.7-3.6c0.7-0.6,1.6-1.3,2.6-0.8
		s0.7,1.5,0.7,2.3c0,3.7-0.5,7.5-1.4,11.1c-2.4,9.9-8,18.6-16.1,24.8c-0.8,0.5-1.4,1.3-1.9,2.1c-0.2,0.5-0.1,1,0.4,1.3
		c0.2,0.1,0.3,0.1,0.5,0.1c1-0.1,2.1-0.3,3.1-0.7c4.3-1.5,8.1-4,11.2-7.3c4-4.3,7.2-9.2,9.4-14.7c0.2-0.5,0.4-1.1,0.6-1.6
		c0.4-0.8,1.4-1,2.1-0.6c0.2,0.1,0.4,0.3,0.5,0.5c0.3,0.5,0.6,1,0.7,1.6c0.8,2.9,0.9,5.9,0.3,8.8c-0.8,4.7-2.2,9.3-4.1,13.7
		c-2.4,5.7-5.1,11.1-8.3,16.4c-0.8,1.2-1.4,2.5-1.7,3.9c0,0.3,0,0.6,0.2,0.8c0.2,0.1,0.5,0.2,0.8,0.1c0.8-0.3,1.5-0.8,2.1-1.4
		c6.4-5.5,12.4-11.4,18-17.8c2.7-3,5.1-6.3,7.1-9.7c1.2-2,2-4.1,2.5-6.4c0.3-1.2,0.2-2.5-0.2-3.7c-0.5-1.7-2-2.9-3.8-2.9
		c-0.9,0-1.7-0.1-2.6-0.2c-0.4,0-0.7-0.3-0.7-0.7c0-0.3,0.2-0.5,0.5-0.7c1.2-0.8,2.6-1.2,4.1-1.3c3-0.5,6-1.3,8.8-2.5
		c3-1.2,5.8-3,8.2-5.2c2.9-2.7,4.7-6.3,5.2-10.3c0.1-0.9,0.3-1.7,0.5-2.5c0.3-1.1,1.4-1.7,2.5-1.4c0.1,0,0.2,0.1,0.3,0.1
		c0.6,0.2,1.2,0.7,1.8,0.9c1,0.5,2.2,0,2.7-1c0,0,0,0,0,0c0.5-0.9,0.7-2,0.6-3.1c-0.1-1.2,0.1-2.5,0.5-3.7c1-2,2.5-2.5,4.4-1.4
		c1.2,0.8,2.3,1.8,3.2,2.9c2,2.4,3.8,5,5.4,7.8c0.4,0.9,1,1.7,1.7,2.3c0.2,0.1,0.3,0.1,0.5,0.1c0.3-0.1,0.4-0.4,0.3-0.7c0,0,0,0,0,0
		c-0.9-1.8-1.7-3.7-2.2-5.6c-1.1-4-1.8-8-2.2-12.1c-0.1-1.1-0.4-2.3-1-3.2c-0.9-1.4-2-2.5-3.4-3.4c-1.7-1.1-3.6-1.9-5.5-2.4
		c-3.4-0.9-7-1.4-10.5-1.3c-1.2,0-2.5-0.1-3.7-0.3c-3.1-0.5-4.3-2.8-3.6-5.7c0.4-1.4,1-2.7,1.7-3.9c1.9-3.4,3.3-7.2,4.2-11
		c1.8-7.9,2.1-16,1.1-24c-0.1-0.7-0.3-1.3-0.6-1.9c-0.9-2.1-1.2-4.5-0.8-6.7c0.2-1.2,0.5-2.4,0.5-3.7c0.1-1.5-1-2.3-2.4-1.9
		c-0.7,0.2-0.9,0.7-1.2,1.2c-1.7,2.7-3.9,5-6.5,6.8c-3.3,2.6-7,4.8-10.8,6.5c-2.8,1.1-4.8,3.6-5.5,6.5c-1,4.5-3,8.7-5.8,12.4
		c-2,2.7-4.9,4.6-8.2,5.3c-5.7,1.1-10.8,4.4-14.1,9.2c-1.8,2.5-3.7,4.9-5.6,7.3c-7.4,9.5-15.9,18.2-25.1,26
		c-6.3,5.2-13,9.7-20.8,12.5c-0.2,0.4-0.4,0.7-0.6,1.1C440.3,123.5,443.5,123,446.5,121.8z"/>
	<path class="st3" d="M375.2,238.4c6.3-3.6,12.8-6.8,19.4-10c2.4-1.1,4.9-2.2,7.4-3.2c3.6-1.5,7.3-2.9,10.9-4.3
		c12.2-4.6,24.9-7.9,37.9-9.8c2.5-0.5,5.1-0.7,7.7-0.8c2.8,0.1,5.5,0,8.3,0c1.5,0,3.1,0.1,4.6,0c3.2-0.3,6.2-1.2,8.1-4.2
		c1.5-2.1,3.4-3.9,5.5-5.3c4.7-3.3,9.7-6.2,14.9-8.6c2.4-1.1,4.8-2.4,7.1-3.8c3.8-2.3,7.3-4.9,10.7-7.6c3.6-3,6.8-6.4,9.6-10.2
		c2.3-3,4.2-6.2,5.7-9.6c2.5-5.5,4.2-11.3,4.1-17.4c0-1,0.1-1.9,0-2.9c-0.2-1.4,0.5-2.7,1.7-3.3c2-1.2,3.7-2.7,5.2-4.4
		c3.2-3.7,5.7-7.9,7.5-12.4c0.5-1.2,0.6-2.5,0.4-3.8c-0.8-0.1-1.1,0.4-1.5,0.8c-0.7,0.9-1.3,1.9-1.7,3c-1.1,2.5-2.8,4.6-4.9,6.3
		c-2.7,2.3-5.6,4.3-8.8,5.9c-1.8,0.8-3.1,2.4-3.7,4.2c-0.4,1.3-0.6,2.6-0.7,3.9c0.1,1,0,1.9-0.2,2.9c-1,5.6-3.3,10.8-6.6,15.5
		c-2.1,3.2-4.6,6.1-7.4,8.7c-1.6,1.5-3.2,3-4.9,4.4c-3.7,3.1-7.6,5.8-11.7,8.3c-2,1.3-4.2,2.4-6.3,3.5c-2.3,1.2-5,1.4-7.5,0.6
		c-3.4-1.1-6.4-3-8.9-5.5c-4.8-4.4-8.8-9.6-11.6-15.5c-1.6-3.4-4.6-6-8.2-7.2c-0.8-0.3-1.6-0.5-2.5-0.7c-2.9-0.7-5.5-2.3-7.4-4.7
		c-1.4-1.8-2.9-3.6-4.3-5.4c-3.3-4-7-7.6-11.1-10.8c-4.5-3.7-9.3-7-14.4-9.9c-2.5-1.4-5.1-2.6-7.7-3.9c-0.6-0.4-1.3-0.2-1.7,0.4
		c-0.1,0.2-0.2,0.4-0.2,0.6c-0.2,1-0.1,2.1,0.2,3.1c0.4,1.5,0.5,3,0.2,4.6c-0.8,5.5-4.1,10.3-8.9,13c-5.3,3-9.5,7.6-11.8,13.2
		c-0.3,0.7-0.7,1.4-1.2,2c-1.5,2.4-3.8,4-6,5.7c-4.4,3.3-9.1,6.3-14,9c-4.5,2.6-9.1,5.2-13.7,7.8c-0.2,0.2-0.4,0.4-0.6,0.6l0,0
		c0,0.2,0.1,0.4,0.1,0.6c0.2,0.4,0.6,0.6,1.2,0.4c0.3-0.1,0.7-0.3,1-0.5c6.5-3.3,13.1-6.2,19.9-8.7c6.8-2.7,13.9-4.8,21.2-6.2
		c2.7-0.5,5.4-1.1,8.1-1.6c0.5-0.1,1-0.1,1.4-0.1l0,0c0.3-0.4,0.8-0.6,1.2-0.6h3.9c2,0,4,0,6,0c5.8,0.1,11.6,1,17.1,2.9
		c4.2,1.2,8.2,3.3,11.6,6c2,1.5,3.8,3.1,5.4,5c1.6,2,3.2,4,4.6,6.2c1.3,1.8,3,3.2,5,4.2c0.3,0.2,0.7,0.3,1.1,0.4c2-0.2,4,0.6,6,0.7
		c3.4,0.2,6.8,1.2,9.8,2.8c0.4,0.2,0.8,0.5,1.1,0.9c0.3,0.2,0.4,0.7,0.2,1c-0.1,0.1-0.1,0.1-0.2,0.2c-0.4,0.4-0.9,0.8-1.4,1
		c-1.9,0.7-3.8,1.3-5.7,1.7c-2.8,0.4-5.7,0.6-8.6,0.5c-5.3,0-10.5,0-15.8,0c-2.3,0-4.6,0.4-6.7,1.2c-3,1-5.9,2.2-8.8,3.4l0,0
		c-0.9,0.4-1.8,0.7-2.6,1.1c-4.6,2.4-9.2,4.7-13.7,7.2c-5.6,3.1-11.1,6.4-16.6,9.7c-7.2,4.4-14.3,8.8-21.5,13.2
		c-4.5,2.8-8.9,5.6-13.3,8.5c-1.3,0.9-2.5,1.8-3.6,2.8c-0.2,0.2-0.2,0.5-0.2,0.8c0,0.3,0.4,0.4,0.6,0.4c1.9,0.2,3.3-0.6,4.8-1.5
		C368.5,242.4,371.9,240.3,375.2,238.4z"/>
	<path class="st13" d="M475.9,236c1.7-0.1,3.4-0.9,4.5-2.2c4.2-4.5,10-7,16.1-7.1c4.6,0,9.1-1.6,12.6-4.6
		c6.1-5.2,12.7-9.9,20.4-12.6c2.8-1,4.3-3.3,5.7-5.8c2.7-5.1,6.1-9.7,11-13c7-4.8,14.5-3.7,19.9,2.8c5.2,6.2,10.2,12.8,16.3,18.2
		c5.3,4.7,10,9.9,14.9,15c0.9,1.1,2,1.9,3.3,2.4c-7.3-12.4-13.5-25.1-15.4-39.6c-0.3-2.1-0.3-4.2,0-6.3c2.6-18-3.5-32.7-16.5-44.9
		c-1.8-1.6-2.7-3.9-2.7-6.2c-0.3-6.9-0.8-13.8-4-20.1c-0.5-0.9-0.6-2-1.9-2.3c-0.7,1-0.1,1.9,0.1,2.8c2.3,7.8-0.3,14.1-6,19.4
		c-3.6,3.4-4,4.1-2.3,8.7c2,5.3,1.2,9.7-3,13.8c-6.5,6.1-11.4,13.2-13.3,22.3c-1.1,5.1-5.1,9-8.6,12.7
		c-12.7,13.3-28.2,22.1-45.8,27.3c-2,0.5-3.7,1.5-5.1,3c-6.3,7.1-14.3,11.9-22.3,16.6c-9.1,5.2-18.7,9.5-28.7,12.8h1.6
		c10.5-3.7,21.2-7.1,32-9.9C464.4,237.6,470.1,236.5,475.9,236z"/>
	<path class="st3" d="M453.9,236.3c8-4.7,16-9.5,22.2-16.6c1.4-1.5,3.1-2.5,5.1-3c17.6-5.2,33.1-14,45.8-27.3
		c3.6-3.7,7.5-7.6,8.6-12.7c2-9.1,6.9-16.2,13.3-22.3c4.3-4.1,5.1-8.4,3-13.8c-1.8-4.6-1.3-5.3,2.3-8.7c5.6-5.3,8.2-11.6,6-19.4
		c-0.2-0.9-0.8-1.8-0.1-2.8c1.3,0.3,1.5,1.4,1.9,2.3c3.2,6.3,3.7,13.2,4,20.1c0,2.4,0.9,4.7,2.7,6.2c13,12.1,19.1,26.9,16.5,44.9
		c-0.3,2.1-0.3,4.2,0,6.3c1.9,14.4,8.1,27.2,15.4,39.6c0.2,0.1,0.5,0.1,0.7,0.1c-0.7-1.2-1.5-2.5-2.1-3.7
		c-3.3-6.5-6.6-12.9-9.2-19.8c-1.9-5.4-3.3-11-4.1-16.6c-0.4-2-0.3-4,0.1-6c0.6-2.4,0.1-5,0.8-7.4c0.1-0.5,0-1-0.1-1.4
		c-0.1-0.8-0.2-1.7-0.3-2.5c-0.1-2.4-0.4-4.8-1-7.1c-0.9-4-2.4-7.9-4.3-11.5c-3.2-6.3-7.7-11.9-13.2-16.4c-0.8-0.6-1.2-1.5-1.1-2.4
		c0-4.3-0.4-8.6-1.1-12.8c-0.6-4.1-1.9-8-4-11.6c-0.3-0.5-0.6-0.9-1-1.4c-0.2-0.3-0.6-0.4-1-0.3c-0.3,0.2-0.6,0.5-0.7,0.8
		c-0.2,0.9-0.1,1.9,0.3,2.8c0.7,1.8,1.1,3.7,1.1,5.6c0,2.5-0.5,4.9-1.6,7.2c-1.3,2.9-3.3,5.4-5.8,7.3c-0.6,0.5-1.2,1-1.7,1.6
		c-0.8,0.9-1.2,2-1.2,3.1c-0.1,1,0.1,1.9,0.5,2.8c0.7,1.5,1.2,3,1.5,4.6c0.8,2.9-0.1,6.1-2.3,8.1c-3.2,3-6.1,6.3-8.7,9.9
		c-2.9,4.1-5.2,8.4-5.9,13.5c-0.1,0.8-0.4,1.7-0.8,2.4c-1.9,3.6-4.4,7-7.2,10c-4.7,5.2-10,9.8-15.8,13.6c-6.2,4.3-12.9,7.8-20,10.7
		c-3.6,1.5-7.2,3.1-11.1,3.8c-1.4,0.3-2.7,1-3.8,2c-1.1,1-2.1,2-3,3.1c-0.6,0.7-1.3,1.4-2,2c-2.3,1.9-4.7,3.6-7.1,5.3
		c-5,3.6-10.2,6.8-15.6,9.6c-6.5,3.3-13.2,6.2-20,8.7c-1.9,0.8-3.8,1.5-5.8,2.1h1.9C435.1,245.9,444.7,241.5,453.9,236.3z"/>
	<path class="st3" d="M466.9,238.1c3.1-0.8,6.4-1.2,9.6-1.3c1.5,0,2.9-0.6,3.8-1.6c0.6-0.8,1.3-1.6,2.1-2.3
		c4.1-3.1,8.6-5.4,13.9-5.2c2.1,0,4.2-0.3,6.2-0.8c2.3-0.3,4.4-1.5,6-3.2c0.5-0.6,1.1-1.1,1.7-1.5c3.5-2.6,7.1-5.2,10.8-7.5
		c2.5-1.7,5.2-3,8-3.9c3.5-1,5.6-3.5,7-6.6c0.2-0.5,0.4-0.9,0.6-1.3c2.8-4.2,5.6-8.4,9.9-11.3c2-1.5,4.3-2.5,6.8-2.9
		c5-0.6,8.9,1.7,12.1,5.2c2.6,2.9,4.9,6.1,7.5,9c3.3,3.6,6.4,7.4,10,10.7c0.9,0.8,1.8,1.6,2.8,2.4c1.3,1.1,2.9,1.8,3.9,3.3
		c2.5,3.5,5.4,6.7,8.6,9.6c0.3,0.4,0.7,0.7,1.1,0.9c0.5,0.3,1.2,0.3,1.7,0l-0.2-0.2c-0.1-0.1-0.1-0.2-0.2-0.3
		c-1.3-0.5-2.5-1.3-3.3-2.4c-4.9-5.1-9.6-10.3-14.9-15c-6.1-5.4-11-11.9-16.3-18.2c-5.5-6.6-12.9-7.6-19.9-2.8
		c-4.8,3.3-8.3,7.9-11,13c-1.3,2.5-2.9,4.8-5.7,5.8c-7.7,2.7-14.3,7.4-20.4,12.6c-3.5,3-8,4.7-12.6,4.6c-6.1,0.1-11.9,2.6-16.1,7.1
		c-1.2,1.3-2.8,2.1-4.5,2.2c-5.8,0.5-11.6,1.6-17.2,3.2c-10.8,2.9-21.4,6.2-32,9.9h2.3c5.1-1.8,10.3-3.4,15.5-5
		C451.8,241.8,459.3,239.7,466.9,238.1z"/>
	<path class="st3" d="M600.9,229.4l0.2,0.2c0.1-0.1,0.3-0.2,0.4-0.4c-0.2,0-0.5-0.1-0.7-0.1C600.7,229.2,600.7,229.3,600.9,229.4z"
		/>
	<path class="st5" d="M630.7,130.4c-1.5,0.1-3.1-0.3-4.3-1.3c-0.7-0.5-1.5-0.8-2.3-1c-0.8-0.2-1.7,0.2-1.9,1.1
		c0,0.2-0.1,0.3-0.1,0.5c-0.1,0.4,0,0.8,0.1,1.1c0.8,2.1,0.4,4.4,0.5,6.5c0.1,1.4-0.6,2.7-1.8,3.4c-1.7,1-2.2,2.5-2.3,4.3
		c0,3.1,0.5,6.1,1.5,9c1,3.2,2.1,6.4,3.3,9.4c1.2,2.9,2.8,5.7,4.7,8.2c3.1,4.5,6.7,8.6,10.6,12.4c2.2,2,4.5,3.8,6.7,5.8
		c2.7,2.3,5.6,4.3,8.5,6.3c0.7,0.4,1.3,1.1,1.8,1.8c0.1,0.2,0,0.4-0.1,0.5c-0.1,0.1-0.3,0.2-0.5,0.2c-0.8,0-1.5-0.3-2.1-0.8
		c-2.5-1.5-5.1-3.1-7.5-4.7c-2.6-1.8-5-3.8-7.6-5.6c-1.9-1.4-3.7-3-5.6-4.5c-3.8-3-6.9-6.6-10.4-9.9c-1.3-1.1-2.4-2.4-3.4-3.9
		c-0.2-0.3-0.6-0.5-0.8-0.7c0,0-0.1,0.1-0.1,0.1c0.1,0.4,0.1,0.7,0.2,1.1c1.4,3.8,3.1,7.4,5.2,10.9c0.5,0.7,0.9,1.5,1.1,2.4
		c1.4-1.4,2.1,0.4,2.8,1c4.4,4.3,9,8.3,13.6,12.4c14.8,12.9,30.7,24.5,47.4,34.8c3.3,2.1,6.7,4.1,10.1,6c1,0.7,2.1,1.1,3.2,1.2
		c0-1-0.8-1.4-1.3-1.8c-7.1-6.7-13.3-14.4-18.2-22.8c-1.3-2.1-2.3-4.4-3.1-6.8c-5-16.7-15.5-31.1-29.8-41
		c-6.4-4.5-9.5-10.6-11.1-17.7c-1.1-4.9-2.8-9.6-5-14c-0.6-1.2-1.4-2.3-1.4-3.7c-0.1,0-0.2,0-0.4,0
		C630.9,130.5,630.8,130.5,630.7,130.4z"/>
	<path class="st5" d="M632.8,134.4c2.2,4.4,3.9,9.1,5,14c1.6,7.1,4.7,13.2,11.1,17.7c14.3,9.9,24.8,24.3,29.8,41
		c0.7,2.4,1.8,4.6,3.1,6.8c4.9,8.4,11.1,16.1,18.2,22.8c0.5,0.5,1.3,0.8,1.3,1.8c-1.2-0.1-2.3-0.5-3.2-1.2c-3.5-1.9-6.8-4-10.1-6
		c-16.7-10.3-32.6-21.9-47.4-34.8c-4.6-4-9.2-8.1-13.6-12.4c-0.7-0.6-1.3-2.4-2.8-1c0,0.1,0,0.1,0,0.2l0,0c0.2-0.1,0.4-0.3,0.5-0.3
		c0.5,0.3,0.9,0.7,1.3,1c1.7,1.9,3.6,3.7,5.5,5.4c3.1,2.3,5.4,5.4,8.5,7.6c2.1,1.5,3.8,3.5,5.8,5.1c3.7,3,7.4,6,11.2,8.9
		c4.6,3.4,9.2,6.8,13.9,10c8.8,6.1,17.8,11.8,27.1,17.2c1.1,0.6,2.3,1,3.5,1.3c0.4,0.1,0.8-0.1,1-0.5c0.2-0.3,0.2-0.8-0.1-1.1
		c-0.3-0.4-0.6-0.7-1-1c-3.8-3.5-7.4-7.2-10.6-11.2c-3.7-4.8-7.1-9.9-10.1-15.2c-0.2-0.4-0.4-0.8-0.6-1.3c-1.8-6.7-4.4-13.1-8-19
		c-3.2-5.3-7-10.3-11.1-14.9c-1.7-1.8-3.5-3.5-5.4-5.1c-3-2.6-6.1-5-9.3-7.2c-0.7-0.5-1.3-1.1-1.8-1.8c-1.8-2.3-3.2-4.8-4.2-7.5
		c-1.1-2.4-1.9-5-2.2-7.6c-0.3-1.9-0.8-3.7-1.5-5.5c-1-2.7-2.4-5.2-3.6-7.8c-0.5-0.8-0.9-1.7-1-2.6c-0.1,0.1-0.3,0.2-0.4,0.2
		C631.4,132,632.2,133.2,632.8,134.4z"/>
	<path class="st5" d="M618,169.9c-0.1-0.4-0.2-0.7-0.2-1.1c-0.4,0.4-0.2,0.9-0.3,1.3l0,0c1.2,4.1,3.3,7.8,5.4,11.5
		c0.3,0.6,0.7,1.2,1.3,1.6l0.1-0.1c-0.2-0.8-0.6-1.7-1.1-2.4C621.1,177.3,619.3,173.7,618,169.9z"/>
	<path class="st5" d="M630.7,130.4c0.1,0.1,0.2,0.1,0.3,0.2c0.1,0,0.2,0,0.4,0c0-0.1,0-0.2,0-0.2h-0.2
		C631.1,130.4,630.9,130.4,630.7,130.4z"/>
	<path class="st5" d="M631.4,130.4c0,0.1,0,0.2,0,0.2c0.2,0,0.3-0.1,0.5-0.2l0,0H631.4z"/>
	<path class="st5" d="M624.1,183.2c0,0,0.1,0.1,0.2,0.1c0-0.1,0-0.1,0-0.2L624.1,183.2z"/>
	<path class="st6" d="M270.1,206.7c1.9-0.4,3.7-0.9,5.6-1.3c2.4-0.6,4.9-0.9,7.4-0.9c0.8,0,1.4,0.1,1.8,1.1c0.5,1,1.5,1.8,2.6,2
		c1.8,0.6,3.8,0.6,5.7,0.2c2.8-0.6,5.5-1.6,8.1-2.8c1.2-0.6,2.3-1.3,3.3-2.2c13.2-12.3,28.9-21.7,46-27.4c0.6-0.2,1.3-0.5,1.9-0.8
		c1.8-1,2.4-2.6,1.3-4.3c-0.1-0.2-0.3-0.5-0.5-0.7c-0.7-1.1-0.7-2.4-0.2-3.6c0.6-1.5,1.5-2.9,2.6-4.1c3.9-4.2,8.6-7.3,13.5-10.1
		c0.8-0.5,1.9-0.2,2.3,0.6c0.2,0.3,0.3,0.7,0.2,1c0,1.1-0.3,2.1-0.8,3c-0.6,1.2-1.4,2.3-2.1,3.4c-0.4,0.8-1.1,1.8-0.3,2.6
		c0.8,0.8,1.8,0.3,2.7,0c0.2,0,0.3-0.2,0.5-0.2c2.7-1.2,5.3-2.8,7.5-4.7c2.9-2.6,5.5-5.6,7.5-9c2.5-4.3,6-8,10.1-10.9
		c1.5-1,2.8-2.3,4-3.7c2.6-3,3.7-6.4,2.6-10.4c-0.2-0.6-0.2-1.3,0-2c0.2-1,0.9-1.9,1.8-2.5c0.9-0.5,1.7-1.2,2.4-2
		c0.3-0.4,0.4-0.9,0.1-1.3c-0.2-0.4-0.8-0.6-1.2-0.5c-2.2,0.3-4.3,1-6.3,2c-1.1,0.5-2.1,1.4-2.8,2.4c-0.6,1-1.4,1.8-2.3,2.5
		c-6.6,5-13.1,10-19.7,14.9c-21.1,15.7-42.6,30.8-65,44.8c-14.2,8.9-28.6,17.4-44,24.1c-0.3,0.1-0.8,0.2-0.8,0.9
		C267.1,207.2,268.6,207.2,270.1,206.7z"/>
	<path class="st5" d="M416.7,246.1c3.9-1.6,7.8-3.2,11.6-4.9c4.7-2.1,9.4-4.2,14-6.5c4.1-2,8.2-4.1,12.2-6.4c3.3-1.9,6.7-3.7,10-5.6
		c0.8-0.5,1.6-1.1,2.3-1.7c0.3-0.2,0.5-0.6,0.3-1c0,0,0,0,0,0c-0.2-0.2-0.4-0.3-0.7-0.4c-1.3-0.1-2.5,0.2-3.6,0.9
		c-3.8,2.1-7.7,3.7-11.9,5c-3.9,1.1-7.7,2.2-11.6,3.1c-2,0.6-4.1,0.8-6.2,0.8c-3.1-0.1-6.3,0.3-9.3,1.1c-3.5,0.8-6.8,2.1-9.8,4
		c-1.7,1.1-3.4,2.1-5.3,2.9c-4.7,2.1-9.5,4-14.4,5.7c-2.7,0.9-5.5,1.6-8.2,2.5c-4,1.4-8.1,2.5-12.1,3.6h34.8
		C411.5,248.1,414.1,247.1,416.7,246.1z"/>
	<path class="st5" d="M438.5,198.6c2.6-1.1,5.5-1.7,8.3-1.7h0.1c0.9-4,0.6-8.1-1.1-11.8c-0.8-1.8-1.9-3.5-3.3-5
		c-1.7-2-3.6-3.7-5.7-5.2c-6.7-4.7-14.2-7.3-22-9.4c-0.7-0.2-1.4-0.3-2-0.4h-2.1c-0.5,0-0.9,0-1.4,0c-1.3-0.1-2.7,0-4,0.3
		c-17.4,2.7-33.8,8.7-49.5,16.4c-2.2,1.1-2.8,1-3.2-0.3c-0.1-0.2-0.1-0.4-0.1-0.6l0,0c-1,0-1.9,0.2-2.7,0.8
		c-1.3,0.6-2.5,1.4-3.9,1.9c-5.1,2.2-10,4.7-14.8,7.5c-1.3,0.8-2.6,1.6-3.9,2.4c-1.4,1-2.7,2.2-3.7,3.5c-0.4,0.5-0.4,1.1,0,1.6
		c0.4,0.5,1,0.6,1.5,0.3c0.4-0.2,0.9-0.4,1.3-0.6c3.1-1.4,6.2-3,9.4-4.3c5.8-2.5,11.7-4.6,17.8-6.4c5.5-1.6,11-2.9,16.7-3.9
		c3.8-0.7,7.7-1,11.6-1.1c2,0,4,0.1,6,0c3.9-0.1,7.8,0.3,11.6,1.1c5.4,1.1,10.7,2.8,15.7,5.2c5.7,2.9,10.9,6.8,15.2,11.5
		c0.5,0.4,0.8,1.1,0.9,1.7C433,199.8,436,199.7,438.5,198.6z"/>
	<path class="st5" d="M355.9,181.9c15.8-7.7,32.1-13.7,49.5-16.4c1.3-0.4,2.7-0.5,4-0.3c0.5,0,0.9,0,1.4,0h2.1
		c-0.5-0.1-1.1-0.2-1.6-0.3c-0.2-0.1-0.5-0.3-0.7-0.5h-1.1c-0.3,0.4-0.8,0.6-1.2,0.6h-2.8c-0.5,0-1,0-1.4,0.1
		c-2.7,0.5-5.4,1.1-8.1,1.6c-7.2,1.4-14.3,3.5-21.1,6.2c-6.8,2.5-13.5,5.5-19.9,8.7c-0.3,0.2-0.7,0.3-1,0.5c-0.6,0.2-1,0-1.2-0.4
		C353.1,182.9,353.7,182.9,355.9,181.9z"/>
	<path class="st5" d="M440,198.9c2.2-0.8,4.4-1.2,6.7-1.2c0.1-0.3,0.1-0.5,0.2-0.8h-0.1c-2.9,0-5.7,0.6-8.3,1.7
		c-2.5,1.1-5.5,1.2-7.2,3.6l0,0C434.1,201.1,437.1,199.9,440,198.9z"/>
	<path class="st14" d="M329.7,213.2c-1.8-0.5-3.6-0.7-5.4-0.6c-0.4,0-0.8,0-1.1-0.1c-0.6,0-1-0.5-1-1c0-0.3,0.1-0.5,0.3-0.7
		c1.3-1.3,2.7-2.4,4.2-3.4c3.4-2.4,7-4.4,10.7-6c6.1-2.6,12.6-4.5,19.2-5.5c2.1-0.4,4.2-0.3,6.2-0.7c2.3-0.3,4.6-0.5,6.8-0.4
		c0.7,0,1.3,0,2-0.1c1.1-0.3,2.3-0.6,2.6-2c0.2-0.7,0.8-1.3,1.5-1.6c2.5-1.3,5.2-2,8-2.1c2.2,0,4.4,0,6.6,0c3.1,0,6.1,0.3,9.1,1
		c2.1,0.4,4.1,0.8,6.2,1.2c0.5,0.2,1.1,0.1,1.5-0.3c-2.6-1-5.4-1.8-8.1-2.3c-3.1-0.7-6.2-0.8-9.3-1.4c-8,0.1-16-0.5-24,1
		c-2.8,0.5-5.6,0.9-8.4,1.5c-9.6,2.2-19,5.5-27.9,9.6c-7.2,3.3-14.2,7.2-20.9,11.4c-0.8,0.5-1.7,0.9-2.6,1.3
		c-1.5,0.6-2.7,0.7-3.9-0.6c-1-1.1-2.6-1.4-4-0.8c-1.2,0.5-2.6,0.7-3.9,1.1c-4.7,1.7-9.2,3.7-13.5,6.1c-6.2,3.3-12.1,6.9-18,10.7
		c-8.3,5.3-16.3,11-24.5,16.5c-0.9,0.6-1.8,1.4-3,2.4c1.4,0.5,2.9,0.4,4.2-0.4c3.3-1.9,6.6-3.8,9.9-5.8c4.6-2.8,9.5-5.4,14.3-7.9
		c4.4-2.3,8.9-4.5,13.4-6.5c4.9-2.3,10.1-4,15.4-5.3c1.1-0.2,2.3-0.3,3.4-0.1c0.6,0,1,0.4,1,1c0,0.2-0.1,0.5-0.2,0.7
		c-0.3,0.5-0.7,0.9-1.1,1.3c-1,0.8-2.1,1.6-3.2,2.4c-4.8,3.3-9.8,6.3-15,8.9c-1.2,0.6-2.3,1.3-3.5,2c-0.5,0.4-0.8,0.8-1.1,1.3
		c-0.2,0.4-0.1,0.9,0.3,1.1c0.1,0.1,0.2,0.1,0.4,0.1c0.4,0,0.8,0,1.1-0.1c2.9-0.7,5.7-1.6,8.4-2.7c3.9-1.6,7.8-3.3,11.6-4.9
		c5.7-2.4,11.4-4.9,17-7.6c2.7-1.3,5.4-2.4,8.3-3.2c2.1-0.7,4.3-1,6.5-0.8c0.9,0,1.6,0.6,1.8,1.5c0.1,0.4,0.1,0.8,0,1.1
		c-0.2,0.7,0.2,1.4,0.9,1.6c0.9,0.6,2.1,0.5,2.9-0.2c1.7-1.8,2.7-4.2,2.6-6.8c0-0.3-0.1-0.6-0.3-0.8
		C333.6,215.2,331.8,213.7,329.7,213.2z"/>
	<path class="st6" d="M623.6,101.9c5.4,7.2,9.9,15,13.6,23.3c1.3,2.7,2.2,5.5,2.6,8.5c0.2,1.5,0.8,2.8,1.9,3.8c1,1,2.3,1.8,3.6,2.2
		c1.7,0.6,3.5,1.1,5.2,1.8c6.1,2.1,12,5,17.4,8.6c3.2,2.1,6,4.8,8.4,7.8c2.5,3.3,5.4,6.2,8.7,8.7c1.7,1.3,3.5,2.4,5.5,3.1
		c1.4,0.5,3,0.6,4.5,0.1c3.4-1.1,7-1.2,10.5-0.4c4.3,0.9,8.5,2.5,12.2,4.8c0.3,0.2,0.7,0.4,1,0.6c0.8,0.4,1.6-0.1,1.6-1.3
		c-0.1-0.3-0.1-0.5-0.2-0.8c-1.7-3.9-4.3-7.3-7.6-9.9c-3.7-2.9-8.4-4-13-3.1c-1.5,0.3-3,0.7-4.4,1.3c-0.7,0.4-1.5,0.3-2.1-0.3
		c-5-3.9-10.5-7.1-16.3-9.5c-1-0.4-1.9-0.9-2.8-1.4c-4.6-2.5-9-5.5-13-9c-7.5-6.5-14.5-13.6-20.8-21.3c-7-8.3-13.5-16.9-19.6-25.9
		c-0.5-0.9-1.2-1.7-2-2.4c-0.2-0.2-0.5-0.3-0.7,0c-0.1,0.2-0.2,0.3-0.1,0.5c0.6,2.1,1.6,4.1,2.9,5.9
		C621.4,99,622.5,100.4,623.6,101.9z"/>
	<path class="st14" d="M372.7,217.9c2.4,0.7,4.1,0,5.2-2.2c0.4-0.9,0.7-1.8,1-2.7c0.2-0.8,0.6-1.6,1.1-2.3c2-2.5,4.7-4.3,7.8-5.1
		c2.4-0.6,4.7-0.4,6.8-0.5c1.8,0,3.3,0,4.9,0c0.8,0,1.5-0.1,2.2-0.5c0.3-0.1,0.4-0.5,0.3-0.7c0-0.1-0.1-0.1-0.1-0.2
		c-0.7-0.8-1.7-1.3-2.7-1.5c-6.3-1.5-12.7-2.5-19.2-2.7c-6.5-0.5-13-0.4-19.5,0.3c-2.9,0.4-5.9,0.8-8.8,1.3
		c-6.6,1.3-12.9,3.6-18.7,6.9c-0.3,0.1-0.5,0.3-0.7,0.5c-0.2,0.2-0.3,0.5-0.3,0.8c0,0.4,0.3,0.7,0.7,0.8c0.4,0.1,0.7,0.1,1.1,0
		c2.1-0.4,4.3-0.7,6.5-0.9c5.3,0,10.7-0.5,16,0.5c4.3,0.8,8.3,2,11.5,5.3C369.2,216.3,370.9,217.4,372.7,217.9z"/>
	<path class="st14" d="M530.7,173.9c-0.5,0.6-1,1.2-1.3,1.9c-2.2,3.6-5.2,6.7-8.7,9c-3.5,2.6-7.3,4.9-11.2,6.9
		c-3.7,1.8-7.4,3.6-10.9,5.7c-5,2.9-9.7,6-14.4,9.4c-1.1,0.7-1.9,1.6-2.4,2.8c-0.3,0.7,0.2,1.4,1.2,1.3c0.2-0.1,0.8-0.2,1.3-0.4
		c2.7-1.1,5.5-2.1,8.2-3.3c5.4-2.4,10.7-5.1,15.7-8.2c4.4-2.8,8.6-6,12.5-9.5c3.4-3.1,6.4-6.6,8.9-10.4c0.9-1.3,1.7-2.8,2.4-4.2
		c0.2-0.3,0.3-0.7-0.1-1C531.6,173.5,531,173.6,530.7,173.9z"/>
	<path class="st15" d="M435.9,123.5c0.4,0,0.7,0,1.1,0c-0.4-0.6,0.2-0.8,0.6-1.1c-0.7-0.1-1.3,0.1-1.9,0.5c-0.1,0-0.2,0.2-0.1,0.2
		S435.8,123.5,435.9,123.5z"/>
	<path class="st15" d="M437,123.5c0.2-0.4,0.4-0.7,0.6-1.1C437.2,122.7,436.7,122.8,437,123.5z"/>
	<path class="st5" d="M352.5,181l0.6-0.6C352.8,180.5,352.6,180.7,352.5,181z"/>
	<path class="st6" d="M112.6,213.9c0.6,0.3,1.3,0.4,1.9,0.3c0.9-0.2,1.9-0.5,2.7-0.9c16.8-7.2,33.4-14.9,49.4-23.5
		c9.3-4.8,18.2-10.3,26.6-16.4c0.4-0.4,0.9-0.7,1.4-0.9c0.5-0.2,1-0.9,1.5-0.3c0.4,0.4,0,0.9-0.2,1.3c-0.6,1.1-1.2,2.2-1.9,3.2
		c-1.9,2.6-3.9,5.2-5.8,7.9c-0.6,0.8-1.2,1.5-1.7,2.3c-0.2,0.3-0.3,0.7-0.3,1.1c-0.1,0.4,0.2,0.5,0.5,0.6c0.8,0,1.5-0.3,2.1-0.7
		c1.8-1,3.5-2,5.2-3.1c0.9-0.7,2-1.1,3.1-1.4c2.1-0.4,3.1,0.4,3.1,2.5c-0.1,1.6-0.4,3.2-1,4.7c-0.4,1.2-1,2.3-1.3,3.5
		c-0.2,0.8-0.5,1.7,0.2,2.4s1.6,0.3,2.5,0.1c0.5-0.2,0.9-0.4,1.2-0.7c0.8-0.6,1.6-1.3,2.4-2.1c5.4-5.1,9.6-11.2,12.4-18.1
		c1.3-3.1,2.3-6.3,3-9.6c0.3-1.4,0.9-2.8,1.8-3.9c1.1-1.4,1.9-1.3,2.7,0.3c0.6,1.3,1.3,2.6,2,3.8c0.5,0.7,1,1.4,1.7,1.9
		c0.6,0.6,1.5,0.6,2.1,0.1c0.1-0.1,0.3-0.3,0.3-0.5c1.8-2.9,2.9-6.3,3-9.8c-0.1-6.2-3.5-10.5-8.4-13.8c-1-0.7-2.3-0.6-3.1,0.2
		c-14.8,10.4-29.7,20.6-44.9,30.4c-20.6,13.3-41.4,26.5-63.6,37.3c-0.4,0.2-0.7,0.4-1,0.6C112.1,212.9,112.3,213.7,112.6,213.9z"/>
	<path class="st6" d="M255.1,141.6c0.7,0.3,1.5,0.4,2.2,0.4c2.5,0.1,5,0.5,7.3,1.3c4.5,1.6,7.5,4.5,7.8,9.6c0,0.3,0,0.6,0.1,0.9
		c0.1,0.5,0.3,0.9,0.6,1.3c0.5,0.8,1.5,1,2.3,0.5c0.1,0,0.1-0.1,0.2-0.1c0.8-0.6,1.4-1.3,1.9-2.1c1.4-2.3,2.5-4.8,3.1-7.4
		c0.5-2.3,0.8-4.7,0.8-7.1c0.1-2.4,1.1-4.2,3.5-5c4-1.4,6.1-4.3,7.3-8.2c0.5-2.2,0.8-4.4,0.8-6.6c-0.1-1.4-0.2-2.9-0.4-4.5
		c-0.2-1.4-0.6-2.8-1.2-4.1c-0.4-0.8-1-0.8-1.5-0.1c-0.2,0.3-0.4,0.6-0.7,0.9c-4.1,5.6-8.8,10.9-13.9,15.6
		c-5.8,5.3-12,9.9-19.4,12.5c-0.4,0.1-0.7,0.3-1,0.5c-0.3,0.2-0.5,0.6-0.5,1C254.5,141.2,254.9,141.4,255.1,141.6z"/>
	<path class="st3" d="M760.5,164.9c-0.3-4.2,0.2-8.4-0.5-12.6c-0.2-0.7,0.1-1.4,0.8-1.7c0.6-0.2,1.1,0.2,1.5,0.6
		c0.6,0.6,1.2,1.2,1.7,1.9c5.8,6.9,11.7,13.7,18.8,19.2c1.2,1,2.4,1.9,3.8,2.6c5.9,2.7,9.7,7.4,13.1,12.8c5.9,9.5,13,18.2,21.1,25.9
		c0.7,0.6,1.2,1.3,1.5,2.1c0.1,0.2,0.1,0.4,0.2,0.5c2.7,1,4.3,3.4,6.5,5.1c1.5,1.1,3,2.1,4.6,3.1l3.2-0.6c-2.8-2.5-5.5-5.1-8.1-7.9
		c-9.4-10.1-18.2-20.8-23.8-33.5c-2.5-6.1-6.4-11.6-11.4-15.9c-10.8-9.3-20.4-20-28.6-31.7c-1.5-2.2-2.9-4.5-4.1-6.9
		c-4.9-9.8-12.8-17.6-22.7-22.3c-0.9-0.4-1.8-1.2-3.1-0.7c0.5,1.7,1.7,2.8,2.6,4.1c6.3,9,11.9,18.5,15.4,29.1c0.9,2.4,1.4,5,1.4,7.6
		c0.1,2.3,0.7,4.6,1.7,6.6c2.1,4.8,4.1,9.7,4.6,15c0.1-0.2,0.3-0.4,0.5-0.6v-0.1C760.4,166.4,760.6,165.4,760.5,164.9z"/>
	<path class="st3" d="M821.4,206.6c-4-4.8-7.6-9.8-10.9-15.1c-3.1-4.9-5.7-10.2-7.6-15.7c-0.8-2.9-2.7-5.3-5.3-6.8
		c-1.8-1.1-3.5-2.4-4.9-3.9c-4.6-4.7-9.4-9.3-13.8-14.2c-3.6-4.1-7.3-8.1-10.5-12.5c-2.3-2.8-4.3-5.9-6-9.1
		c-0.8-1.7-1.6-3.4-2.6-5.1c-2-3.1-4.3-6.1-6.9-8.8c-2-2.1-4.1-4-6.4-5.7c-3.1-2.4-6.6-4.3-10.2-5.7c-0.7-0.3-1.7-1-2.3,0.1
		c-0.5,0.9,0.3,1.4,0.8,2c3.6,4.7,6.9,9.6,9.8,14.8c3.2,5.8,6.3,11.6,8.2,18c0.8,2.3,1.1,4.6,1.1,7c-0.1,1.8,0.3,3.6,1.2,5.3
		c1.8,3.7,3.2,7.6,4.3,11.5c0.6,1.8,0.9,3.7,0.9,5.6l0,0c0.4-0.3,0.5-0.7,0.6-1.1c-0.5-5.3-2.5-10.2-4.6-15c-1-2.1-1.6-4.3-1.7-6.6
		c0-2.6-0.5-5.2-1.4-7.6c-3.5-10.6-9.1-20-15.4-29.1c-0.9-1.3-2.2-2.4-2.6-4.1c1.3-0.5,2.2,0.3,3.1,0.7c9.8,4.7,17.8,12.6,22.7,22.3
		c1.2,2.4,2.6,4.7,4.1,6.9c8.2,11.7,17.8,22.3,28.6,31.6c5,4.3,8.9,9.8,11.4,15.9c5.6,12.8,14.4,23.4,23.8,33.5
		c2.6,2.8,5.3,5.4,8.1,7.9l0.9-0.1c-0.5-0.5-1.1-0.9-1.6-1.4C830.9,217.4,826,212.1,821.4,206.6z"/>
	<path class="st3" d="M822.4,215.7c-0.3-0.8-0.8-1.5-1.5-2.1c-8.1-7.7-15.2-16.4-21.2-25.9c-3.4-5.4-7.2-10.1-13.1-12.8
		c-1.3-0.7-2.6-1.6-3.8-2.6c-7.2-5.5-13-12.3-18.8-19.2c-0.5-0.7-1.1-1.3-1.7-1.9c-0.5-0.4-1-0.8-1.5-0.6c-0.6,0.3-1,1-0.8,1.7
		c0.7,4.2,0.2,8.4,0.5,12.6c0,0.6-0.2,1.5,0.6,1.7c0-2.6,0-5.1,0-7.7c0-2.2,0.2-4.4-0.5-6.5c-0.1-0.4-0.4-1.1,0.5-1.4
		c2,1.4,3.2,3.5,4.7,5.3c2.7,3.1,5.6,6,8.2,9.2c1.5,1.8,3.5,2.9,5.1,4.5c2.9,2.9,6.3,5.3,9.9,7.2c3.3,1.7,6.1,4.4,7.9,7.6
		c0.4,0.7,0.8,1.3,1.2,1.9c3.3,5.2,7,10.2,10.9,15c2.2,2.9,4.6,5.6,7.1,8.2c1.6,1.6,3.2,3.2,4.8,4.8c0.4,0.4,0.7,0.9,1.1,1.3
		c0.2,0.1,0.3,0.1,0.5,0.2C822.5,216.1,822.4,215.9,822.4,215.7z"/>
	<path class="st3" d="M829.1,221.3c-2.2-1.6-3.8-4.1-6.5-5.1c0,0.1,0.1,0.2,0.1,0.4c1.8,1.6,3.5,3.1,5.3,4.7c1.4,1.2,3,2.3,4.6,3.3
		l1-0.2C832.1,223.4,830.6,222.4,829.1,221.3z"/>
	<path class="st3" d="M822.7,216.6c0-0.1-0.1-0.2-0.1-0.4s-0.3-0.1-0.5-0.2l0,0C822.3,216.2,822.5,216.4,822.7,216.6z"/>
	<path class="st3" d="M760.7,167.2c0,0.3,0,0.6,0,0.9c0.3-0.2,0.4-0.5,0.4-1.4C760.9,166.8,760.7,167,760.7,167.2z"/>
	<path class="st3" d="M760,168.3c0.2-0.1,0.5-0.1,0.7-0.2c0-0.3,0-0.6,0-0.9C760.5,167.6,760.4,168.1,760,168.3z"/>
	<path class="st5" d="M856.1,213.4c-1.2-1.9-2.6-3.8-4-5.6c-2-2.4-4.1-4.7-6.5-6.9c-1.6-1.4-3.2-2.7-4.9-4c-1-0.9-2.1-1.6-3.2-2.4
		c-1.1-0.7-2.1-1.7-2.8-2.8c-0.4-0.6-0.8-1.1-1.2-1.6c-0.5,0.3-0.8,0.8-1,1.4c-0.6,1.5-1.6,2.8-2.9,3.9c-0.3,0.3-0.7,0.7-1,1
		c-1.6,1.5-1.7,4.1-0.1,5.7c0,0,0.1,0.1,0.1,0.1c0.5,0.6,1.1,1.1,1.7,1.5c2.6,1.5,5.2,3.3,7.5,5.2c3.5,2.7,6.2,6.2,8,10.3
		c0.4,0.9,0.9,1.8,1.5,2.7l0.4-0.1L856.1,213.4z"/>
	<path class="st3" d="M862.1,197.3c-1.8-1.3-3.3-2.9-4.7-4.6c-1.8-2.2-3.7-4.4-5.7-6.4s-4.2-4.2-6.3-6.3c-2.7-2.7-5.7-5.1-9-7.1
		c-1.8-1.2-3.8-2.2-5.9-2.8c-0.5-0.2-1.1-0.6-1.5,0.2c-0.2,0.5-0.1,1.2,0.2,1.6c0.2,0.3,0.5,0.6,0.7,0.9c3.1,3.1,4.1,7,4.6,11.2
		c0.2,1,0,1.9-0.4,2.8c-0.6,1.1-0.8,2.4-0.6,3.6l0,0c0.2-0.1,0.4-0.1,0.5,0c7.9,7.2,16.8,13.3,22.6,22.5l8.1-8.4l8.5,2.4
		c-3.9-2.7-7.5-5.7-10.9-9C862.3,197.5,862.2,197.4,862.1,197.3z"/>
	<path class="st3" d="M837.6,194.6c1.1,0.7,2.2,1.5,3.2,2.4c1.7,1.3,3.3,2.6,4.9,4c2.3,2.1,4.5,4.4,6.5,6.9c1.4,1.8,2.8,3.7,4,5.6
		l0.7-0.7c-5.8-9.2-14.7-15.3-22.6-22.5c-0.1-0.1-0.4-0.1-0.5,0l0,0c0.4,0.5,0.8,1,1.2,1.6C835.5,193,836.4,193.9,837.6,194.6z"/>
	<path class="st6" d="M816,195.1c2.4,3.7,5.2,7.1,8.4,10.2c1.4,1.4,3,2.6,4.8,3.6c0.6,0.3,1.2,0.5,1.9,0.6c0.3,0.1,0.7-0.5,0.6-0.8
		c-0.3-0.9-0.9-1.7-1.6-2.3c-0.7-0.5-1.4-1.1-2-1.6c-1.6-1.3-2.8-2.9-3.7-4.7c-1.5-3-0.6-6.7,2-8.8c1-0.9,2-1.8,2.9-2.8
		c1.7-1.8,2.6-4.2,2.6-6.7c0-2-0.5-4.1-1.5-5.8c-1.7-3-4-5.6-6.8-7.7c-1-0.9-2.5-1.2-3.8-0.8c-1.4,0.5-2.8,1.1-4.2,1.9
		c-2.5,1.4-5.6,1.2-7.8-0.6c-0.8-0.6-1.5-1.2-2.3-1.7s-1.6-1.3-2.6-0.4s-0.2,1.6,0,2.4C806.3,178.2,810.7,187,816,195.1z"/>
	<path class="st8" d="M578.1,236.1c-5.3-2.1-10.9-3.6-16.5-4.5c-1.4-0.3-2.8-0.5-4.2-0.5c-2.3,0-4.5-0.9-6.8-0.7
		c-0.4,0-0.7-0.3-0.8-0.7c0,0,0,0,0,0c0-0.4,0.2-0.8,0.6-0.9c1.9-0.7,3.8-1.2,5.8-1.2c2.5,0,5,0,7.5,0c0.6,0,1.2,0,1.7,0.1
		c3.2,0.8,6.5,1.4,9.7,2.4c6.9,2.1,13.4,5,19.7,8.6c4.1,2.4,8.3,4.8,12.2,7.5c1.3,1,2.7,1.8,4.2,2.5c0.4,0.2,0.9,0.4,1.4-0.1
		c-0.6-0.9-1.4-1.8-2.3-2.5c-3.1-2.6-6.4-4.9-9.2-7.7c-4.2-4-8.7-7.8-11.7-13c-0.4-0.6-1-1.2-1.4-1.8c-2.5-3.7-6.1-6.4-10.2-8
		c-0.6-0.3-1.2-0.6-1.7-1c-2.1-1.6-4.1-3.4-5.9-5.4c-2.7-2.4-4.9-5.3-6.6-8.6c-0.7-1.5-2-2.6-3.6-3.1c-2.2-0.7-4.6-0.6-6.8,0.2
		c-3.5,1.4-6.1,4.1-9,6.5c-1.1,1.9-3.1,3.2-4.3,5c-1.8,2.6-4.2,4.7-6.9,6.3c-2.5,1.6-5.3,2.6-8.3,3c-2.2,0.3-4.3,1-6.1,2.2
		c-3,2-5.6,4.6-7.6,7.7c-2.1,3.2-5.2,5.4-8.9,6.3c-2.5,0.7-5.1,0.5-7.6,1s-4.9,0.8-7.3,1.4c-2.1,0.5-4,1.2-5.9,2.2
		c-0.7,0.3-1.1,1.1-1,1.9c0,0.7,0.5,1.3,1.2,1.4c1.6,0.5,3.2,1.4,4.5,2.4c1.2,0.9,1.4,1.6,0.7,2.9c-0.3,0.5-0.6,0.9-0.8,1.4h26.5
		c5.9-2,11.7-4.1,17.8-5.2c2.2-0.4,4.5-1.2,6.7-1.3c2.7-0.1,5.3-1,8-0.7c0.6,0.1,1.1,0,1.7-0.2c1-0.3,2.1-0.4,3.1-0.4
		c3,0,5.9,0,8.9,0c0.8-0.1,1.5,0,2.3,0.2c1.1,0.3,2.3,0.4,3.4,0.4c0.8,0,1.5,0,2.3,0.1c3.2,0.5,6.4,1.1,9.5,1.6
		c6.2,1.2,12.3,2.9,18.1,5.3l0.4,0.2h6.3c-4.3-3.5-8.9-6.6-13.8-9.2C584.2,238.5,581.2,237.2,578.1,236.1z"/>
	<path class="st8" d="M719.2,238.5L719.2,238.5c-0.1,0.5,0.2,0.9,0.5,1.1C719.4,239.3,719.5,238.8,719.2,238.5L719.2,238.5z"/>
	<polygon class="st8" points="719.2,238.5 719.2,238.5 719.2,238.5 	"/>
	<path class="st8" d="M719.2,238.4c0.3,0.3,0.2,0.8,0.5,1.2l0,0C719.8,239.1,719.6,238.7,719.2,238.4z"/>
	<polygon class="st8" points="719.2,238.5 719.2,238.5 719.2,238.5 	"/>
	<polygon class="st8" points="719.2,238.5 719.2,238.5 719.2,238.5 	"/>
	<polygon class="st8" points="719.2,238.5 719.2,238.5 719.2,238.5 719.2,238.5 	"/>
	<path class="st7" d="M618.9,168.8c0.5,0.5,0.9,1,1.3,1.5c9.7,10.7,21.1,19.8,33.6,27.1c-0.7-0.9-1.6-1.6-2.6-2.2
		c-0.9-0.7-1.9-1.4-2.8-2c-9.6-6.7-17.6-15.4-23.6-25.5c-3.3-5.9-5.6-12.4-6.8-19.1c-0.6-3.2-0.5-6.4,2.5-8.6
		c0.9-0.8,1.4-1.9,1.3-3.1c0.1-1.9-0.1-3.8-0.3-5.7c-0.4-3.1,1.3-4.4,4.1-3.1c1.4,0.6,2.8,1.3,4.3,1.9c-1.1-1-1.7-2.5-2.6-3.7
		c-5.2-6.9-12.1-11.7-19.7-15.4c-6.9-3.4-12.8-8-18.4-13.1c-1.7-1.6-3.6-3.2-5.5-4.6c-0.4,1,0.3,1.6,0.7,2.2c2.5,3.7,3.8,8,3.8,12.4
		c-0.1,3.1,1.5,5.9,4.2,7.4c12,6.9,17.6,18,20.1,30.9c1.2,5.8,2.6,11.6,4,17.3c0.4,1.6,0.6,3.3,0.9,4.9
		C618.1,168.1,618.5,168.5,618.9,168.8z"/>
	<path class="st8" d="M617.4,168.5c0.1-0.1,0.1-0.1,0.2-0.2c-0.3-1.6-0.5-3.3-0.9-4.9c-1.4-5.8-2.9-11.5-4-17.3
		c-2.5-12.9-8.1-24-20.1-30.9c-2.7-1.5-4.3-4.3-4.2-7.4c0-4.4-1.4-8.7-3.9-12.4c-0.4-0.6-1.1-1.1-0.7-2.2c1.9,1.4,3.8,3,5.5,4.6
		c5.6,5.1,11.5,9.7,18.4,13.1c7.6,3.7,14.5,8.5,19.7,15.4c0.9,1.2,1.4,2.7,2.6,3.6c0.4,0.2,0.8,0.3,1.3,0.4c-0.6-0.6-1.2-1.3-1.6-2
		c-1.5-2.6-3.3-4.9-5.4-7c-0.8-0.9-2-1.5-2.9-2.3c-4.4-3.9-9.4-7.2-14.8-9.6c-1.2-0.6-2.4-1.2-3.5-1.9c-2.4-1.5-4.7-3.2-6.9-5
		c-2.6-2-5-4.1-7.4-6.3c-1.4-1.4-3-2.6-4.5-3.9c-0.3-0.4-0.9-0.4-1.3-0.2c-0.5,0.4-0.6,1-0.4,1.5c0.3,0.6,0.6,1.2,1,1.7
		c2.7,3.7,4.1,8.2,4,12.9c0,1.5,0.5,3,1.3,4.3c1.1,2,2.8,3,4.6,4.1c1.3,0.7,2.5,1.4,3.6,2.3c3.8,3.5,7.4,7.2,9.7,11.9
		c2.7,5.5,4.6,11.3,5.5,17.4c0.2,1.5,0.5,3,0.8,4.5c0.8,3.1,1.8,6.2,2.5,9.4c0.6,2.4,1.4,4.8,1.3,7.3c0,0.2,0.3,0.5,0.5,0.7
		C617,169.6,617,168.9,617.4,168.5z"/>
	<path class="st8" d="M625.7,128.1c-2.8-1.3-4.5,0-4.1,3.1c0.3,1.9,0.4,3.8,0.3,5.7c0.1,1.2-0.4,2.3-1.3,3.1c-3,2.2-3.1,5.4-2.5,8.6
		c1.2,6.7,3.5,13.2,6.8,19.1c6,10.1,14.1,18.7,23.7,25.5c0.9,0.7,1.9,1.4,2.8,2c1,0.6,1.9,1.3,2.6,2.2
		c-12.5-7.2-23.9-16.4-33.6-27.1c-0.4-0.5-0.8-1-1.3-1.5c-0.4-0.3-0.8-0.7-1.3-0.5l0.1,0.5c0,0,0.1-0.1,0.1-0.1
		c0.3,0.2,0.7,0.4,0.8,0.7c0.9,1.4,2.1,2.7,3.4,3.9c3.5,3.3,6.6,6.9,10.4,9.9c1.9,1.5,3.7,3,5.6,4.5c2.5,1.9,5,3.8,7.6,5.6
		c2.4,1.7,5,3.2,7.5,4.7c0.6,0.5,1.3,0.8,2.1,0.8c0.2,0,0.4-0.1,0.5-0.2c0.1-0.2,0.1-0.4,0.1-0.5c-0.4-0.8-1-1.4-1.8-1.8
		c-3-1.9-5.8-4-8.5-6.3c-2.2-1.9-4.6-3.7-6.7-5.8c-3.9-3.8-7.4-7.9-10.6-12.4c-1.9-2.5-3.5-5.3-4.7-8.2c-1.2-3.1-2.3-6.3-3.3-9.4
		c-1.1-2.9-1.6-5.9-1.5-9c0.1-1.9,0.6-3.4,2.3-4.3c1.2-0.7,1.9-2,1.8-3.4c0-2.2,0.3-4.4-0.5-6.5c-0.1-0.4-0.1-0.8-0.1-1.1
		c0-0.9,0.7-1.6,1.5-1.6c0.2,0,0.3,0,0.5,0.1c0.8,0.2,1.6,0.5,2.3,1c1.2,0.9,2.8,1.4,4.3,1.3c-0.3-0.1-0.5-0.3-0.7-0.5
		C628.5,129.4,627.1,128.7,625.7,128.1z"/>
	<path class="st8" d="M630.7,130.4c0.2,0,0.4,0,0.5-0.1c-0.4-0.1-0.8-0.3-1.3-0.4C630.2,130.1,630.4,130.3,630.7,130.4z"/>
	<path class="st8" d="M617.7,168.8l-0.1-0.4c-0.1,0-0.2,0.1-0.2,0.2c-0.4,0.5-0.4,1.1,0,1.6l0,0
		C617.5,169.7,617.4,169.2,617.7,168.8z"/>
	<path class="st16" d="M448.1,194c0,1-0.2,2-0.6,2.9c6.2,0,12.4,0,18.5,0c3.2,0,6.3-0.5,9.3-1.6c0.7-0.2,1.7-0.4,1.6-1.4
		s-0.9-1.1-1.6-1.4c-3.7-1.7-7.8-2.1-11.7-2.5c-3.8-0.3-7.2-2.4-9.1-5.7c-7.2-11.4-17.9-16.8-30.8-18.6c-2.7-0.4-5.3-0.5-8-0.5
		c8.1,1.6,15.8,4.9,22.4,9.8C444.5,179.6,448.6,185.6,448.1,194z"/>
	<path class="st8" d="M423.6,165.7c12.9,1.9,23.6,7.3,30.8,18.6c1.9,3.3,5.3,5.4,9.1,5.7c4,0.4,8,0.7,11.7,2.5
		c0.7,0.3,1.6,0.6,1.6,1.4c0,0.9-0.9,1.1-1.6,1.4c-3,1.1-6.1,1.6-9.3,1.6c-6.2,0-12.4,0-18.5,0c-0.2,0.3-0.4,0.5-0.7,0.8
		c5.3,0,10.5,0,15.8,0c2.9,0.1,5.7-0.1,8.6-0.5c2-0.4,3.9-1,5.7-1.7c0.5-0.2,1-0.6,1.4-1c0.3-0.2,0.5-0.7,0.2-1
		c0-0.1-0.1-0.1-0.2-0.2c-0.3-0.3-0.7-0.6-1.1-0.9c-3-1.6-6.4-2.6-9.8-2.8c-2-0.1-3.9-0.9-6-0.7c-0.4,0-0.8-0.1-1.1-0.4
		c-2-1-3.7-2.4-5-4.2c-1.4-2.2-3-4.2-4.6-6.2c-1.6-1.9-3.4-3.5-5.4-5c-3.5-2.7-7.4-4.8-11.6-6c-5.5-1.8-11.3-2.8-17.1-2.9
		c-2,0-4,0-6,0l0,0c1.7,0.2,3.4,0.5,5,0.8C418.2,165.1,420.9,165.3,423.6,165.7z"/>
	<path class="st8" d="M448.1,194c0.5-8.4-3.6-14.5-10.1-19.1c-6.7-4.8-14.3-8.2-22.4-9.8h-2.7c0.7,0.1,1.4,0.2,2,0.4
		c7.8,2.1,15.3,4.7,22,9.4c2.1,1.5,4,3.2,5.7,5.2c1.3,1.5,2.4,3.2,3.3,5c1.6,3.7,2,7.9,1.1,11.8h0.5C447.9,196,448.1,195,448.1,194z
		"/>
	<path class="st8" d="M412.9,165.1h2.7c-1.6-0.3-3.3-0.6-5-0.8c0.2,0.2,0.4,0.4,0.7,0.5C411.8,164.9,412.3,165,412.9,165.1z"/>
	<path class="st8" d="M447.4,196.9h-0.5c-0.1,0.2-0.1,0.5-0.2,0.8C447,197.4,447.2,197.2,447.4,196.9z"/>
	<path class="st8" d="M409.4,164.3h-2.8c-0.5,0-0.9,0.2-1.2,0.6C406.6,164.2,408.1,165.1,409.4,164.3z"/>
	<path class="st8" d="M408.2,164.9c0.5,0,0.9-0.2,1.2-0.6c-1.3,0.8-2.8-0.2-4,0.6L408.2,164.9L408.2,164.9z"/>
	<path class="st17" d="M807.5,238h-0.1l0.5,0.4L807.5,238z"/>
	<path class="st17" d="M798.6,238.5l0.8,1.1C799,238.9,798.8,238.5,798.6,238.5z"/>
	<path class="st17" d="M1011.2,248.1c0.9,0.3,1.8,0.6,2.7,1l155.5-0.1h10.2l-62.1-65.8l-11.9-10l-14.6,14l-8.3-1.6l-3.3-8.5
		l-9.2-13.1l-21,1.3l-12.1-3.7l-19.2-14.9l-12.7,4.9l-27.5,26.9l-13.1-11.1l-13.5,17.9l-7.4-4.8l-27.2,19.7l-3.9,2.5
		c13.3,7.6,26.8,14.9,40.6,21.5C972,233.4,991.4,241.4,1011.2,248.1z"/>
	<path class="st17" d="M805.1,230.7l-3.3,3.2l3.5,2.5c0,0,0.8,0.6,2.1,1.5h0.1l0.4,0.4c4.4,3.3,8.6,6.8,12.5,10.7h14
		c-1.7-2.8-4-7.5-4.9-8c-2.8-2.2-5.7-4.3-8.5-6.4l-0.1,0.1L805.1,230.7z"/>
	<path class="st18" d="M907.3,211.8c-1.7-0.9-3.3-1.7-5-2.6l-11,2.6l-18-5.1c2.8,2,5.6,3.8,8.5,5.6c3.7,2.3,7.5,4.6,11.4,6.6
		c3,1.6,6,3.3,9.1,4.8c8,3.9,16.1,7.5,24.4,10.7c5.9,2.3,11.8,4.5,17.8,6.5c0.3,0.1,0.7,0.3,1,0.5c2.9,0.3,5.8,1.2,8.7,1.8
		c0.5,0.1,0.9,0.3,1.3,0.6c0.4,0.2,0.8,0.5,0.7,1.1s-0.6,0.5-0.9,0.5c-0.7,0-1.3,0-2,0c-3.2,0-6.3,0-9.5,0c-2,0-4,0.2-6-0.5
		c-0.4-0.1-0.8-0.1-1.1-0.1c-2.8-0.1-5.5-0.5-8.2-1c-3.6-0.5-7.1-1.2-10.7-1.9c-6.1-1.2-12.1-2.5-18-4.2c-2.9-0.8-5.9-1.5-8.8-2.5
		c-0.9-0.3-1.8-0.5-2.7-0.9c-2.5-1-5.1-1.5-7.8-1.6c-3.4,0-6.9,0-10.3,0c-1.2-0.1-2.5,0-3.7,0.4c-0.5,0.2-0.9,0.2-1.4,0.1
		c-4.5-0.5-8.7-2.4-12-5.4c-1.5-1.4-2.8-2.8-4.3-4.3c-0.5-0.5-0.9-1-1.3-1.6l-9.8,1.7c0.7,0.6,1.4,1.2,2.1,1.8
		c0.5,0.5,0.9,1,1.3,1.5l0.5,0.6c0,0.2,0,0.4,0,0.5l0,0c2.3,1.9,4.8,3.5,7.4,4.8c3.9,2.2,8,4.1,12.2,5.6c0.3,0.1,0.6,0.2,0.8,0.3
		l1.3-0.1c24.9,1.8,49.7,4.6,74.2,9.6l2.9,0.6h60.5c-13.8-4.1-27.3-8.8-40.7-14C942.1,228.2,924.5,220.5,907.3,211.8z"/>
	<path class="st18" d="M915.8,215.1c7.6,3.6,15.2,7.2,23,10.5c7.9,3.4,15.9,6.6,23.9,9.8c4.6,1.8,9.3,3.4,14,5.1
		c3.2,1.2,6.5,2.4,9.8,3.4c5.6,1.8,11.2,3.6,16.9,5.3h10.5c-0.9-0.4-1.8-0.7-2.7-1c-19.8-6.8-39.2-14.8-58-24
		c-13.8-6.6-27.3-13.9-40.6-21.5l-9.3,6.1C907.4,211,911.5,213.1,915.8,215.1z"/>
	<path class="st18" d="M825.1,237l0.2,0.1c3.7,2.9,9.6,7.7,14.8,12h23c0.1-0.3,0.3-0.5,0.5-0.6c1.2-0.6,2.5-0.9,3.9-0.9
		c4.6,0,9.2,0,13.8,0c3.3,0,6.7,0,10.1,0c1.4-0.1,2.9,0,4.2,0.4c0.2,0.1,0.4,0.1,0.6,0.1c3.3-0.3,6.5,0.5,9.7,0.7
		c0.9,0,1.8,0.1,2.7,0.3h27.6c-3.4-0.7-6.9-1.4-10.3-2c-5.5-1-11.1-1.9-16.6-2.8c-3.6-0.5-7.2-0.9-10.8-1.3c-2.5-0.3-4.9-0.7-7.4-1
		c-1.9-0.2-3.8,0-5.7-0.6c-3.1,0-6.1-0.2-9.1-0.7c-3.8-0.4-7.6-0.1-11.4-1c-0.7-0.1-1.3-0.1-2-0.1l0,0c-2.7,0.1-5.4,0-8-0.4
		c-1.9-0.4-4-0.3-6-0.6c-4.1-0.6-8.2-1.5-12.3-2.6c-3.2-0.9-6.4-1.9-9.5-3.2c-1-0.4-1.9-0.8-2.8-1.2l-3,2.7l2.4,1.7L825.1,237z"/>
	<path class="st17" d="M829.4,241.1c0.9,0.5,3.2,5.2,4.9,8h5.8c-5.2-4.2-11.1-9.1-14.8-12l-0.2-0.1l-1.3-1l-2.4-1.7l-0.6,0.5
		C823.7,236.9,826.5,239,829.4,241.1z"/>
	<path class="st17" d="M863.3,238.8l-1.3,0.1c0.3,0.2,0.6,0.4,0.9,0.7l0,0c0.7,0,1.3,0,2,0.1c3.8,0.8,7.6,0.5,11.4,1
		c3,0.5,6.1,0.8,9.1,0.7c1.8,0.7,3.8,0.4,5.7,0.6c2.5,0.3,4.9,0.7,7.4,1c3.6,0.4,7.2,0.8,10.8,1.3c5.5,0.8,11.1,1.8,16.6,2.8
		c3.5,0.6,6.9,1.3,10.3,2h4.2l-2.9-0.6C913,243.4,888.2,240.6,863.3,238.8z"/>
	<path class="st17" d="M902.3,209.1c1.7,0.9,3.3,1.8,5,2.6c17.2,8.7,34.8,16.5,52.7,23.4c13.4,5.2,27,9.9,40.7,14h2.5
		c-5.7-1.7-11.3-3.5-16.9-5.3c-3.3-1-6.5-2.2-9.8-3.4c-4.7-1.7-9.4-3.3-14-5.1c-8-3.1-16-6.4-23.9-9.8c-7.7-3.3-15.3-6.9-23-10.5
		c-4.2-2-8.4-4.2-12.5-6.4l-0.4,0.2L902.3,209.1z"/>
	<path class="st17" d="M867.9,248.5c-0.6,0-1.1,0.1-1.7,0.2c-0.4,0-0.7,0.2-1,0.4h34C888.7,248.4,878.3,248.4,867.9,248.5z"/>
	<path class="st17" d="M866.1,248.7c0.6-0.1,1.1-0.2,1.7-0.2c10.5-0.2,20.9-0.1,31.3,0.6h9.5c-0.9-0.1-1.8-0.2-2.7-0.3
		c-3.2-0.2-6.4-0.9-9.7-0.7c-0.2,0-0.4,0-0.6-0.1c-1.4-0.4-2.8-0.6-4.2-0.4c-3.3,0-6.7,0-10.1,0c-4.6,0-9.2,0-13.8,0
		c-1.3,0-2.7,0.3-3.9,0.9c-0.3,0.1-0.5,0.3-0.5,0.6h2C865.4,248.9,865.7,248.8,866.1,248.7z"/>
	<path class="st17" d="M831.3,230.1c0.3,0,0.5-0.1,0.7-0.3c0.2-0.3,0-0.5-0.2-0.8c-0.7-0.7-1.4-1.4-2.1-2.1l-1.9,1.7
		c0.2,0.1,0.4,0.3,0.5,0.4C829.3,229.5,830.3,229.9,831.3,230.1z"/>
	<path class="st18" d="M841.2,228.3c-0.5,0.2-1,0.2-1.5,0c-2.4-1.2-4.8-2.4-7.1-3.8l-0.3,0.1l-2.1,1.8c0.4,0.4,0.8,0.8,1.2,1.2
		c0.6,0.7,1.6,1.4,0.8,2.5s-1.8,0.4-2.7,0.1c-0.8-0.3-1.5-0.7-2.2-1.2l-2.3,2c9,4,18.7,6.5,28.5,7.3c2.3,0.2,4.7,0.5,7,0.5
		c-6.9-2.3-13.4-5.7-19.2-10.1C841.3,228.6,841.2,228.5,841.2,228.3z"/>
	<path class="st17" d="M861.2,238.6c-4.2-1.5-8.3-3.4-12.2-5.6c-2.7-1.3-5.1-2.9-7.4-4.8c-0.1,0.1-0.3,0.2-0.4,0.2
		c0.1,0.1,0.2,0.3,0.3,0.4c5.8,4.5,12.3,7.9,19.2,10.1c0.5,0,0.9,0,1.4,0C861.8,238.8,861.5,238.7,861.2,238.6z"/>
	<path class="st17" d="M836.7,236c4,1.1,8.1,2,12.3,2.6c2,0.3,4,0.2,6,0.6c2.6,0.4,5.3,0.6,8,0.4l0,0c-0.8-0.2-1.5-0.5-2.3-0.7
		c-2.4,0-4.7-0.3-7-0.5c-9.9-0.8-19.5-3.3-28.5-7.3l-0.7,0.6c0.9,0.4,1.9,0.9,2.8,1.2C830.4,234.1,833.5,235.1,836.7,236z"/>
	<path class="st17" d="M862,238.9c-0.5,0-0.9,0-1.4,0c0.8,0.2,1.5,0.5,2.3,0.7C862.7,239.3,862.4,239.1,862,238.9z"/>
	<path class="st17" d="M831.9,229c0.2,0.2,0.4,0.5,0.2,0.8c-0.2,0.2-0.4,0.3-0.7,0.3c-1-0.2-2-0.6-2.9-1.1c-0.2-0.1-0.4-0.2-0.5-0.4
		l-0.5,0.5c0.7,0.5,1.4,0.9,2.2,1.2c0.9,0.4,1.9,0.8,2.7-0.1s-0.2-1.8-0.8-2.5c-0.4-0.4-0.8-0.9-1.2-1.2l-0.5,0.5
		C830.4,227.6,831.1,228.3,831.9,229z"/>
	<path class="st18" d="M807.4,238c-0.2,0-0.5,0-0.7-0.1c-1.9-1-3.7-2.1-5.4-3.4l-3.4,3.2c0.2,0.2,0.5,0.5,0.7,0.8
		c0.2,0,0.4,0.4,0.8,1.1c2,2.8,4.2,6,6.7,9.5h13.9c-5.8-5.4-9.8-8.8-11.9-10.7L807.4,238z"/>
	<path class="st17" d="M807.9,238.4c2.1,2,6.1,5.3,11.9,10.7h0.5C816.5,245.3,812.3,241.7,807.9,238.4z"/>
	<path class="st17" d="M806.6,237.9c0.2,0,0.5,0.1,0.7,0.1c-1.3-0.9-2-1.5-2.1-1.5l-3.5-2.5l-0.6,0.6
		C802.9,235.8,804.8,236.9,806.6,237.9z"/>
	<path class="st17" d="M786.2,249.1h9.6c-1.4-2.2-2.7-4.2-3.7-5.7L786.2,249.1z"/>
	<path class="st17" d="M798.6,238.5L798.6,238.5c-0.5,0.1-1,0-1.4-0.1l-4.9,4.8c1.3,1.6,2.9,3.6,4.6,5.9h7c-2.2-4.2-3.6-7.8-4.4-9.5
		L798.6,238.5z"/>
	<path class="st17" d="M803.8,249.1h2.2c-2.4-3.5-4.7-6.8-6.7-9.5C800.2,241.3,801.6,244.9,803.8,249.1z"/>
	<path class="st17" d="M798.6,238.5L798.6,238.5c-0.2-0.3-0.5-0.5-0.7-0.8l-0.7,0.7C797.6,238.6,798.1,238.6,798.6,238.5z"/>
	<path class="st17" d="M792,243.4c1,1.5,2.3,3.4,3.7,5.7h1.1c-1.7-2.3-3.2-4.3-4.6-5.9L792,243.4z"/>
	<path class="st17" d="M840.9,227.9c-0.2-0.3-0.3-0.6-0.5-0.8l-3.5-3.2l-3.2,0.6C835.9,225.8,838.3,226.9,840.9,227.9z"/>
	<path class="st17" d="M840.3,227c0.2,0.3,0.4,0.5,0.5,0.8l0.7,0.2l0,0c0-0.2,0-0.4,0-0.5l-0.5-0.6c-0.4-0.5-0.9-1-1.3-1.5
		c-0.7-0.6-1.4-1.2-2.1-1.8l-0.9,0.1L840.3,227z M841.5,227.6l-0.5-0.6L841.5,227.6z"/>
	<path class="st17" d="M840.9,227.9c-2.5-0.9-4.9-2.1-7.2-3.4l-1,0.2c2.3,1.4,4.7,2.6,7.1,3.8c0.5,0.2,1,0.2,1.5,0l-0.2-0.3
		L840.9,227.9z"/>
	<path class="st17" d="M840.9,227.9l0.1,0.2l0.2,0.3c0.1-0.1,0.3-0.1,0.4-0.2l0,0L840.9,227.9z"/>
	<path class="st19" d="M944.3,242.1c-3.5-0.7-7.1-1.2-10.6-2c-6.2-1.4-12.3-3.2-18.4-5.4c-7.1-2.5-14.1-5.2-21.1-8
		c-1.7-0.8-3.4-1.7-5-2.7c-4.5-2.7-9.1-5.2-13.9-7.3c-2.1-0.9-4.3-1.6-6.4-2.4c-1.7-0.5-3.6-0.7-5.4-0.5c-0.9-0.1-1.7,0.6-1.7,1.5
		c0,0.1,0,0.3,0,0.4c0,0.6,0.1,1.1,0.3,1.7c0.2,0.7,0.3,1.5,0.1,2.3c0,0.4-0.4,0.7-0.8,0.7c-0.2,0-0.3-0.1-0.5-0.2
		c-1.2-1-2.3-2.3-3.1-3.7c-0.5-1-1.1-2-1.7-3l-8.2,8.5l-0.4,0.1c0.4,0.6,0.8,1.1,1.3,1.6c1.4,1.4,2.8,2.9,4.3,4.3
		c3.3,3.1,7.5,5,12,5.4c0.5,0.1,1,0,1.4-0.1c1.2-0.4,2.4-0.5,3.7-0.4c3.4,0,6.9,0,10.3,0c2.7,0,5.3,0.6,7.8,1.6
		c0.9,0.4,1.8,0.6,2.7,0.9c2.9,1,5.8,1.7,8.8,2.5c6,1.7,12,3,18,4.2c3.5,0.7,7.1,1.4,10.7,1.9c2.7,0.5,5.4,0.9,8.2,1
		c0.4,0,0.8,0,1.1,0.1c2,0.7,4,0.5,6,0.5c3.2,0,6.3,0,9.5,0c0.7,0,1.3,0,2,0c0.4,0,0.8,0,0.9-0.5s-0.3-0.9-0.7-1.1
		c-0.4-0.3-0.8-0.5-1.3-0.6c-2.9-0.6-5.7-1.5-8.7-1.8C945.4,241.9,944.8,242.3,944.3,242.1z"/>
	<path class="st11" d="M856.8,212.7c0.8,1.3,1.6,2.7,2.2,4.1c0.3,0.9,1.1,1.6,2,1.9c0.1-0.1,0.2-0.1,0.2-0.2c0.2-5.3,1.7-6.5,7.1-5
		c5,1.3,9.8,3.3,14.2,6c10.9,6.8,22.9,11.1,34.9,15.2c8.5,2.9,17.3,5.1,26.1,6.6c0.6,0.2,1.4,0.2,2,0c-0.3-0.2-0.7-0.4-1-0.5
		c-6-1.9-11.9-4.1-17.8-6.5c-8.3-3.2-16.4-6.8-24.4-10.7c-3.1-1.5-6.1-3.2-9.1-4.8c-3.9-2.1-7.7-4.3-11.4-6.6
		c-2.9-1.8-5.7-3.7-8.5-5.6l-8.6-2.3L856.8,212.7z"/>
	<path class="st17" d="M943.6,241.3c-8.9-1.5-17.6-3.7-26.1-6.6c-12-4.1-24-8.4-34.9-15.2c-4.4-2.7-9.2-4.7-14.2-6
		c-5.4-1.5-7-0.3-7.1,5c0,0.1-0.1,0.1-0.2,0.2c-0.9-0.2-1.7-0.9-2-1.9c-0.7-1.4-1.4-2.8-2.2-4.1l-0.7,0.7c0.6,1,1.2,1.9,1.7,3
		c0.8,1.4,1.8,2.7,3.1,3.7c0.3,0.3,0.8,0.3,1.1,0c0.1-0.1,0.2-0.3,0.2-0.5c0.2-0.8,0.1-1.5-0.1-2.3c-0.2-0.5-0.3-1.1-0.3-1.7
		c-0.2-0.9,0.4-1.7,1.3-1.9c0.1,0,0.3,0,0.4,0c1.8-0.2,3.6,0,5.4,0.5c2.1,0.8,4.3,1.6,6.4,2.4c4.8,2.1,9.5,4.6,13.9,7.3
		c1.6,1,3.3,2,5,2.7c7,2.8,14,5.5,21.1,8c6,2.1,12.1,3.9,18.4,5.4c3.5,0.8,7.1,1.3,10.6,2c0.6,0.2,1.2-0.2,1.3-0.7c0,0,0,0,0,0
		C944.9,241.6,944.3,241.6,943.6,241.3z"/>
</g>
</svg>
