<svg xmlns="http://www.w3.org/2000/svg" viewBox="0 0 74.19 74.56"><defs><style>.cls-1{fill:#1261b5;}.cls-2{fill:#fff;}</style></defs><title>Asset 3</title><g id="Layer_2" data-name="Layer 2"><g id="FOOTER"><path class="cls-1" d="M21.82,9.47l-.15-5.7a.64.64,0,0,1,1.09-.48l4.11,4a.64.64,0,0,0,1.08-.35L29,1.3a.64.64,0,0,1,1.16-.24l3.19,4.73a.64.64,0,0,0,1.12-.11L36.63.4a.64.64,0,0,1,1.19,0L40,5.69a.64.64,0,0,0,1.12.12l3.23-4.7a.64.64,0,0,1,1.16.25l1,5.62a.64.64,0,0,0,1.07.35L51.68,3.4a.64.64,0,0,1,1.08.49l-.19,5.7a.64.64,0,0,0,1,.57l4.86-3a.64.64,0,0,1,1,.7L58,13.41a.64.64,0,0,0,.84.76l5.37-1.91a.64.64,0,0,1,.79.89l-2.5,5.13a.64.64,0,0,0,.66.92l5.65-.75a.64.64,0,0,1,.59,1L65.89,24a.64.64,0,0,0,.46,1l5.69.44a.64.64,0,0,1,.36,1.13L68,30.24a.64.64,0,0,0,.23,1.11L73.73,33a.64.64,0,0,1,.12,1.18l-5,2.68a.64.64,0,0,0,0,1.13l5,2.72a.64.64,0,0,1-.13,1.18l-5.48,1.58a.64.64,0,0,0-.24,1.1l4.34,3.7a.64.64,0,0,1-.37,1.13l-5.69.4a.64.64,0,0,0-.46,1l3.48,4.52a.64.64,0,0,1-.6,1L63,55.56a.64.64,0,0,0-.67.91l2.46,5.15a.64.64,0,0,1-.8.88l-5.36-1.95a.64.64,0,0,0-.84.75l1.34,5.54a.64.64,0,0,1-1,.69l-4.84-3a.64.64,0,0,0-1,.56l.15,5.7a.64.64,0,0,1-1.09.48l-4.11-4a.64.64,0,0,0-1.08.35l-1,5.61a.64.64,0,0,1-1.16.24l-3.19-4.73a.64.64,0,0,0-1.12.11l-2.18,5.27a.64.64,0,0,1-1.19,0l-2.14-5.29a.64.64,0,0,0-1.12-.12l-3.23,4.7a.64.64,0,0,1-1.16-.25l-1-5.62a.64.64,0,0,0-1.07-.35l-4.13,3.93a.64.64,0,0,1-1.08-.49l.19-5.7a.64.64,0,0,0-1-.57l-4.86,3a.64.64,0,0,1-1-.7l1.38-5.53a.64.64,0,0,0-.84-.76L10,62.3a.64.64,0,0,1-.79-.89l2.5-5.13a.64.64,0,0,0-.66-.92l-5.65.75a.64.64,0,0,1-.59-1L8.3,50.6a.64.64,0,0,0-.46-1l-5.69-.44A.64.64,0,0,1,1.79,48l4.37-3.67a.64.64,0,0,0-.23-1.11L.46,41.6a.64.64,0,0,1-.12-1.18l5-2.68a.64.64,0,0,0,0-1.13l-5-2.72A.64.64,0,0,1,.49,32.7L6,31.13A.64.64,0,0,0,6.21,30l-4.34-3.7a.64.64,0,0,1,.37-1.13l5.69-.4a.64.64,0,0,0,.46-1L4.92,19.24a.64.64,0,0,1,.6-1l5.65.79a.64.64,0,0,0,.67-.91L9.38,12.94a.64.64,0,0,1,.8-.88L15.53,14a.64.64,0,0,0,.84-.75L15,7.71A.64.64,0,0,1,16,7l4.84,3A.64.64,0,0,0,21.82,9.47Z"/><path class="cls-2" d="M20.68,33.09c-.62.36-1.24.73-1.83,1.14a.49.49,0,0,1,.47.21.53.53,0,0,1,.06.33c-.29,3.66.92,10.8-2.63,12.83a3.89,3.89,0,0,1-1.21.44A3.54,3.54,0,0,1,12,46.82a.52.52,0,0,1,.16-.79.74.74,0,0,1,.23-.1c2.06-.56,1.37,1.12,2.78.83a2.11,2.11,0,0,0,.42-.17C16.87,45.88,17,43,16.88,35.78c-.12.09-.3.29-.43.36a1,1,0,0,1-1-.11,2.45,2.45,0,0,1-.41-.44c-.06-.1-.07-.19,0-.27s3.87-2.6,4.37-2.88,1.48-.31,1.68.05C21.24,32.65,21,32.89,20.68,33.09Z"/><path class="cls-2" d="M25.39,36.38c.85,1.63.33,6-1.11,6.86a2.12,2.12,0,0,1-1.66,0A2.32,2.32,0,0,1,21,42.38c-1.13-2,0-5.79.77-6.71a1,1,0,0,1,.31-.27,1.75,1.75,0,0,1,1.29,0c.66.14,1.3-.19,1.92.9Zm-1.51,0c-.94.54-1.81,4.73-1.16,5.87.17.29.45.38.84.15.71-.41,1.33-4.89.77-5.88A.3.3,0,0,0,23.89,36.4Z"/><path class="cls-2" d="M31.12,36.18c0,.46-.87,3.73-1.81,4.26A1.83,1.83,0,0,1,27,39.64c-.47-1-.58-2.93-.11-6.53,0-.33.14-.49.29-.57.32-.18,1.62-.22,1.79.13a.71.71,0,0,1,0,.43c-.6,2.84-.57,5.88-.28,6.49,0,.09.11.13.16.1.62-.36,1.34-2.59,1.65-4.08,0-.09.05-.15.1-.17s.33.1.45.36A.77.77,0,0,1,31.12,36.18Zm-2.46-5.44a1.25,1.25,0,0,1-1.83-.3c-.22-.45,0-1.07.86-1.59s1.47-.28,1.7.18A1.37,1.37,0,0,1,28.66,30.74Z"/><path class="cls-2" d="M37.26,32.3c.12,1.39-.37,3.48-1.66,4.22-.63.38-1.28,0-1.72-.73a6.42,6.42,0,0,1-.25-3.2c-.82,1.66-1.27,6-1.57,6.22a1.37,1.37,0,0,1-1.61-.25.4.4,0,0,1,0-.15c-.12-.72-.13-6.4-.11-6.78a.59.59,0,0,1,.26-.55c.28-.16,1.45-.12,1.61.16a.46.46,0,0,1,.06.24c0,.29-.12,3.51-.22,4.72.37-1.67,1.35-6.06,1.45-6.54a.52.52,0,0,1,.24-.35,2.18,2.18,0,0,1,1.71.31.72.72,0,0,1,0,.46c-.42,2.68-.44,4.46-.13,5a.37.37,0,0,0,.52.17c.52-.3,1-2.48,1.07-3.07A.18.18,0,0,1,37,32c.09,0,.14,0,.22.11A.33.33,0,0,1,37.26,32.3Z"/><path class="cls-2" d="M44.68,23.63l0,0a5.09,5.09,0,0,0-1.09.49c-.41.23-.84.52-1.25.81-.31,2.48-.51,5.58,0,6.52a.44.44,0,0,0,.65.2c.67-.38,1.33-2.61,1.54-3.48,0-.18.09-.28.15-.31s.14,0,.21.13A1.73,1.73,0,0,1,45,29c-.2.92-.73,2.82-1.6,3.32a2,2,0,0,1-1.54.09,1.64,1.64,0,0,1-1.11-.77,2.57,2.57,0,0,1-.25-.67,21.11,21.11,0,0,1-.09-4.72l-.32.21-.08,0a1,1,0,0,1-1.19-.34.23.23,0,0,1,.12-.34c.49-.28,1-.53,1.49-.82l.07,0c.13-1.79.31-3.35.31-3.83a.33.33,0,0,1,.18-.29c.3-.17,1.67-.11,1.86.22a.66.66,0,0,1,0,.52,17.1,17.1,0,0,0-.42,2.26c.82-.49,1.47-.9,1.58-1s.54.13.65.34S44.79,23.57,44.68,23.63Z"/><path class="cls-2" d="M52,24.11c.1.5-.18,3.35-1.48,4.1a1.54,1.54,0,0,1-2.14-.66A7.11,7.11,0,0,1,48,24c-.94,1.81-1.39,5.66-1.58,6a.63.63,0,0,1-.28.28,1,1,0,0,1-1.34-.19,2.28,2.28,0,0,1-.21-1c0-.78.3-9.86.34-10.71a.71.71,0,0,1,.42-.55,1.23,1.23,0,0,1,1.56.24.8.8,0,0,1,.09.45c-.06.71-.67,5.34-.81,7.79.42-1.51,1.34-4.4,1.59-5a.92.92,0,0,1,.38-.51,2.16,2.16,0,0,1,1.87.62.38.38,0,0,1,0,.37c-.34.58-.78,4.52-.28,5.39.1.17.22.22.38.13a5.91,5.91,0,0,0,1.24-3.21.59.59,0,0,1,.2-.42c.13-.07.27,0,.37.17A.53.53,0,0,1,52,24.11Z"/><path class="cls-2" d="M57.21,21.69c0,1.36-1.13,3.73-2.13,4.3a2.74,2.74,0,0,1-2.11.11,2.3,2.3,0,0,1-1.72-1.19c-.79-1.38.4-6.49,1.68-7.27.42-.24.58-.2,1.36.19a2.35,2.35,0,0,1,1.12.82c1.05,1.84-.87,4.92-2.48,5.84l0,0a2,2,0,0,0,.2.62c.22.39.6.52,1.18.19,1.68-1,2-3.39,2.29-3.93,0,0,0,0,0,0a.45.45,0,0,1,.55.19A.74.74,0,0,1,57.21,21.69Zm-3.1-2.26c-.74.42-1.2,2.91-1.26,3.68,1-.54,1.59-3.26,1.37-3.65A.08.08,0,0,0,54.11,19.42Z"/><path class="cls-2" d="M34.73,51.59c.17.3-.35,3.52-2,4.46A1.94,1.94,0,0,1,30.61,56c-.65-.4-.94-.4-1.37-1.16l-.12-.2c-.58-1.22.54-5.67,1.7-6.34.56-.32,1,.3,1.29.38a1.91,1.91,0,0,1,1,.82c.24.42,0,2.21-.53,2.53-.16.09-.66-.12-.84-.42a2.35,2.35,0,0,1-.16-1.16c-.52.87-1.3,3.64-.81,4.5a1,1,0,0,0,1.24.25c1.8-1,1.9-3.16,2.3-3.8a.13.13,0,0,1,0,0c.16-.09.23.06.32.22Z"/><path class="cls-2" d="M38.41,42.33c.59,2.68-1.3,5.88-2.58,7.38a6.16,6.16,0,0,0,.46,2.68c.19.33.44.36.77.17.59-.34,1.42-1.54,1.81-3.55a.37.37,0,0,1,.15-.28c.14-.08.35,0,.46.24a.75.75,0,0,1,.09.53c-.42,2.39-1.39,3.68-2.14,4.11a1.21,1.21,0,0,1-.92.16c-.57-.15-1.47-.16-1.8-.72-1.62-2.84.11-10,.8-11.19a.74.74,0,0,1,.29-.3,1.93,1.93,0,0,1,1.3,0c.48.09,1,0,1.21.46A1.12,1.12,0,0,1,38.41,42.33ZM37.26,43h0c-.58.43-1.12,2.6-1.33,4.82a7.7,7.7,0,0,0,1.43-4.8S37.29,43,37.26,43Z"/><path class="cls-2" d="M46.64,44.33c0,1.2-.57,4.31-1.68,5s-1.78-.19-2.22-1l-.06-.1c-.14.66-.38,2.32-1,2.67s-1.87-.18-2.35-1a1.76,1.76,0,0,1-.2-.48c-.28-1.09.28-4.18.53-5.69a.66.66,0,0,1,.31-.53c.35-.2,1.46-.2,1.67.16a.52.52,0,0,1,0,.45,14.6,14.6,0,0,0-.73,5.71.83.83,0,0,0,.1.31.17.17,0,0,0,.27.07.6.6,0,0,0,.25-.37,60.26,60.26,0,0,0,1.23-7.86.31.31,0,0,1,.17-.27,1.52,1.52,0,0,1,1.68.32.49.49,0,0,1,0,.39c-.23.81-.86,5.08-.36,6a.23.23,0,0,0,.35.11c.7-.38,1.35-3.42,1.43-3.85a.43.43,0,0,1,.19-.3.21.21,0,0,1,.3.09A.5.5,0,0,1,46.64,44.33Z"/><path class="cls-2" d="M48.29,38.73l.12-.07a1.9,1.9,0,0,1,1.64,0,1.64,1.64,0,0,1,1,.92c.72,1.26,0,6.18-1.45,7a1.36,1.36,0,0,1-1.24.08c-.77-.21-1.54,0-2.28-1.27s1-9,.78-10.48a.48.48,0,0,1,.29-.49,1.37,1.37,0,0,1,1.8.32C49.22,35.2,48.42,36.27,48.29,38.73Zm.38,1.07c-.58.33-1.52,4.54-.92,5.58.15.26.38.32.71.13.62-.36,1.5-4.53.9-5.57C49.22,39.7,49,39.61,48.67,39.8Z"/><path class="cls-2" d="M53.91,44.28a.74.74,0,0,1-1-.29c-.27-.46-.27-1.65.28-2a.89.89,0,0,1,1.11.33A2,2,0,0,1,53.91,44.28Zm1.26-12.33c-.09.51-.56,8-.59,8.54a.67.67,0,0,1-.35.6c-.51.29-.91-.25-1.15-.67a.85.85,0,0,1-.12-.35c0-.41.42-7.47.39-7.84s.07-.62.27-.73a1.81,1.81,0,0,1,.6-.15c.2,0,.72-.28.91,0A.85.85,0,0,1,55.17,31.95Z"/></g></g></svg>