<svg xmlns="http://www.w3.org/2000/svg" viewBox="0 0 26.16 26.23"><defs><style>.cls-1{fill:#301c11;}</style></defs><title>Asset 3</title><g id="Layer_2" data-name="Layer 2"><g id="NAVIGATION"><path class="cls-1" d="M16.78,19.56H10.29c-1.39,0-2-.42-2.3-1.48-.24-.89.15-1.56,1.31-2.21a.54.54,0,0,0,.32-.46c.14-1.76,2.2-2.94,3.91-2.76a.78.78,0,0,0,.92-.51,5,5,0,0,1,5.39-2.51,4.72,4.72,0,0,1,3.94,4.52.54.54,0,0,0,.46.57,2.41,2.41,0,0,1,1.86,2.88,2.48,2.48,0,0,1-2.67,2Z"/><path class="cls-1" d="M12.45,3.27a8.86,8.86,0,0,0-8.78,6,8.52,8.52,0,0,0,3.27,9.56,1.76,1.76,0,0,1,.48.37,2.9,2.9,0,0,0,3,1.18c.65-.05,1,.07.65.82a1.44,1.44,0,0,0-.08,1.1.7.7,0,0,1-.21.77c-1,1.07-1.37,1-2-.28s-.9-1.53-2.39-.93c-1.2.48-1.47.3-1.52-1C4.81,19.19,4.63,19,3,19c-1.3,0-1.5-.35-1-1.53.6-1.47.49-1.75-.92-2.4s-1.37-.92-.33-2,1-1.35,0-2.36c-.18-.19-.36-.38-.52-.58A.65.65,0,0,1,.41,9.05,4,4,0,0,1,1,8.79c1.48-.62,1.62-.95,1-2.42C1.47,5.18,1.71,4.83,3,4.81c1.58,0,1.76-.19,1.81-1.8,0-1.34.32-1.52,1.59-1,1.45.56,1.7.45,2.36-1,.53-1.19.85-1.25,1.8-.33,1.1,1.07,1.49,1.07,2.6,0S14.47-.24,15,1s1,1.49,2.33,1S19,1.67,19,3.14s.26,1.66,1.67,1.67a4.39,4.39,0,0,1,.86.06.62.62,0,0,1,.53.89c-.05.17-.1.33-.16.49C21.24,8,21.28,8.07,23,8.85a2.61,2.61,0,0,1,.6.34c.39.32.2.67,0,1s-.5.1-.73-.09A5.32,5.32,0,0,0,20.71,9a1.58,1.58,0,0,1-1.1-1A8.41,8.41,0,0,0,12.45,3.27Z"/><path class="cls-1" d="M4.46,12.34A7.56,7.56,0,0,1,9.78,4.77a7.47,7.47,0,0,1,8.36,3.18c.34.55.29.72-.38.83a5.44,5.44,0,0,0-3.92,2.57.78.78,0,0,1-.81.44,4.09,4.09,0,0,0-4.21,3,.8.8,0,0,1-.39.53,2.32,2.32,0,0,0-1.21,1.51c-.13.54-.32.42-.61.12A7.1,7.1,0,0,1,4.46,12.34Z"/><path class="cls-1" d="M16.25,20.35c.27,0,.47,0,.67,0,.47,0,.52.15.38.57-.5,1.47-1,3-1.44,4.44-.2.62-.6,1-1.3.84a1,1,0,0,1-.79-1.4c.39-1.38.85-2.75,1.32-4.11C15.33,20.06,15.92,20.48,16.25,20.35Z"/><path class="cls-1" d="M13.12,20.35c1.24,0,1.24,0,.81,1.19-.1.27-.18.55-.29.81a1,1,0,0,1-1.28.58,1,1,0,0,1-.79-1.1C11.6,20.68,12,20.35,13.12,20.35Z"/><path class="cls-1" d="M19.68,20.35c1.19,0,1.19,0,.84,1.09a7.55,7.55,0,0,1-.29.81,1,1,0,0,1-1.31.67,1.06,1.06,0,0,1-.76-1.35C18.37,20.43,18.48,20.35,19.68,20.35Z"/></g></g></svg>