<svg xmlns="http://www.w3.org/2000/svg" viewBox="0 0 1037.43 105.35"><defs><style>.cls-1{fill:#f9c33e;}.cls-2{fill:#301c11;}</style></defs><title>Asset 2</title><g id="Layer_2" data-name="Layer 2"><g id="HOME_EXTEND" data-name="HOME EXTEND"><path class="cls-1" d="M15.1,73.78,32.35,48.45l-19.2-28.2h1003c.39,0,.88,0,1.56,0l5.72,0-19.24,28.26,17.25,25.33Z"/><path class="cls-2" d="M1017.7,23.23l-1.58,0H18.82L36,48.45,20.77,70.78h995l-15.21-22.33Z"/><polygon class="cls-1" points="8.74 13.78 4.16 7.06 0 0 1037.14 0 1029.85 10.71 1027.44 13.78 8.74 13.78"/><polygon class="cls-2" points="5.25 3 6.7 5.45 10.33 10.78 1025.98 10.78 1027.43 8.94 1031.47 3 5.25 3"/><polygon class="cls-1" points="4.87 89.79 13.64 76.92 1022.85 76.92 1031.63 89.79 4.87 89.79"/><polygon class="cls-2" points="10.55 86.79 1025.95 86.79 1021.27 79.92 15.23 79.92 10.55 86.79"/><polygon class="cls-1" points="0.06 105.28 5.55 95.76 7 93.64 1029.5 93.71 1037.43 105.35 0.06 105.28"/><polygon class="cls-2" points="1027.92 96.71 8.58 96.64 8.09 97.36 5.25 102.28 1031.76 102.35 1027.92 96.71"/></g></g></svg>